<?xml version="1.0" encoding="UTF-8" standalone="no"?>
<svg width="32px" height="28px" viewBox="0 0 32 28" version="1.1" xmlns="http://www.w3.org/2000/svg" xmlns:xlink="http://www.w3.org/1999/xlink">
    <!-- Generator: Sketch 3.8.3 (29802) - http://www.bohemiancoding.com/sketch -->
    <title>Page 1</title>
    <desc>Created with Sketch.</desc>
    <defs></defs>
    <g id="Page-1" stroke="none" stroke-width="1" fill="none" fill-rule="evenodd">
        <g id="结构列表基本结构信息" transform="translate(-9.000000, -11.000000)">
            <g id="Page-1" transform="translate(9.000000, 11.000000)">
                <polygon id="Fill-1" fill="#00C5A3" points="16.8307733 -0.00036 20.2018844 5.76084 23.5644919 -0.00036"></polygon>
                <polygon id="Fill-2" fill="#00C5A3" points="8.41866667 -0.00036 11.7824889 5.76084 15.1475259 -0.00036"></polygon>
                <polygon id="Fill-16" fill="#2B2B2B" points="15.9918222 5.7612 8.80862222 18.054 23.1750222 18.054"></polygon>
                <polygon id="Fill-3" fill="#00C5A3" points="7.57315556 0.4776 4.20933333 6.2388 10.9430519 6.2388"></polygon>
                <polygon id="Fill-4" fill="#00C5A3" points="27.7743111 6.2388 24.4056296 0.4776 21.0405926 6.2388"></polygon>
                <polygon id="Fill-5" fill="#00C5A3" points="24.4056296 12.9612 27.7743111 7.2 21.0405926 7.2"></polygon>
                <polygon id="Fill-6" fill="#00C5A3" points="10.9430519 7.2 4.20933333 7.2 7.57315556 12.9612"></polygon>
                <polygon id="Fill-7" fill="#00C5A3" points="0 13.43916 6.73371852 13.43916 3.36503704 7.67796"></polygon>
                <polygon id="Fill-8" fill="#00C5A3" points="25.24944 13.43916 31.9831585 13.43916 28.614477 7.67796"></polygon>
                <polygon id="Fill-9" fill="#00C5A3" points="25.24944 14.40036 28.614477 20.16156 31.9831585 14.40036"></polygon>
                <polygon id="Fill-10" fill="#00C5A3" points="0 14.40036 3.36503704 20.16156 6.73371852 14.40036"></polygon>
                <polygon id="Fill-11" fill="#00C5A3" points="21.0401067 21.59964 24.4051437 27.36084 27.7738252 21.59964"></polygon>
                <polygon id="Fill-12" fill="#00C5A3" points="12.6236267 21.59964 15.9923081 27.36084 19.3561304 21.59964"></polygon>
                <polygon id="Fill-13" fill="#00C5A3" points="4.20933333 21.59964 7.57315556 27.36084 10.9430519 21.59964"></polygon>
                <polygon id="Fill-14" fill="#00C5A3" points="8.41866667 27.8388 15.1475259 27.8388 11.7824889 22.0776"></polygon>
                <polygon id="Fill-15" fill="#00C5A3" points="16.8307733 27.8388 23.5644919 27.8388 20.2018844 22.0776"></polygon>
            </g>
        </g>
    </g>
</svg>