<?xml version="1.0" encoding="UTF-8" standalone="no"?>
<svg width="37px" height="33px" viewBox="0 0 37 33" version="1.1" xmlns="http://www.w3.org/2000/svg" xmlns:xlink="http://www.w3.org/1999/xlink">
    <!-- Generator: Sketch 3.8.1 (29687) - http://www.bohemiancoding.com/sketch -->
    <title>Group 2</title>
    <desc>Created with Sketch.</desc>
    <defs></defs>
    <g id="Page-1" stroke="none" stroke-width="1" fill="none" fill-rule="evenodd">
        <g id="Group-2">
            <polygon class="Fill-1" fill="#00C5A3" points="19.3530683 0.000226659541 23.2237714 6.7988796 27.0944744 0.000226659541"></polygon>
            <polygon class="Fill-2" fill="#00C5A3" points="9.67653416 0.000226659541 13.5472372 6.7988796 17.4179403 0.000226659541"></polygon>
            <polygon class="Fill-3" fill="#00C5A3" points="4.83826708 7.3664351 12.5796732 7.3664351 8.70897014 0.566648854"></polygon>
            <polygon class="Fill-4" fill="#00C5A3" points="24.1923411 7.3664351 31.9326298 7.3664351 28.0619267 0.566648854"></polygon>
            <polygon class="Fill-5" fill="#00C5A3" points="28.0625972 15.299519 31.9333002 8.4997328 24.1918941 8.4997328"></polygon>
            <polygon class="Fill-6" fill="#00C5A3" points="12.5797849 8.4997328 4.83837882 8.4997328 8.70908188 15.299519"></polygon>
            <polygon class="Fill-7" fill="#00C5A3" points="0 15.8658279 7.74140611 15.8658279 3.87070306 9.06717497"></polygon>
            <polygon class="Fill-8" fill="#00C5A3" points="29.0306082 15.8658279 36.7708969 15.8658279 32.9013112 9.06717497"></polygon>
            <polygon class="Fill-9" fill="#00C5A3" points="29.0306082 16.9990123 32.9013112 23.7987985 36.7708969 16.9990123"></polygon>
            <polygon class="Fill-10" fill="#00C5A3" points="0 16.9990123 3.87070306 23.7987985 7.74140611 16.9990123"></polygon>
            <polygon class="Fill-11" fill="#EEFCFF" points="27.0949214 22.0993053 18.3858395 6.79978624 9.67675764 22.0993053"></polygon>
            <polygon class="Fill-12" fill="#00C5A3" points="24.1923411 25.4994251 28.0619267 32.298078 31.9326298 25.4994251"></polygon>
            <polygon class="Fill-13" fill="#00C5A3" points="14.5148012 25.4994251 18.3855043 32.298078 22.2562074 25.4994251"></polygon>
            <polygon class="Fill-14" fill="#00C5A3" points="4.83826708 25.4994251 8.70897014 32.298078 12.5796732 25.4994251"></polygon>
            <polygon class="Fill-15" fill="#00C5A3" points="9.67653416 32.8656335 17.4179403 32.8656335 13.5472372 26.0658473"></polygon>
            <polygon class="Fill-16" fill="#00C5A3" points="19.3530683 32.8656335 27.0944744 32.8656335 23.2237714 26.0658473"></polygon>
        </g>
    </g>
</svg>