<?xml version="1.0" encoding="UTF-8" standalone="no"?>
<svg width="18px" height="24px" viewBox="0 0 18 24" version="1.1" xmlns="http://www.w3.org/2000/svg" xmlns:xlink="http://www.w3.org/1999/xlink">
    <!-- Generator: Sketch 3.8.1 (29687) - http://www.bohemiancoding.com/sketch -->
    <title>api</title>
    <desc>Created with Sketch.</desc>
    <defs></defs>
    <g id="Page-1" stroke="none" stroke-width="1" fill="none" fill-rule="evenodd">
        <g id="api" fill="#757575">
            <polygon id="Fill-889" points="4 15.001 14 15.001 14 13.001 4 13.001"></polygon>
            <polygon id="Fill-890" points="12 9.001 4 9.001 4 11.001 12 11.001"></polygon>
            <polygon id="Fill-891" points="4 19.001 14 19.001 14 17.001 4 17.001"></polygon>
            <path d="M2,22.0005 L2,4.0005 L4,4.0005 L4,5.0005 C4,5.5535 4.448,6.0005 5,6.0005 C5.552,6.0005 6,5.5535 6,5.0005 L6,4.0005 L8,4.0005 L8,5.0005 C8,5.5535 8.448,6.0005 9,6.0005 C9.552,6.0005 10,5.5535 10,5.0005 L10,4.0005 L12,4.0005 L12,5.0005 C12,5.5535 12.448,6.0005 13,6.0005 C13.552,6.0005 14,5.5535 14,5.0005 L14,4.0005 L16,4.0005 L16.001,22.0005 L2,22.0005 Z M16,2.0005 L14,2.0005 L14,1.0005 C14,0.4485 13.552,0.0005 13,0.0005 C12.448,0.0005 12,0.4485 12,1.0005 L12,2.0005 L10,2.0005 L10,1.0005 C10,0.4485 9.552,0.0005 9,0.0005 C8.448,0.0005 8,0.4485 8,1.0005 L8,2.0005 L6,2.0005 L6,1.0005 C6,0.4485 5.552,0.0005 5,0.0005 C4.448,0.0005 4,0.4485 4,1.0005 L4,2.0005 L2,2.0005 C0.897,2.0005 0,2.8965 0,4.0005 L0,22.0005 C0,23.1025 0.897,24.0005 2,24.0005 L16,24.0005 C17.103,24.0005 18,23.1025 18,22.0005 L18,4.0005 C18,2.8965 17.103,2.0005 16,2.0005 L16,2.0005 Z" id="Fill-892"></path>
        </g>
    </g>
</svg>