<?xml version="1.0" encoding="UTF-8" standalone="no"?>
<svg width="20px" height="24px" viewBox="0 0 20 24" version="1.1" xmlns="http://www.w3.org/2000/svg" xmlns:xlink="http://www.w3.org/1999/xlink">
    <!-- Generator: Sketch 3.8.1 (29687) - http://www.bohemiancoding.com/sketch -->
    <title>jg</title>
    <desc>Created with Sketch.</desc>
    <defs></defs>
    <g id="Page-1" stroke="none" stroke-width="1" fill="none" fill-rule="evenodd">
        <g id="jg" fill="#757575">
            <path d="M18.0015,16.0005 L7.9995,16.0005 L7.9995,2.0005 L13.9995,2.0005 L13.9995,6.0005 L17.9995,6.0005 L18.0015,16.0005 Z M15.4145,0.0005 L7.9995,0.0005 C6.8965,0.0005 5.9995,0.8985 5.9995,2.0005 L5.9995,16.0005 C5.9995,17.1025 6.8965,18.0005 7.9995,18.0005 L17.9995,18.0005 C19.1025,18.0005 19.9995,17.1025 19.9995,16.0005 L19.9995,4.5865 L15.4145,0.0005 Z" id="Fill-43"></path>
            <path d="M5,3.0005 L3,3.0005 L3,19.0005 C3,20.1025 3.897,21.0005 5,21.0005 L17,21.0005 L17,19.0005 L5,19.0005 L5,3.0005 Z" id="Fill-44"></path>
            <path d="M2,6.0005 L0,6.0005 L0,22.0005 C0,23.1025 0.897,24.0005 2,24.0005 L14,24.0005 L14,22.0005 L2,22.0005 L2,6.0005 Z" id="Fill-45"></path>
        </g>
    </g>
</svg>