<?xml version="1.0" encoding="UTF-8" standalone="no"?>
<svg width="88px" height="49px" viewBox="0 0 88 49" version="1.1" xmlns="http://www.w3.org/2000/svg" xmlns:xlink="http://www.w3.org/1999/xlink">
    <!-- Generator: Sketch 3.8.1 (29687) - http://www.bohemiancoding.com/sketch -->
    <title>logo</title>
    <desc>Created with Sketch.</desc>
    <defs></defs>
    <g id="Page-1" stroke="none" stroke-width="1" fill="none" fill-rule="evenodd">
        <g id="rop-copy" transform="translate(-30.000000, -25.000000)" fill="#FFFFFF">
            <path d="M117.588686,30.2574605 L115.616491,30.2574605 C115.373921,30.2574605 115.25791,30.1396763 115.25791,29.8934001 L115.25791,25.5246753 C115.25791,25.1713225 115.173538,25.0856613 114.83605,25.0856613 L114.709492,25.0856613 C114.372004,25.0856613 114.287632,25.1713225 114.287632,25.5246753 L114.287632,30.1182609 C114.287632,30.8677971 114.604027,31.1890268 115.342282,31.1890268 L117.588686,31.1890268 C117.915628,31.1890268 118,31.1033655 118,30.7607205 L118,30.6857669 C118,30.3431218 117.915628,30.2574605 117.588686,30.2574605 L117.588686,30.2574605 Z M110.227229,26.5633182 C110.37488,26.0065199 110.448706,25.8887357 110.744008,25.8887357 C111.03931,25.8887357 111.113135,26.0065199 111.260786,26.5633182 L111.809204,28.608481 L109.678811,28.608481 L110.227229,26.5633182 Z M108.444871,31.1890268 L108.571429,31.1890268 C108.908917,31.1890268 109.003835,31.1033655 109.1093,30.7714281 L109.446788,29.4972167 L112.041227,29.4972167 L112.378715,30.7714281 C112.48418,31.1033655 112.579099,31.1890268 112.916587,31.1890268 L113.043145,31.1890268 C113.391179,31.1890268 113.443912,31.1033655 113.35954,30.7714281 L112.220518,26.5847335 C112.06232,25.974397 111.88303,25.5567983 111.703739,25.3426451 C111.513902,25.1177842 111.197507,25.0107077 110.744008,25.0107077 C110.301055,25.0107077 109.98466,25.1177842 109.784276,25.3426451 C109.604986,25.5567983 109.425695,25.974397 109.267498,26.5847335 L108.128476,30.7714281 C108.044104,31.1033655 108.096836,31.1890268 108.444871,31.1890268 L108.444871,31.1890268 Z M105.449664,26.0172276 L105.449664,30.7607205 C105.449664,31.1033655 105.534036,31.1890268 105.871524,31.1890268 L105.998082,31.1890268 C106.346117,31.1890268 106.419942,31.1033655 106.419942,30.7607205 L106.419942,26.0172276 L107.854267,26.0172276 C108.191755,26.0172276 108.26558,25.9315663 108.26558,25.5996289 L108.26558,25.5139676 C108.26558,25.1713225 108.191755,25.0856613 107.854267,25.0856613 L104.004794,25.0856613 C103.677852,25.0856613 103.59348,25.1713225 103.59348,25.5139676 L103.59348,25.5996289 C103.59348,25.9315663 103.677852,26.0172276 104.004794,26.0172276 L105.449664,26.0172276 Z M102.169703,31.1890268 C102.507191,31.1890268 102.591563,31.1033655 102.591563,30.7607205 L102.591563,25.5246753 C102.591563,25.1713225 102.507191,25.0856613 102.169703,25.0856613 L102.053691,25.0856613 C101.705657,25.0856613 101.621285,25.1713225 101.621285,25.5246753 L101.621285,30.7607205 C101.621285,31.1033655 101.705657,31.1890268 102.053691,31.1890268 L102.169703,31.1890268 Z M97.0230105,26.3705803 C97.0230105,26.1350118 97.1390221,26.0172276 97.3815916,26.0172276 L98.5311601,26.0172276 C99.3116012,26.0172276 99.5858102,26.3384574 99.5858102,27.0772858 C99.5858102,27.8268219 99.3116012,28.137344 98.5311601,28.137344 L97.0230105,28.137344 L97.0230105,26.3705803 Z M96.590604,31.1890268 C96.9386385,31.1890268 97.0230105,31.1033655 97.0230105,30.7607205 L97.0230105,29.0582027 L98.5311601,29.0582027 C99.8811122,29.0582027 100.556088,28.3943279 100.556088,27.0772858 C100.556088,25.8030744 99.9654842,25.0856613 98.5311601,25.0856613 L97.096836,25.0856613 C96.358581,25.0856613 96.0527325,25.406891 96.0527325,26.1564272 L96.0527325,30.7607205 C96.0527325,31.1033655 96.1371045,31.1890268 96.4745925,31.1890268 L96.590604,31.1890268 Z M91.9712368,26.5633182 C92.1294343,26.0065199 92.2138063,25.8887357 92.5091083,25.8887357 C92.8044104,25.8887357 92.8676894,26.0065199 93.0258869,26.5633182 L93.5743049,28.608481 L91.4333653,28.608481 L91.9712368,26.5633182 Z M93.7957814,29.4972167 L94.1438159,30.7714281 C94.2387344,31.1033655 94.3336529,31.1890268 94.6816874,31.1890268 L94.8082454,31.1890268 C95.1457335,31.1890268 95.198466,31.1033655 95.1246405,30.7714281 L93.9856184,26.5847335 C93.8168744,25.974397 93.6481304,25.5567983 93.4582934,25.3426451 C93.2790029,25.1177842 92.9520614,25.0107077 92.5091083,25.0107077 C92.0450623,25.0107077 91.7392138,25.1177842 91.5388303,25.3426451 C91.3595398,25.5567983 91.1802493,25.974397 91.0115053,26.5847335 L89.8830297,30.7714281 C89.7986577,31.1033655 89.8513902,31.1890268 90.1994247,31.1890268 L90.3259827,31.1890268 C90.6634708,31.1890268 90.7583893,31.1033655 90.8638543,30.7714281 L91.2013423,29.4972167 L93.7957814,29.4972167 Z M87.7315436,30.3645371 C86.6136146,30.3645371 86.2339406,29.8612771 86.2339406,28.9511261 L86.2339406,27.4413462 C86.2339406,26.4027033 86.6663471,25.9208587 87.6999041,25.9208587 C88.1428571,25.9208587 88.5330777,25.9958123 88.8916587,26.1350118 C89.1869607,26.2527961 89.2607862,26.1671348 89.2607862,25.8351974 L89.2607862,25.6852902 C89.2607862,25.3854757 89.2080537,25.3426451 88.8811122,25.2034455 C88.5647172,25.0749536 88.1744966,25.0107077 87.7104506,25.0107077 C86.0651965,25.0107077 85.232023,25.8244897 85.232023,27.4413462 L85.232023,28.9511261 C85.232023,30.5679826 86.05465,31.2853958 87.7104506,31.2853958 C88.1955896,31.2853958 88.5963567,31.2211498 88.9127517,31.1033655 C89.1869607,30.996289 89.2924257,30.9106277 89.2924257,30.6108132 L89.2924257,30.4716137 C89.2924257,30.1717992 89.1131352,30.086138 88.9232982,30.1610916 C88.6174497,30.3002911 88.2272291,30.3645371 87.7315436,30.3645371 L87.7315436,30.3645371 Z M82.5321189,31.2853958 C82.8063279,31.2853958 83.0594439,31.2746881 83.3231064,31.2211498 C84.050815,31.1033655 84.2722915,30.7285975 84.2722915,29.9148154 L84.2722915,28.1908823 C84.2722915,27.8589449 84.1879195,27.7732836 83.8609779,27.7732836 L83.7766059,27.7732836 C83.4391179,27.7732836 83.3547459,27.8589449 83.3547459,28.1908823 L83.3547459,29.8934001 C83.3547459,30.1610916 83.2492809,30.3109988 83.0383509,30.3324141 C82.9328859,30.3538294 82.7641419,30.3645371 82.5321189,30.3645371 C81.2243528,30.3645371 80.7919463,29.8826924 80.7919463,28.9725414 L80.7919463,27.4734692 C80.7919463,26.3598727 81.2559923,25.9208587 82.5004794,25.9208587 C82.9539789,25.9208587 83.3863854,25.9958123 83.7976989,26.1564272 C84.093001,26.2635037 84.1668265,26.1778425 84.1668265,25.845905 L84.1668265,25.7067055 C84.1668265,25.3961834 84.135187,25.3533527 83.8082454,25.2355685 C83.4180249,25.0856613 82.9750719,25.0107077 82.4899329,25.0107077 C80.6442953,25.0107077 79.8005753,25.8994433 79.8005753,27.4092232 L79.8005753,28.9082955 C79.8005753,30.6108132 80.6126558,31.2853958 82.5321189,31.2853958 L82.5321189,31.2853958 Z M74.400767,31.1890268 C74.738255,31.1890268 74.822627,31.1033655 74.822627,30.7607205 L74.822627,26.1564272 C74.822627,25.942274 74.885906,25.8351974 75.0019175,25.8351974 C75.1390221,25.8351974 75.1917546,25.8887357 75.2550336,26.1350118 L76.3940556,30.2360452 C76.6155321,31.0177043 76.9002876,31.2853958 77.5752637,31.2853958 C78.3135187,31.2853958 78.6193672,30.9534583 78.6193672,30.0325997 L78.6193672,25.5246753 C78.6193672,25.1713225 78.5349952,25.0856613 78.1975072,25.0856613 L78.1025887,25.0856613 C77.7651007,25.0856613 77.6807287,25.1713225 77.6807287,25.5246753 L77.6807287,30.1396763 C77.6807287,30.3431218 77.6174497,30.4501984 77.5014382,30.4501984 C77.3748802,30.4501984 77.3221477,30.3966601 77.2588686,30.1825069 L76.0987536,25.9851046 C75.8772771,25.2355685 75.6241611,25 74.970278,25 C74.2003835,25 73.8839885,25.3319374 73.8839885,26.2313808 L73.8839885,30.7607205 C73.8839885,31.1033655 73.957814,31.1890268 74.3058485,31.1890268 L74.400767,31.1890268 Z M68.8005753,27.4841769 C68.8005753,26.9273786 68.8954938,26.5311952 69.0958773,26.2956267 C69.2857143,26.0600582 69.6864813,25.9315663 70.2665388,25.9315663 C70.8465964,25.9315663 71.2473634,26.0600582 71.4372004,26.2956267 C71.6270374,26.5311952 71.7325024,26.9273786 71.7325024,27.4841769 L71.7325024,28.8226342 C71.7325024,29.3687248 71.6270374,29.7542005 71.4372004,30.0111843 C71.2473634,30.2467528 70.8465964,30.3645371 70.2665388,30.3645371 C69.6864813,30.3645371 69.2857143,30.2467528 69.0958773,30.0111843 C68.8954938,29.7542005 68.8005753,29.3687248 68.8005753,28.8226342 L68.8005753,27.4841769 Z M70.2665388,31.2961034 C71.1840844,31.2961034 71.8063279,31.0926579 72.1649089,30.6750592 C72.5234899,30.2467528 72.7133269,29.6364163 72.7133269,28.8226342 L72.7133269,27.4841769 C72.7133269,26.6703948 72.5340364,26.0600582 72.1754554,25.6424595 C71.8168744,25.2248608 71.1840844,25.0107077 70.2665388,25.0107077 C69.3489933,25.0107077 68.7162033,25.2248608 68.3576222,25.6424595 C67.9990412,26.0600582 67.8197507,26.6703948 67.8197507,27.4841769 L67.8197507,28.8226342 C67.8197507,29.6364163 67.9990412,30.2467528 68.3576222,30.6750592 C68.7162033,31.0926579 69.3489933,31.2961034 70.2665388,31.2961034 L70.2665388,31.2961034 Z M63.2636625,26.3705803 C63.2636625,26.1350118 63.379674,26.0172276 63.6222435,26.0172276 L64.8034516,26.0172276 C65.5838926,26.0172276 65.8264621,26.3063344 65.8264621,26.9702092 C65.8264621,27.6126688 65.5838926,27.9231909 64.8034516,27.9231909 L63.2636625,27.9231909 L63.2636625,26.3705803 Z M62.8418025,31.1890268 C63.1792905,31.1890268 63.2636625,31.1033655 63.2636625,30.7607205 L63.2636625,28.8440495 L64.4554171,28.8440495 L65.6682646,30.7714281 C65.8791946,31.1033655 66.0268456,31.1890268 66.4065197,31.1890268 L66.5541707,31.1890268 C66.9443912,31.1890268 66.9971237,31.1033655 66.7756472,30.7714281 L65.5100671,28.7798036 C66.4276127,28.5870657 66.8072867,27.9767292 66.8072867,26.9702092 C66.8072867,25.7495361 66.2377756,25.0856613 64.8034516,25.0856613 L63.3480345,25.0856613 C62.6097795,25.0856613 62.2933845,25.406891 62.2933845,26.1564272 L62.2933845,30.7607205 C62.2933845,31.1033655 62.3777565,31.1890268 62.7152445,31.1890268 L62.8418025,31.1890268 Z M110.638543,50.0987524 C110.638543,54.0284632 109.404602,55.7416886 104.627037,55.7416886 C99.8600192,55.7416886 98.5100671,54.0284632 98.5100671,50.0987524 L98.5100671,45.5372897 C98.5100671,41.5968712 99.8600192,39.8943535 104.627037,39.8943535 C109.520614,39.8943535 110.638543,41.479087 110.638543,45.5372897 L110.638543,50.0987524 Z M104.574305,32.8701293 C96.5378715,32.8701293 91.2013423,36.864086 91.2013423,45.3552595 L91.2013423,70.2719817 C91.2013423,72.8525274 91.8235858,73.4735717 94.3547459,73.4735717 L95.36721,73.4735717 C97.8878236,73.4735717 98.5100671,72.8525274 98.5100671,70.2719817 L98.5100671,59.5107845 C100.081496,61.6737316 102.665388,62.7444975 106.198466,62.7444975 C113.897411,62.7444975 118,58.1402042 118,49.9167222 L118,45.3552595 C118,37.0354086 113.507191,32.8701293 104.574305,32.8701293 L104.574305,32.8701293 Z M81.1294343,50.0987524 C81.1294343,54.0284632 79.8954938,55.7416886 75.1284756,55.7416886 C70.3509108,55.7416886 69.0009588,54.0284632 69.0009588,50.0987524 L69.0009588,45.5372897 C69.0009588,41.5968712 70.3509108,39.8943535 75.1284756,39.8943535 C79.8954938,39.8943535 81.1294343,41.5968712 81.1294343,45.5372897 L81.1294343,50.0987524 Z M75.1284756,32.8701293 C66.3643337,32.8701293 61.6395014,37.3780536 61.6395014,45.5372897 L61.6395014,50.0987524 C61.6395014,58.5899258 65.9635666,62.7444975 75.1284756,62.7444975 C83.8820709,62.7444975 88.4908917,58.3008191 88.4908917,50.0987524 L88.4908917,45.5372897 C88.4908917,37.0354086 84.282838,32.8701293 75.1284756,32.8701293 L75.1284756,32.8701293 Z M45.9463087,41.5433329 L37.5302013,41.5433329 L37.5302013,33.8445262 C37.5302013,32.7095144 38.0891659,32.1313008 39.2070949,32.1313008 L45.9463087,32.1313008 C49.4899329,32.1313008 50.8398849,33.662496 50.8398849,36.864086 C50.8398849,40.0014301 49.2051774,41.5433329 45.9463087,41.5433329 L45.9463087,41.5433329 Z M50.7766059,48.0964202 C55.8283797,46.7900858 58.3595398,43.0316975 58.3595398,36.864086 C58.3595398,28.9404185 54.2042186,25 45.9463087,25 L36.7392138,25 C32.0249281,25 30,27.0558705 30,31.8529017 L30,58.7612484 C30,61.3203789 30.611697,62.069915 33.2588686,62.069915 L34.2713327,62.069915 C36.9079578,62.069915 37.5302013,61.3203789 37.5302013,58.7612484 L37.5302013,48.6746337 L42.6347076,48.6746337 L49.4899329,59.275216 C50.9980825,61.4917014 52.021093,62.069915 54.5417066,62.069915 L56.6826462,62.069915 C59.3192713,62.069915 59.5407478,61.4381631 58.1380633,59.3287543 L50.7766059,48.0964202 Z" id="logo"></path>
        </g>
    </g>
</svg>