<?xml version="1.0" standalone="no"?><!DOCTYPE svg PUBLIC "-//W3C//DTD SVG 1.1//EN" "http://www.w3.org/Graphics/SVG/1.1/DTD/svg11.dtd" ><svg xmlns="http://www.w3.org/2000/svg"><metadata></metadata><defs><font id="Founder:FZLanTingHeiS-R-GB	Regular" horiz-adv-x="284"><font-face font-family="FZLanTingHeiS-R-GB" font-weight="400" font-stretch="normal" units-per-em="256" panose-1="2 0 0 0 0 0 0 0 0 0" ascent="229" descent="-64" x-height="0" bbox="-14 -64 269 214" underline-thickness="12" underline-position="-52" unicode-range="U+0021-9f99" /><missing-glyph horiz-adv-x="256"  /><glyph glyph-name="" unicode="!" d="M53 191 L25 191 L30 44 L47 44 L53 191 ZM51 -9 L51 17 L26 17 L26 -9 L51 -9 Z" /><glyph glyph-name="" unicode="#" d="M90 66 L99 110 L64 110 L55 66 L90 66 ZM149 110 L118 110 L109 66 L140 66 L137 49 L105 49 L93 -9 L75 -9 L87 49 L52 49 L40 -9 L22 -9 L34 49 L2 49 L6 66 L37 66 L46 110 L15 110 L19 127 L49 127 L61 185 L79 185 L68 127 L103 127 L114 185 L132 185 L121 127 L153 127 L149 110 Z" /><glyph glyph-name="" unicode="&#39;" d="M40 193 L12 193 L18 121 L35 121 L40 193 Z" /><glyph glyph-name="" unicode="(" d="M66 -53 L84 -53 Q38 7 39 77 Q39 147 84 209 L66 209 Q19 147 18 76 Q20 4 66 -53 Z" /><glyph glyph-name="" unicode=")" d="M10 -52 L28 -52 Q74 5 76 77 Q75 148 28 210 L10 210 Q55 147 55 77 Q56 8 10 -52 Z" /><glyph glyph-name="" unicode="*" d="M104 150 L98 172 L62 155 L68 196 L44 196 L49 156 L13 173 L7 150 L46 145 L17 116 L36 101 L56 138 L76 101 L95 115 L65 145 L104 150 Z" /><glyph glyph-name="" unicode="," d="M28 -56 L19 -48 Q37 -35 38 -8 L22 -8 L22 21 L53 21 Q53 13 53 -4 Q53 -38 28 -56 Z" /><glyph glyph-name="" unicode="-" d="M154 80 L154 100 L15 100 L15 80 L154 80 Z" /><glyph glyph-name="" unicode="." d="M57 -8 L57 21 L26 21 L26 -8 L57 -8 Z" /><glyph glyph-name="" unicode="/" d="M0 -12 L19 -12 L77 194 L58 194 L0 -12 Z" /><glyph glyph-name="" unicode="0" d="M77 176 Q36 173 35 90 Q35 4 78 5 Q121 4 121 90 Q121 177 77 176 ZM79 -12 Q12 -11 12 90 Q13 191 78 194 Q143 192 144 90 Q143 -10 79 -12 Z" /><glyph glyph-name="" unicode="1" d="M84 -9 L105 -9 L105 194 L90 194 Q77 162 31 141 L31 120 Q62 132 84 152 L84 -9 Z" /><glyph glyph-name="" unicode="2" d="M140 -7 L140 10 L35 10 Q48 36 89 66 Q142 102 139 141 Q135 192 79 194 Q30 195 13 146 L33 136 Q44 173 75 175 Q115 174 116 138 Q117 111 72 78 Q28 46 9 6 L9 -7 L140 -7 Z" /><glyph glyph-name="" unicode="3" d="M101 97 Q134 109 135 142 Q133 192 76 194 Q26 193 14 144 L36 137 Q43 174 77 175 Q109 174 111 142 Q109 105 66 104 Q60 104 56 104 L56 86 Q60 86 74 86 Q117 84 120 48 Q120 6 75 6 Q38 6 32 47 L9 41 Q21 -12 77 -12 Q140 -9 143 46 Q141 85 101 97 Z" /><glyph glyph-name="" unicode="4" d="M28 58 L96 58 L96 161 Q96 160 94 157 Q93 154 92 152 Q76 131 28 58 ZM144 40 L116 40 L116 -9 L96 -9 L96 40 L4 40 L4 52 L100 194 L116 194 L116 58 L144 58 L144 40 Z" /><glyph glyph-name="" unicode="5" d="M42 109 L48 170 L134 170 L134 190 L31 190 L19 85 L34 82 Q47 103 78 104 Q120 102 122 56 Q120 7 77 5 Q39 6 33 48 L11 42 Q22 -12 79 -12 Q142 -10 144 58 Q140 121 82 124 Q60 124 42 109 Z" /><glyph glyph-name="" unicode="6" d="M33 67 Q34 6 81 4 Q119 6 121 54 Q120 102 81 103 Q42 101 33 67 ZM140 149 L120 142 Q112 177 82 176 Q32 175 32 93 Q48 120 84 121 Q140 118 144 56 Q140 -7 81 -12 Q10 -12 10 85 Q11 194 83 194 Q127 192 140 149 Z" /><glyph glyph-name="" unicode="7" d="M143 176 L143 190 L13 190 L13 170 L116 170 Q56 82 41 -9 L65 -9 Q78 86 143 176 Z" /><glyph glyph-name="" unicode="8" d="M78 87 Q38 85 34 43 Q38 7 79 4 Q120 7 124 41 Q121 85 78 87 ZM79 176 Q46 174 43 142 Q44 105 79 103 Q112 104 114 140 Q111 173 79 176 ZM51 95 Q21 109 19 140 Q23 191 79 194 Q133 190 138 140 Q136 108 108 95 Q145 81 147 41 Q144 -10 79 -12 Q13 -10 11 43 Q14 82 51 95 Z" /><glyph glyph-name="" unicode="9" d="M122 113 Q122 176 74 175 Q36 172 33 126 Q35 80 74 77 Q113 77 122 113 ZM16 31 L37 38 Q44 3 74 4 Q121 6 122 87 Q107 58 72 58 Q16 63 11 124 Q15 189 76 194 Q146 195 145 95 Q145 -11 72 -12 Q28 -10 16 31 Z" /><glyph glyph-name="" unicode=":" d="M56 105 L56 136 L25 136 L25 105 L56 105 ZM56 -6 L56 23 L25 23 L25 -6 L56 -6 Z" /><glyph glyph-name="" unicode=";" d="M56 105 L56 136 L25 136 L25 105 L56 105 ZM32 -55 L23 -47 Q40 -33 41 -7 L25 -7 L25 22 L56 22 Q56 14 56 -3 Q56 -38 32 -55 Z" /><glyph glyph-name="" unicode="&gt;" d="M15 156 L133 90 L15 24 L15 0 L152 80 L152 100 L15 180 L15 156 Z" /><glyph glyph-name="" unicode="?" d="M87 -8 L87 17 L61 17 L61 -8 L87 -8 ZM85 42 L64 42 Q64 47 64 52 Q63 80 90 99 Q121 120 118 144 Q114 173 82 176 Q41 178 33 135 L12 142 Q25 197 84 195 Q137 192 141 143 Q143 112 105 86 Q84 72 85 51 Q85 45 85 42 Z" /><glyph glyph-name="" unicode="@" d="M147 118 Q104 114 98 56 Q95 15 126 17 Q167 23 174 85 Q174 116 147 118 ZM181 134 L202 134 Q194 90 189 48 Q184 13 207 16 Q245 20 248 81 Q241 170 145 176 Q46 169 37 65 Q40 -38 145 -41 Q206 -41 243 -12 L253 -24 Q206 -60 143 -59 Q20 -54 15 64 Q24 187 146 194 Q263 190 269 83 Q265 5 202 0 Q168 0 169 35 Q156 0 120 0 Q74 2 75 58 Q83 131 146 136 Q171 135 178 116 Q179 116 179 122 Q180 129 181 134 Z" /><glyph glyph-name="" unicode="a" d="M56 71 L131 71 L98 156 Q97 161 94 170 Q91 161 89 156 L56 71 ZM164 -9 L139 52 L48 52 L24 -9 L0 -9 L81 191 L105 191 L188 -9 L164 -9 Z" /><glyph glyph-name="" unicode="b" d="M97 84 L42 84 L42 9 L101 9 Q148 9 148 48 Q145 82 97 84 ZM94 171 L42 171 L42 104 L94 104 Q135 106 139 140 Q137 170 94 171 ZM104 -9 L21 -9 L21 191 L99 191 Q159 188 163 141 Q160 104 123 97 L123 96 Q168 89 171 45 Q168 -7 104 -9 Z" /><glyph glyph-name="" unicode="c" d="M166 60 L192 54 Q173 -11 105 -12 Q19 -7 14 87 Q18 189 107 194 Q164 192 188 136 L163 130 Q145 173 105 174 Q44 168 38 89 Q42 12 104 6 Q153 8 166 60 Z" /><glyph glyph-name="" unicode="d" d="M91 171 L44 171 L44 8 L90 8 Q166 9 165 90 Q162 168 91 171 ZM90 -9 L22 -9 L22 191 L92 191 Q185 188 188 91 Q190 -11 90 -9 Z" /><glyph glyph-name="" unicode="e" d="M45 9 L172 9 L172 -9 L22 -9 L22 191 L166 191 L166 172 L45 172 L45 104 L159 104 L159 84 L45 84 L45 9 Z" /><glyph glyph-name="" unicode="f" d="M158 171 L45 171 L45 104 L143 104 L144 84 L45 84 L45 -9 L23 -9 L23 191 L158 191 L158 171 Z" /><glyph glyph-name="" unicode="g" d="M114 94 L200 94 L200 21 Q175 -12 114 -12 Q20 -7 15 88 Q19 190 110 194 Q177 193 199 135 L174 129 Q158 173 109 174 Q45 168 39 89 Q44 12 113 6 Q158 6 178 30 L178 75 L114 75 L114 94 Z" /><glyph glyph-name="" unicode="h" d="M157 191 L179 191 L179 -9 L157 -9 L157 84 L45 84 L45 -9 L22 -9 L22 191 L45 191 L45 104 L157 104 L157 191 Z" /><glyph glyph-name="" unicode="i" d="M26 -9 L48 -9 L48 191 L26 191 L26 -9 Z" /><glyph glyph-name="" unicode="j" d="M119 51 L119 191 L96 191 L96 50 Q96 6 63 7 Q30 5 30 49 L8 45 Q11 -13 62 -12 Q121 -14 119 51 Z" /><glyph glyph-name="" unicode="k" d="M155 -9 L83 94 L43 54 L43 -9 L20 -9 L20 191 L43 191 L43 82 L150 191 L182 191 L97 108 L186 -9 L155 -9 Z" /><glyph glyph-name="" unicode="l" d="M146 -9 L146 9 L43 9 L43 191 L20 191 L20 -9 L146 -9 Z" /><glyph glyph-name="" unicode="m" d="M191 -9 L214 -9 L214 191 L184 191 L126 45 Q121 32 118 18 L117 18 Q113 34 109 46 L51 191 L21 191 L21 -9 L42 -9 L42 131 Q42 147 40 173 L41 174 Q43 165 47 149 L110 -9 L123 -9 L187 148 Q191 158 194 174 L195 173 Q195 170 194 162 Q191 137 191 132 L191 -9 Z" /><glyph glyph-name="" unicode="n" d="M179 -9 L179 191 L157 191 L157 45 Q157 29 159 14 L158 14 Q156 20 150 30 L47 191 L21 191 L21 -9 L43 -9 L43 138 Q43 159 40 171 L41 171 Q45 159 50 151 L154 -9 L179 -9 Z" /><glyph glyph-name="" unicode="o" d="M110 174 Q44 168 37 89 Q41 12 108 6 Q178 10 182 89 Q176 168 110 174 ZM109 -12 Q18 -7 14 87 Q18 189 112 194 Q201 188 207 89 Q203 -8 109 -12 Z" /><glyph glyph-name="" unicode="p" d="M102 171 L44 171 L44 92 L102 92 Q150 93 151 133 Q149 170 102 171 ZM106 72 L44 72 L44 -9 L22 -9 L22 191 L108 191 Q169 188 175 132 Q174 73 106 72 Z" /><glyph glyph-name="" unicode="q" d="M106 7 Q175 11 179 90 Q173 169 108 174 Q41 168 35 90 Q40 14 106 7 ZM136 -6 L184 -54 L155 -60 L112 -10 Q110 -10 107 -10 Q16 -5 12 88 Q16 190 110 194 Q198 188 205 90 Q203 11 136 -6 Z" /><glyph glyph-name="" unicode="r" d="M45 171 L45 101 L110 101 Q159 102 159 138 Q158 170 110 171 L45 171 ZM198 -9 L167 -9 L98 81 L45 81 L45 -9 L22 -9 L22 191 L115 191 Q179 188 183 137 Q183 85 123 81 L198 -9 Z" /><glyph glyph-name="" unicode="s" d="M143 133 L167 140 Q155 195 90 195 Q24 192 20 141 Q16 99 92 84 Q153 72 148 44 Q146 7 97 6 Q42 4 35 56 L12 48 Q24 -14 98 -12 Q167 -9 172 43 Q176 90 94 105 Q42 116 43 141 Q45 174 92 175 Q132 175 143 133 Z" /><glyph glyph-name="" unicode="t" d="M166 191 L166 172 L98 172 L98 -9 L75 -9 L75 172 L7 172 L7 191 L166 191 Z" /><glyph glyph-name="" unicode="u" d="M158 191 L158 75 Q160 4 100 6 Q44 4 45 75 L45 191 L22 191 L22 74 Q21 -13 100 -12 Q181 -13 180 74 L180 191 L158 191 Z" /><glyph glyph-name="" unicode="v" d="M189 191 L164 191 L103 30 Q103 29 102 27 Q98 12 97 7 L96 7 Q93 21 90 30 L28 191 L4 191 L84 -9 L108 -9 L189 191 Z" /><glyph glyph-name="" unicode="w" d="M133 173 L145 191 L122 191 L75 31 Q71 17 71 7 L70 7 Q70 21 67 31 L27 191 L4 191 L59 -9 L81 -9 L130 151 Q133 166 133 173 ZM124 191 L133 173 L134 173 Q134 163 136 151 L183 -9 L205 -9 L262 191 L238 191 L197 31 Q197 29 196 25 Q194 12 194 7 L193 7 Q193 17 189 31 L145 191 L124 191 Z" /><glyph glyph-name="" unicode="x" d="M186 -9 L108 93 L179 191 L152 191 L104 120 Q98 111 94 104 Q93 105 92 108 Q88 116 86 120 L37 191 L11 191 L80 93 L1 -9 L29 -9 L87 69 Q88 71 91 75 Q93 80 94 81 Q97 76 101 69 L157 -9 L186 -9 Z" /><glyph glyph-name="" unicode="y" d="M185 191 L103 72 L103 -10 L80 -10 L80 72 L1 191 L26 191 L83 105 Q85 102 89 95 Q91 92 92 90 Q94 92 97 98 Q101 103 102 105 L157 191 L185 191 Z" /><glyph glyph-name="" unicode="z" d="M160 177 L160 191 L17 191 L17 171 L130 171 L5 1 L5 -9 L164 -9 L164 8 L35 8 L160 177 Z" /><glyph glyph-name="" unicode="a" d="M115 48 L115 67 Q111 59 72 56 Q32 51 33 28 Q34 6 66 6 Q111 9 115 48 ZM36 92 L15 98 Q26 143 80 141 Q139 142 137 85 L137 26 Q136 2 145 -8 L124 -8 Q117 0 117 12 Q99 -12 60 -12 Q14 -10 11 26 Q12 68 64 73 Q106 77 115 84 Q118 124 79 122 Q41 124 36 92 Z" /><glyph glyph-name="" unicode="b" d="M40 78 L40 55 Q41 5 81 4 Q122 5 123 62 Q122 121 78 122 Q43 119 40 78 ZM40 -8 L18 -8 L18 191 L40 191 L40 115 Q56 139 82 140 Q141 137 144 62 Q143 -9 88 -11 Q51 -12 40 13 L40 -8 Z" /><glyph glyph-name="" unicode="c" d="M114 90 L135 97 Q123 139 75 140 Q13 137 11 63 Q12 -10 76 -12 Q129 -14 137 38 L115 43 Q112 5 77 5 Q34 5 34 63 Q34 122 77 122 Q105 120 114 90 Z" /><glyph glyph-name="" unicode="d" d="M114 55 L114 78 Q111 119 76 122 Q32 121 31 62 Q32 6 73 4 Q113 5 114 55 ZM136 -8 L114 -8 L114 13 Q103 -12 67 -11 Q12 -8 10 62 Q13 137 72 140 Q98 139 114 115 L114 191 L136 191 L136 -8 Z" /><glyph glyph-name="" unicode="e" d="M35 75 L122 75 Q120 119 79 121 Q38 117 35 75 ZM122 37 L144 31 Q132 -13 80 -12 Q13 -9 11 62 Q14 137 79 140 Q143 138 145 62 Q145 58 145 57 L34 57 Q36 8 79 5 Q113 5 122 37 Z" /><glyph glyph-name="" unicode="f" d="M45 156 L44 137 L74 137 L74 119 L44 119 L44 -8 L23 -8 L23 119 L0 119 L0 137 L23 137 L23 155 Q22 195 57 194 Q72 194 86 189 L82 173 Q73 176 63 176 Q44 177 45 156 Z" /><glyph glyph-name="" unicode="g" d="M116 59 L116 81 Q114 119 76 123 Q32 121 30 66 Q32 14 73 11 Q115 12 116 59 ZM138 137 L138 10 Q142 -62 69 -59 Q33 -59 15 -38 L24 -27 Q44 -41 68 -42 Q117 -43 116 4 L116 19 Q106 -5 67 -4 Q11 -1 9 66 Q12 137 72 140 Q101 139 116 116 L116 137 L138 137 Z" /><glyph glyph-name="" unicode="h" d="M137 85 L137 -8 L115 -8 L115 82 Q115 123 82 123 Q43 118 40 81 L40 -9 L18 -9 L18 191 L40 191 L40 115 Q57 140 87 141 Q138 142 137 85 Z" /><glyph glyph-name="" unicode="i" d="M19 -9 L40 -9 L40 137 L19 137 L19 -9 ZM19 164 L40 164 L40 191 L19 191 L19 164 Z" /><glyph glyph-name="" unicode="j" d="M19 164 L40 164 L40 191 L19 191 L19 164 ZM40 137 L40 -25 Q41 -60 9 -59 Q1 -59 -12 -56 Q-11 -56 -14 -55 L-11 -42 Q-5 -43 4 -43 Q19 -43 19 -25 L19 137 L40 137 Z" /><glyph glyph-name="" unicode="k" d="M113 -8 L63 68 L40 45 L40 -9 L18 -8 L18 191 L40 191 L40 71 L104 137 L134 137 L77 81 L140 -8 L113 -8 Z" /><glyph glyph-name="" unicode="l" d="M18 -8 L39 -8 L39 191 L18 191 L18 -8 Z" /><glyph glyph-name="" unicode="m" d="M215 87 L215 -8 L194 -8 L194 82 Q195 124 164 123 Q130 120 127 81 L127 -8 L106 -8 L106 82 Q107 124 77 123 Q43 120 39 83 L39 -8 L18 -8 L18 137 L39 137 L39 115 Q55 141 79 141 Q116 141 124 110 Q140 141 167 141 Q216 142 215 87 Z" /><glyph glyph-name="" unicode="n" d="M137 85 L137 -8 L116 -8 L116 82 Q115 122 82 123 Q43 118 39 81 L39 -8 L18 -9 L18 137 L39 137 L39 115 Q56 140 87 141 Q137 141 137 85 Z" /><glyph glyph-name="" unicode="o" d="M78 123 Q32 122 31 62 Q32 6 78 4 Q121 6 122 63 Q119 119 78 123 ZM77 -12 Q12 -8 9 61 Q11 138 79 140 Q142 137 145 64 Q144 -11 77 -12 Z" /><glyph glyph-name="" unicode="p" d="M39 78 L39 55 Q40 5 81 4 Q122 5 123 62 Q122 120 78 122 Q42 118 39 78 ZM39 -59 L18 -59 L18 137 L39 137 L39 115 Q56 140 82 140 Q141 137 144 62 Q143 -9 87 -11 Q52 -12 39 13 L39 -59 Z" /><glyph glyph-name="" unicode="q" d="M114 55 L114 78 Q111 119 75 122 Q31 120 30 62 Q32 7 72 4 Q113 5 114 55 ZM135 -59 L114 -59 L114 13 Q103 -12 66 -11 Q11 -7 9 62 Q12 137 71 140 Q97 140 114 115 L114 137 L135 137 L135 -59 Z" /><glyph glyph-name="" unicode="r" d="M89 113 L98 133 Q86 141 74 140 Q50 139 40 111 L39 111 L39 137 L18 137 L18 -9 L39 -9 L39 70 Q39 94 48 105 Q59 119 71 119 Q80 119 89 113 Z" /><glyph glyph-name="" unicode="s" d="M102 96 L124 102 Q115 140 68 141 Q19 139 15 100 Q13 63 71 56 Q109 49 108 29 Q107 5 71 4 Q38 3 30 37 L9 31 Q21 -13 71 -12 Q129 -11 130 30 Q131 65 77 74 Q36 81 37 100 Q40 121 69 122 Q96 122 102 96 Z" /><glyph glyph-name="" unicode="t" d="M71 4 L75 -7 Q65 -11 53 -11 Q22 -12 23 21 L23 119 L3 119 L3 137 L23 137 L23 176 L44 187 L44 137 L71 137 L71 119 L44 119 L44 21 Q43 2 60 3 Q66 3 71 4 Z" /><glyph glyph-name="" unicode="u" d="M115 137 L136 137 L136 -8 L115 -8 L115 12 Q99 -11 67 -12 Q16 -13 17 42 L17 137 L38 137 L38 44 Q39 5 72 4 Q111 8 115 45 L115 137 Z" /><glyph glyph-name="" unicode="v" d="M137 137 L114 137 L74 26 Q70 14 70 8 L69 8 Q68 12 67 19 Q65 24 65 26 L27 137 L3 137 L58 -8 L80 -8 L137 137 Z" /><glyph glyph-name="" unicode="w" d="M201 137 L178 137 L145 21 Q143 13 143 9 L142 9 Q142 11 141 15 Q141 19 140 21 L112 137 L90 137 L61 21 Q61 20 60 18 Q59 14 59 9 L58 9 Q58 10 57 13 Q56 18 55 21 L23 137 L1 137 L46 -8 L70 -8 L98 102 Q99 104 100 110 Q101 116 101 118 Q103 106 103 102 L130 -8 L153 -8 L201 137 Z" /><glyph glyph-name="" unicode="x" d="M135 137 L109 137 Q80 91 77 87 Q74 81 71 77 Q70 81 65 87 L33 137 L8 137 L60 65 L2 -8 L28 -8 L65 42 Q66 43 69 48 Q70 51 71 52 Q72 50 76 44 Q77 43 77 42 L112 -8 L138 -8 L83 64 L135 137 Z" /><glyph glyph-name="" unicode="y" d="M138 137 L115 137 L74 25 Q71 20 71 15 L70 15 Q70 16 68 23 Q67 26 67 27 Q65 31 28 137 L4 137 L60 -3 Q55 -16 52 -23 Q43 -43 27 -42 Q19 -42 13 -40 L10 -53 Q19 -58 31 -59 Q61 -64 76 -18 Q85 3 138 137 Z" /><glyph glyph-name="" unicode="z" d="M134 -8 L134 8 L36 8 L131 126 L131 137 L12 137 L12 118 L100 118 L5 2 L5 -8 L134 -8 Z" /><glyph glyph-name="" unicode="{" d="M87 -52 L87 -37 Q53 -38 55 -10 L55 44 Q55 69 32 77 L32 78 Q54 85 55 111 L55 169 Q53 195 87 194 L87 210 Q34 212 37 170 L37 112 Q37 86 7 85 L7 70 Q37 69 37 43 L37 -13 Q34 -54 87 -52 Z" /><glyph glyph-name="" unicode="}" d="M7 -37 L7 -52 Q60 -54 57 -13 L57 43 Q57 68 86 70 L86 85 Q57 86 57 112 L57 170 Q60 212 7 210 L7 194 Q40 195 39 169 L39 111 Q40 86 61 78 L61 77 Q40 69 39 44 L39 -10 Q41 -38 7 -37 Z" /><glyph glyph-name="" unicode="&#x4e00;" d="M8 107 L248 107 L248 86 L8 86 L8 107 Z" /><glyph glyph-name="" unicode="&#x4e01;" d="M11 187 L245 187 L245 169 L149 169 L149 12 Q150 -23 112 -22 Q102 -23 65 -23 Q64 -18 62 -11 Q61 -4 60 0 Q88 -2 105 -2 Q129 -4 127 17 L127 169 L11 169 L11 187 Z" /><glyph glyph-name="" unicode="&#x4e07;" d="M11 188 L245 188 L245 169 L106 169 Q106 156 103 119 L216 119 Q215 93 210 25 Q210 -25 163 -23 Q138 -23 118 -23 Q117 -19 116 -10 Q115 -2 114 -1 Q133 -2 161 -2 Q189 -5 190 28 Q192 46 195 101 L102 101 Q100 19 23 -29 Q20 -26 16 -20 Q11 -14 9 -12 Q85 32 82 109 Q82 112 83 120 Q85 158 85 169 L11 169 L11 188 Z" /><glyph glyph-name="" unicode="&#x4e09;" d="M11 8 L245 8 L245 -10 L11 -10 L11 8 ZM26 184 L229 184 L229 163 L26 163 L26 184 ZM37 101 L218 101 L218 80 L37 80 L37 101 Z" /><glyph glyph-name="" unicode="&#x4e0a;" d="M106 204 L127 204 L127 131 L227 131 L227 112 L127 112 L127 3 L246 3 L246 -14 L10 -14 L10 3 L106 3 L106 204 Z" /><glyph glyph-name="" unicode="&#x4e0b;" d="M135 125 Q190 96 232 73 L219 54 Q165 87 127 107 L127 -26 L107 -26 L107 170 L10 170 L10 189 L246 189 L246 170 L127 170 L127 112 L135 125 Z" /><glyph glyph-name="" unicode="&#x4e0d;" d="M13 188 L243 188 L243 169 L155 169 Q141 148 126 127 L137 127 L137 -29 L117 -29 L117 114 Q71 60 19 27 Q11 39 6 44 Q86 94 131 169 L13 169 L13 188 ZM162 114 Q172 107 198 90 Q235 67 249 57 L236 39 Q181 79 150 98 L162 114 Z" /><glyph glyph-name="" unicode="&#x4e0e;" d="M47 94 L59 208 L79 208 L75 170 L247 170 L247 152 L73 152 L70 113 L230 113 Q229 99 226 57 Q224 29 223 18 Q221 -26 168 -23 Q146 -24 116 -24 Q114 -7 112 -3 Q127 -4 167 -4 Q200 -5 202 19 Q204 27 207 79 Q208 91 208 94 L47 94 ZM8 57 L187 57 L187 38 L8 38 L8 57 Z" /><glyph glyph-name="" unicode="&#x4e13;" d="M57 58 L57 76 L68 106 L10 106 L10 124 L76 124 L89 157 L25 157 L25 176 L96 176 L109 208 L130 208 L117 176 L232 176 L232 157 L109 157 L96 124 L248 124 L248 106 L89 106 L77 76 L219 76 L219 57 L155 2 Q172 -4 188 -13 L176 -31 Q121 -2 58 26 L68 42 Q100 28 137 10 L192 58 L57 58 Z" /><glyph glyph-name="" unicode="&#x4e14;" d="M8 1 L41 1 L41 194 L215 194 L215 1 L248 1 L248 -15 L8 -15 L8 1 ZM60 48 L60 1 L195 1 L195 48 L60 48 ZM60 112 L60 65 L195 65 L195 112 L60 112 ZM60 176 L60 129 L195 129 L195 176 L60 176 Z" /><glyph glyph-name="" unicode="&#x4e16;" d="M10 145 L42 145 L42 194 L62 194 L62 145 L108 145 L108 205 L127 205 L127 145 L191 145 L191 205 L210 205 L210 145 L245 145 L245 127 L210 127 L210 40 L108 40 L108 127 L62 127 L62 0 L239 0 L239 -18 L42 -18 L42 127 L10 127 L10 145 ZM127 127 L127 58 L191 58 L191 127 L127 127 Z" /><glyph glyph-name="" unicode="&#x4e1a;" d="M149 204 L169 204 L169 4 L248 4 L248 -13 L9 -13 L9 4 L87 4 L87 204 L107 204 L107 4 L149 4 L149 204 ZM37 156 Q58 106 75 57 L56 49 Q39 100 19 150 L37 156 ZM178 57 Q197 94 219 156 L238 148 Q211 78 195 49 L178 57 Z" /><glyph glyph-name="" unicode="&#x4e1c;" d="M12 176 L70 176 L86 209 L106 205 L93 176 L244 176 L244 158 L84 158 L54 93 L126 93 L126 146 L146 146 L146 93 L233 93 L233 75 L146 75 L146 5 Q147 -24 114 -25 Q95 -25 79 -25 Q79 -23 78 -18 Q76 -8 75 -3 Q88 -5 108 -5 Q127 -6 126 12 L126 75 L31 75 L31 93 L62 158 L12 158 L12 176 ZM67 61 L83 48 Q53 14 20 -17 Q18 -15 15 -12 Q9 -5 6 -4 Q39 27 67 61 ZM170 44 L184 58 Q220 27 250 0 L236 -14 Q208 12 170 44 Z" /><glyph glyph-name="" unicode="&#x4e1d;" d="M234 40 Q205 40 151 36 Q141 36 134 34 L125 55 Q138 61 149 73 Q164 90 178 108 Q154 106 142 106 Q139 106 134 105 Q128 105 125 104 L118 122 Q131 129 136 137 Q158 164 184 205 L203 196 Q173 155 148 123 Q153 123 166 123 Q183 124 192 124 Q196 129 204 139 Q214 152 218 158 L236 147 Q229 139 214 122 Q177 77 156 55 Q211 57 235 57 Q234 52 234 40 ZM112 39 Q89 39 45 36 Q34 36 29 34 L21 54 Q31 57 42 69 Q51 79 71 106 Q74 109 75 111 Q57 111 39 109 Q33 109 25 108 Q23 107 22 107 L15 126 Q25 131 32 140 Q54 166 76 206 L94 198 Q75 168 44 127 Q65 127 87 128 Q99 145 109 161 L127 152 Q103 116 52 54 Q90 56 113 56 Q112 49 112 39 ZM10 0 L246 0 L246 -16 L10 -16 L10 0 Z" /><glyph glyph-name="" unicode="&#x4e24;" d="M10 195 L246 195 L246 178 L172 178 Q172 162 172 145 L231 145 L231 5 Q233 -24 201 -24 Q180 -24 166 -24 Q166 -23 165 -20 Q164 -8 163 -5 Q167 -5 176 -5 Q188 -6 195 -6 Q214 -7 213 8 L213 128 L170 128 Q168 104 165 86 Q181 71 211 41 L198 26 Q176 52 160 68 Q151 38 123 8 Q117 14 108 21 Q152 58 153 128 L103 128 Q102 108 99 93 Q116 79 132 64 L122 49 Q117 53 108 62 Q99 71 94 75 Q86 44 58 15 Q54 20 44 28 Q84 64 85 128 L43 128 L43 -25 L25 -25 L25 145 L86 145 Q86 151 87 163 Q87 173 87 178 L10 178 L10 195 ZM104 178 Q104 163 104 145 L154 145 Q154 164 154 178 L104 178 Z" /><glyph glyph-name="" unicode="&#x4e25;" d="M51 83 Q53 13 21 -28 Q14 -20 6 -14 Q33 17 31 82 L31 110 L93 110 L93 177 L13 177 L13 195 L245 195 L245 177 L168 177 L168 110 L245 110 L245 93 L51 93 L51 83 ZM112 177 L112 110 L149 110 L149 177 L112 177 ZM182 131 Q200 151 214 170 L230 158 Q215 140 195 119 L182 131 ZM32 160 L47 170 Q65 148 76 132 L60 121 Q54 131 38 152 Q34 158 32 160 Z" /><glyph glyph-name="" unicode="&#x4e2a;" d="M147 204 Q144 199 141 196 Q179 134 249 105 Q248 105 236 84 Q166 120 129 178 Q87 120 20 80 Q16 88 10 96 Q8 99 7 100 Q80 137 122 207 L147 204 ZM117 120 L138 120 L138 -28 L117 -28 L117 120 Z" /><glyph glyph-name="" unicode="&#x4e2d;" d="M24 156 L118 156 L118 209 L138 209 L138 156 L232 156 L232 46 L213 46 L213 59 L138 59 L138 -30 L118 -30 L118 59 L43 59 L43 46 L24 46 L24 156 ZM213 138 L138 138 L138 77 L213 77 L213 138 ZM43 138 L43 77 L118 77 L118 138 L43 138 Z" /><glyph glyph-name="" unicode="&#x4e30;" d="M118 208 L138 208 L138 169 L239 169 L239 151 L138 151 L138 111 L223 111 L223 93 L138 93 L138 52 L246 52 L246 35 L138 35 L138 -29 L118 -29 L118 35 L10 35 L10 52 L118 52 L118 93 L33 93 L33 111 L118 111 L118 151 L17 151 L17 169 L118 169 L118 208 Z" /><glyph glyph-name="" unicode="&#x4e32;" d="M24 88 L118 88 L118 111 L35 111 L35 179 L118 179 L118 208 L137 208 L137 179 L220 179 L220 111 L137 111 L137 88 L231 88 L231 7 L212 7 L212 16 L137 16 L137 -28 L118 -28 L118 16 L43 16 L43 7 L24 7 L24 88 ZM43 71 L43 33 L118 33 L118 71 L43 71 ZM212 71 L137 71 L137 33 L212 33 L212 71 ZM201 162 L137 162 L137 128 L201 128 L201 162 ZM54 162 L54 128 L118 128 L118 162 L54 162 Z" /><glyph glyph-name="" unicode="&#x4e34;" d="M108 98 L237 98 L237 -27 L219 -27 L219 -10 L126 -10 L126 -27 L108 -27 L108 98 ZM63 207 L81 207 L81 -28 L63 -28 L63 207 ZM89 122 Q125 160 143 209 L161 203 Q155 188 147 173 L247 173 L247 156 L138 156 Q123 132 103 108 Q100 112 92 119 Q90 121 89 122 ZM20 183 L38 183 L38 -5 L20 -5 L20 183 ZM126 81 L126 5 L164 5 L164 81 L126 81 ZM219 81 L181 81 L181 5 L219 5 L219 81 ZM161 151 Q175 141 200 118 L186 103 Q167 124 148 139 L161 151 Z" /><glyph glyph-name="" unicode="&#x4e39;" d="M8 92 L50 92 Q50 101 50 111 L50 198 L208 198 L208 92 L248 92 L248 74 L208 74 L208 4 Q209 -25 178 -26 Q159 -26 142 -26 Q140 -14 138 -5 Q156 -6 173 -6 Q189 -7 188 8 L188 74 L69 74 Q67 11 32 -31 Q26 -25 14 -17 Q47 19 49 74 L8 74 L8 92 ZM71 180 L71 111 Q71 100 70 92 L188 92 L188 180 L71 180 ZM101 154 L116 166 Q137 144 156 123 L140 109 Q136 114 127 124 Q111 142 101 154 Z" /><glyph glyph-name="" unicode="&#x4e3a;" d="M113 210 L133 210 Q133 175 129 145 L232 145 Q232 118 230 56 Q229 35 229 26 Q228 -25 180 -22 Q159 -23 136 -23 Q135 -16 133 -4 Q132 -2 132 -1 Q133 -1 142 -1 Q167 -2 178 -2 Q209 -5 209 27 Q209 32 210 43 Q212 95 212 126 L127 126 Q110 20 27 -31 Q25 -29 20 -23 Q15 -17 13 -14 Q89 30 106 126 L18 126 L18 145 L109 145 Q113 175 113 210 ZM133 82 L146 94 Q175 67 188 52 L173 38 Q155 61 133 82 ZM36 191 L49 204 Q58 196 75 181 Q83 173 87 169 L72 155 Q50 179 36 191 Z" /><glyph glyph-name="" unicode="&#x4e3b;" d="M20 164 L236 164 L236 146 L138 146 L138 91 L227 91 L227 72 L138 72 L138 2 L246 2 L246 -14 L10 -14 L10 2 L118 2 L118 72 L29 72 L29 91 L118 91 L118 146 L20 146 L20 164 ZM111 202 L130 209 Q138 190 146 172 L126 165 Q123 174 111 202 Z" /><glyph glyph-name="" unicode="&#x4e3d;" d="M157 135 L157 -28 L139 -28 L139 153 L231 153 L231 6 Q232 -25 201 -25 Q189 -25 174 -25 Q174 -24 174 -23 Q173 -16 170 -6 Q174 -6 185 -7 Q193 -7 196 -7 Q214 -7 214 7 L214 135 L157 135 ZM42 -28 L25 -28 L25 153 L114 153 L114 3 Q115 -24 84 -25 Q72 -25 59 -25 Q59 -22 57 -16 Q56 -9 55 -6 Q59 -6 69 -7 Q78 -7 80 -7 Q98 -8 96 5 L96 135 L42 135 L42 -28 ZM10 195 L246 195 L246 178 L10 178 L10 195 ZM167 102 L182 108 Q195 79 204 53 L188 46 Q179 74 167 102 ZM49 100 L64 106 Q76 80 87 50 L71 44 Q69 50 65 61 Q55 87 49 100 Z" /><glyph glyph-name="" unicode="&#x4e45;" d="M85 207 L105 201 Q99 185 93 173 L178 173 L178 154 Q169 118 152 87 Q184 17 249 -7 Q238 -19 231 -27 Q172 5 141 69 Q103 12 22 -28 Q20 -25 12 -16 Q14 -18 8 -11 Q129 45 157 154 L84 154 Q67 123 38 90 Q36 92 31 97 Q25 102 23 104 Q65 147 85 207 Z" /><glyph glyph-name="" unicode="&#x4e48;" d="M179 80 Q215 34 247 -9 L229 -23 Q226 -19 221 -11 Q217 -6 216 -4 Q166 -6 70 -13 Q51 -15 40 -18 L30 2 Q45 8 58 21 Q125 90 169 163 L189 152 Q133 67 68 5 Q77 5 95 6 Q162 8 204 12 Q185 39 163 68 L179 80 ZM7 80 Q73 130 119 208 L138 199 Q86 114 21 65 Q15 72 7 80 Z" /><glyph glyph-name="" unicode="&#x4e49;" d="M8 -9 Q79 10 114 38 Q64 90 41 184 L60 191 Q79 99 128 52 Q184 107 193 191 L214 187 Q197 93 143 39 Q181 10 248 -4 Q239 -17 232 -25 Q160 -1 128 25 Q93 -3 21 -28 Q16 -20 8 -9 ZM102 202 L120 209 Q139 171 148 150 L129 141 Q118 170 102 202 Z" /><glyph glyph-name="" unicode="&#x4e4b;" d="M25 162 L223 162 L223 144 Q159 77 70 22 Q91 0 137 -1 Q181 -4 249 -1 Q249 -2 248 -5 Q244 -16 243 -21 Q165 -21 136 -20 Q84 -18 52 13 Q50 16 47 13 Q45 11 42 8 Q26 -6 17 -18 L5 0 Q11 4 21 14 Q33 25 37 29 Q45 35 53 33 Q143 88 196 144 L25 144 L25 162 ZM107 200 L125 209 Q127 206 131 200 Q136 192 147 174 L128 164 Q118 182 107 200 Z" /><glyph glyph-name="" unicode="&#x4e4c;" d="M207 182 Q206 173 205 158 Q204 147 204 140 Q203 103 164 106 Q153 105 134 105 Q132 114 129 125 Q134 125 146 125 Q159 124 163 124 Q184 123 185 141 Q186 152 186 165 L66 165 L66 89 L232 89 Q232 72 230 44 Q229 28 229 19 Q229 -26 180 -24 Q163 -25 136 -25 Q134 -14 131 -3 Q136 -3 148 -3 Q167 -4 178 -4 Q208 -6 209 20 Q211 54 211 72 L46 72 L46 182 L98 182 Q101 188 105 200 Q107 206 108 209 L128 204 Q127 201 124 195 Q120 186 118 182 L207 182 ZM9 42 L187 42 L187 25 L9 25 L9 42 Z" /><glyph glyph-name="" unicode="&#x4e4e;" d="M22 169 Q20 177 18 188 Q104 190 227 198 L231 179 Q209 178 158 175 Q145 174 139 174 L139 90 L248 90 L248 71 L139 71 L139 10 Q140 -25 102 -25 Q85 -25 67 -25 Q65 -9 64 -4 Q82 -5 99 -5 Q120 -6 119 12 L119 71 L8 71 L8 90 L119 90 L119 173 Q103 173 72 171 Q39 170 22 169 ZM167 113 Q188 136 203 161 L220 150 Q209 133 183 101 L167 113 ZM36 148 L51 158 Q65 142 84 116 Q86 113 87 112 L70 100 Q68 103 64 109 Q48 133 36 148 Z" /><glyph glyph-name="" unicode="&#x4e50;" d="M41 188 Q108 189 215 199 L222 180 Q131 173 59 171 L50 101 L121 101 L121 156 L141 156 L141 101 L236 101 L236 83 L141 83 L141 7 Q143 -27 110 -25 Q87 -25 78 -25 Q76 -15 73 -4 Q98 -6 105 -6 Q122 -7 121 10 L121 83 L27 83 L41 188 ZM184 68 Q218 35 248 -2 L233 -16 Q208 15 170 57 L184 68 ZM70 68 L86 57 Q54 12 23 -15 Q16 -9 9 -3 Q41 27 70 68 Z" /><glyph glyph-name="" unicode="&#x4e54;" d="M30 173 Q29 176 28 181 Q28 184 25 191 Q144 193 226 198 L229 180 Q184 177 139 176 Q136 152 128 134 L243 134 L243 117 L163 117 Q189 80 249 68 Q245 60 239 50 Q170 69 142 117 L119 117 Q99 80 17 47 Q15 51 11 58 Q8 62 7 65 Q74 88 97 117 L13 117 L13 134 L108 134 Q117 152 120 175 Q105 175 75 174 Q45 174 30 173 ZM78 72 L97 72 Q97 27 83 7 Q70 -14 31 -31 Q25 -22 19 -15 Q57 0 67 16 Q79 32 78 72 ZM162 72 L180 72 L180 -28 L162 -28 L162 72 Z" /><glyph glyph-name="" unicode="&#x4e58;" d="M8 -2 Q92 27 119 87 L119 142 L12 142 L12 157 L119 157 L119 180 Q98 179 59 178 Q37 177 28 177 Q28 185 25 194 Q158 196 224 201 L229 185 Q216 184 176 182 Q150 181 137 180 L137 157 L247 157 L247 142 L137 142 L137 87 Q165 26 248 0 Q241 -10 235 -18 Q162 12 137 59 L137 -29 L119 -29 L119 59 Q94 13 21 -20 Q15 -12 8 -2 ZM171 132 L188 132 L188 108 Q211 115 233 124 L241 110 Q218 99 188 93 L188 76 Q187 62 200 63 L211 63 Q224 63 227 73 Q228 76 229 83 Q231 90 231 93 Q236 90 243 87 Q246 87 247 86 Q245 76 243 66 Q238 46 215 47 L197 47 Q170 46 171 75 L171 132 ZM16 114 L68 114 L68 132 L85 132 L85 46 L68 46 L68 60 Q61 59 49 56 Q28 51 15 48 L10 65 Q46 71 68 76 L68 98 L16 98 L16 114 Z" /><glyph glyph-name="" unicode="&#x4e5d;" d="M15 158 L84 158 Q85 187 85 208 L105 208 Q105 205 105 194 Q104 173 104 158 L183 158 L183 13 Q182 -4 197 -2 L208 -2 Q223 -3 225 10 Q225 12 226 17 Q227 23 229 50 Q231 49 234 48 Q244 45 248 44 Q247 20 244 4 Q240 -22 211 -21 L194 -21 Q161 -23 163 12 L163 140 L103 140 Q102 128 102 118 Q101 22 24 -27 Q16 -19 8 -10 Q84 32 82 122 Q83 126 83 140 L15 140 L15 158 Z" /><glyph glyph-name="" unicode="&#x4e5f;" d="M8 113 L43 122 L43 180 L62 180 L62 127 L119 141 L119 207 L138 207 L138 146 L223 167 Q223 161 223 150 Q222 111 219 88 Q217 47 179 47 Q166 47 155 47 Q154 57 151 67 Q154 67 163 67 Q173 66 178 66 Q199 65 201 89 Q203 123 203 144 L138 127 L138 23 L119 23 L119 122 L62 108 L62 19 Q61 -1 84 0 L193 0 Q222 -2 223 15 Q226 33 228 52 Q229 52 232 51 Q242 47 249 46 Q246 27 242 8 Q238 -20 198 -19 L80 -19 Q41 -20 43 15 L43 103 L10 95 L8 113 Z" /><glyph glyph-name="" unicode="&#x4e61;" d="M207 119 L226 113 Q195 -5 24 -30 Q23 -26 19 -17 Q20 -20 17 -11 Q138 8 176 60 Q158 59 127 56 Q89 54 67 52 Q65 52 61 51 Q48 50 43 48 L36 69 Q49 72 58 78 Q104 109 126 126 Q90 124 62 122 Q47 122 38 119 L32 138 Q46 142 52 147 Q83 169 127 211 L146 202 Q115 173 71 139 Q118 141 147 142 Q170 161 192 182 L211 173 Q147 114 77 70 Q147 74 189 77 Q200 95 207 119 Z" /><glyph glyph-name="" unicode="&#x4e66;" d="M102 207 L122 207 L122 165 L206 165 L201 95 L236 95 Q234 70 232 42 Q230 0 190 1 Q171 1 154 1 Q154 6 150 21 Q169 19 187 19 Q212 16 214 44 Q215 63 216 78 L122 78 L122 -28 L102 -28 L102 78 L11 78 L11 95 L102 95 L102 147 L27 147 L27 165 L102 165 L102 207 ZM185 147 L122 147 L122 95 L182 95 L185 147 ZM177 193 L190 206 Q221 186 243 170 L230 154 Q214 168 177 193 Z" /><glyph glyph-name="" unicode="&#x4e70;" d="M16 -12 Q119 13 130 49 L11 49 L11 66 L135 66 Q142 96 142 166 L162 166 Q161 91 155 66 L246 66 L246 49 L151 49 Q150 46 148 42 Q195 18 243 -8 L230 -25 Q202 -7 138 26 Q115 -5 29 -30 Q20 -18 16 -12 ZM21 176 L21 193 L237 193 L237 178 Q221 142 210 124 Q196 131 192 132 Q202 149 215 176 L21 176 ZM31 114 L41 127 Q80 104 99 90 L87 75 Q63 92 31 114 ZM58 151 L69 164 Q98 148 124 129 L112 114 Q88 132 58 151 Z" /><glyph glyph-name="" unicode="&#x4e73;" d="M9 47 Q19 48 44 52 Q61 54 70 55 L70 74 L112 103 L18 103 L18 120 L97 120 Q113 152 123 177 L139 170 Q137 166 132 157 Q120 131 114 120 L137 120 L137 101 L89 67 L89 58 Q118 61 141 66 Q140 55 139 48 Q110 43 89 40 L89 7 Q91 -24 54 -24 Q40 -24 31 -24 Q31 -19 29 -8 Q28 -6 28 -5 Q30 -5 37 -5 Q48 -6 53 -6 Q71 -7 70 10 L70 37 Q55 35 29 31 Q17 29 13 28 L9 47 ZM157 205 L176 205 L176 14 Q174 -5 196 -3 L204 -3 Q226 -4 226 12 Q228 28 230 54 Q241 49 249 47 Q248 41 247 31 Q247 20 244 4 Q240 -23 206 -22 L191 -22 Q155 -24 157 12 L157 205 ZM17 177 Q15 184 13 194 Q62 195 138 201 L142 184 Q94 181 17 177 ZM62 170 L78 175 Q88 151 92 134 L77 129 Q76 132 73 140 Q66 159 62 170 ZM19 162 L33 168 Q46 145 51 131 L36 124 Q31 136 23 154 Q20 159 19 162 Z" /><glyph glyph-name="" unicode="&#x4e86;" d="M122 118 L202 170 L17 170 L17 190 L232 190 L232 166 L143 108 L143 19 Q146 -24 101 -23 Q77 -23 62 -23 Q62 -20 60 -12 Q59 -4 58 0 Q75 -1 99 -1 Q123 -3 122 20 L122 118 Z" /><glyph glyph-name="" unicode="&#x4e88;" d="M65 154 L77 167 Q88 160 112 143 Q120 138 124 135 L181 173 L36 173 L36 192 L216 192 L216 173 L141 123 Q142 123 145 121 Q147 120 148 119 L140 109 L234 109 L234 90 L218 43 Q213 44 206 46 Q201 47 198 48 L213 90 L140 90 L140 16 Q142 -25 101 -25 Q92 -26 70 -25 Q63 -25 61 -25 Q59 -15 56 -4 Q58 -4 64 -4 Q84 -5 99 -5 Q121 -6 120 17 L120 90 L14 90 L14 109 L127 109 Q88 138 65 154 Z" /><glyph glyph-name="" unicode="&#x4e89;" d="M8 132 Q56 166 82 212 L102 207 Q96 196 88 187 L186 187 L186 170 L161 142 L213 142 L213 98 L248 98 L248 81 L213 81 L213 22 L195 22 L195 36 L132 36 L132 6 Q133 -26 96 -25 Q81 -26 62 -26 Q62 -15 59 -5 Q60 -5 61 -5 Q80 -7 94 -7 Q114 -8 113 10 L113 36 L35 36 L35 52 L113 52 L113 81 L10 81 L10 98 L113 98 L113 126 L42 126 L42 135 Q33 126 22 118 Q10 130 8 132 ZM162 171 L76 171 Q64 156 49 142 L138 142 L162 171 ZM132 81 L132 52 L195 52 L195 81 L132 81 ZM195 126 L132 126 L132 98 L195 98 L195 126 Z" /><glyph glyph-name="" unicode="&#x4e8b;" d="M25 30 L120 30 L120 49 L9 49 L9 64 L120 64 L120 82 L25 82 L25 96 L120 96 L120 113 L41 113 L41 158 L120 158 L120 174 L10 174 L10 189 L120 189 L120 208 L137 208 L137 189 L246 189 L246 174 L137 174 L137 158 L215 158 L215 113 L137 113 L137 96 L220 96 L220 64 L248 64 L248 49 L220 49 L220 3 L204 3 L204 16 L137 16 L137 5 Q139 -26 104 -26 Q86 -26 74 -26 Q73 -19 71 -7 Q87 -9 102 -9 Q120 -9 120 5 L120 16 L25 16 L25 30 ZM204 82 L137 82 L137 64 L204 64 L204 82 ZM137 49 L137 30 L204 30 L204 49 L137 49 ZM57 145 L57 126 L120 126 L120 145 L57 145 ZM199 145 L137 145 L137 126 L199 126 L199 145 Z" /><glyph glyph-name="" unicode="&#x4e8c;" d="M11 18 L244 18 L244 0 L11 0 L11 18 ZM29 177 L227 177 L227 156 L29 156 L29 177 Z" /><glyph glyph-name="" unicode="&#x4e8e;" d="M28 190 L229 190 L229 171 L142 171 L142 109 L247 109 L247 90 L142 90 L142 10 Q143 -24 106 -24 Q103 -24 90 -24 Q75 -25 70 -25 Q69 -18 66 -3 Q69 -3 80 -3 Q95 -4 101 -4 Q123 -5 122 15 L122 90 L9 90 L9 109 L122 109 L122 171 L28 171 L28 190 Z" /><glyph glyph-name="" unicode="&#x4e8f;" d="M50 59 L50 77 L66 116 L9 116 L9 134 L247 134 L247 116 L87 116 L71 77 L218 77 Q217 68 218 71 Q214 29 212 17 Q210 -25 159 -24 Q130 -24 111 -24 Q109 -15 106 -4 Q121 -5 158 -5 Q192 -8 193 19 Q195 42 196 59 L50 59 ZM32 190 L225 190 L225 172 L32 172 L32 190 Z" /><glyph glyph-name="" unicode="&#x4e91;" d="M166 75 Q217 14 235 -8 L217 -22 Q215 -20 212 -16 Q204 -4 199 0 Q138 0 55 -5 Q53 -5 49 -6 Q38 -7 35 -8 L26 12 Q39 17 50 30 Q73 57 98 98 L10 98 L10 116 L247 116 L247 98 L124 98 Q86 43 61 13 Q71 13 100 14 Q160 16 187 17 Q184 21 179 28 Q158 54 150 64 L166 75 ZM33 191 L225 191 L225 172 L33 172 L33 191 Z" /><glyph glyph-name="" unicode="&#x4e92;" d="M41 47 L59 170 L22 170 L22 187 L234 187 L234 170 L79 170 L74 135 L207 135 L197 5 L244 5 L244 -11 L13 -11 L13 5 L177 5 L180 47 L41 47 ZM185 118 L72 118 L64 64 L182 64 L185 118 Z" /><glyph glyph-name="" unicode="&#x4e94;" d="M18 192 L237 192 L237 174 L112 174 L103 115 L208 115 L208 2 L248 2 L248 -15 L9 -15 L9 2 L66 2 L80 97 L24 97 L24 115 L83 115 L91 174 L18 174 L18 192 ZM188 97 L100 97 L86 2 L188 2 L188 97 Z" /><glyph glyph-name="" unicode="&#x4e95;" d="M168 208 L188 208 L188 155 L239 155 L239 136 L188 136 L188 78 L247 78 L247 59 L188 59 L188 -27 L168 -27 L168 59 L92 59 Q93 3 28 -29 Q26 -25 20 -18 Q16 -15 15 -13 Q74 13 72 59 L9 59 L9 78 L72 78 L72 136 L16 136 L16 155 L72 155 L72 208 L92 208 L92 155 L168 155 L168 208 ZM92 136 L92 78 L168 78 L168 136 L92 136 Z" /><glyph glyph-name="" unicode="&#x4e9a;" d="M18 192 L239 192 L239 174 L168 174 L168 4 L248 4 L248 -13 L8 -13 L8 4 L87 4 L87 174 L18 174 L18 192 ZM107 174 L107 4 L149 4 L149 174 L107 174 ZM39 145 Q56 103 77 50 L57 42 Q38 98 22 138 L39 145 ZM177 49 Q198 90 217 145 L236 137 Q214 82 195 41 L177 49 Z" /><glyph glyph-name="" unicode="&#x4e9b;" d="M32 182 L50 182 L50 89 Q55 90 65 92 Q74 93 79 94 L79 206 L97 206 L97 160 L138 160 L138 144 L97 144 L97 97 Q117 99 140 104 Q140 96 140 86 Q113 82 27 67 Q18 65 13 64 L9 83 Q11 83 14 84 Q18 84 32 87 L32 182 ZM150 207 L167 207 L167 146 Q203 166 226 185 L238 171 Q204 146 167 128 L167 103 Q166 86 185 87 L206 87 Q224 86 225 100 Q228 112 229 131 Q231 130 235 129 Q244 126 247 125 Q245 108 242 94 Q239 70 211 71 L181 71 Q148 69 150 101 L150 207 ZM15 0 L241 0 L241 -16 L15 -16 L15 0 ZM40 47 L213 47 L213 31 L40 31 L40 47 Z" /><glyph glyph-name="" unicode="&#x4ea4;" d="M245 -8 Q244 -10 241 -15 Q237 -23 235 -27 Q159 -6 128 17 Q98 -6 20 -29 Q19 -26 15 -20 Q12 -14 10 -11 Q84 7 113 30 Q94 50 71 93 L88 103 Q106 63 128 43 Q148 63 167 104 L185 97 Q166 54 143 30 Q177 5 245 -8 ZM13 172 L125 172 Q123 176 117 187 Q111 196 109 201 L126 209 Q139 192 145 179 L131 172 L244 172 L244 154 L13 154 L13 172 ZM90 146 L104 131 Q64 97 26 73 Q25 74 23 78 Q17 86 14 89 Q56 115 90 146 ZM164 145 Q205 119 242 93 L229 76 Q194 103 152 131 L164 145 Z" /><glyph glyph-name="" unicode="&#x4ea7;" d="M33 111 L147 111 Q162 130 177 159 L195 147 Q179 125 168 111 L240 111 L240 94 L52 94 L52 77 Q54 8 20 -29 Q14 -22 7 -13 Q35 12 33 77 L33 111 ZM114 203 L133 209 Q134 207 136 201 Q141 187 143 180 L247 180 L247 163 L13 163 L13 180 L123 180 Q119 191 114 203 ZM63 149 L80 160 Q82 157 86 151 Q102 131 106 124 L89 112 Q75 135 63 149 Z" /><glyph glyph-name="" unicode="&#x4ea8;" d="M45 145 L211 145 L211 90 L45 90 L45 145 ZM123 38 L197 56 L22 56 L22 72 L226 72 L226 48 L142 26 L142 1 Q143 -26 112 -27 Q96 -27 74 -27 Q74 -24 73 -17 Q72 -11 71 -7 Q88 -8 108 -8 Q124 -9 123 4 L123 38 ZM11 179 L124 179 Q122 184 117 193 Q114 200 112 204 L130 211 Q135 202 144 184 L133 179 L245 179 L245 163 L11 163 L11 179 ZM63 130 L63 106 L193 106 L193 130 L63 130 Z" /><glyph glyph-name="" unicode="&#x4eab;" d="M121 49 L180 65 L30 65 L30 81 L213 81 L213 60 L140 39 L140 36 L247 36 L247 20 L140 20 L140 1 Q141 -27 109 -27 Q92 -27 75 -27 Q75 -24 73 -17 Q72 -11 71 -7 Q87 -8 105 -8 Q123 -9 121 4 L121 20 L8 20 L8 36 L121 36 L121 49 ZM44 147 L210 147 L210 98 L44 98 L44 147 ZM11 179 L122 179 Q121 181 119 185 Q116 192 109 204 L128 211 Q137 193 142 184 L131 179 L245 179 L245 163 L11 163 L11 179 ZM62 132 L62 113 L192 113 L192 132 L62 132 Z" /><glyph glyph-name="" unicode="&#x4eac;" d="M41 134 L214 134 L214 62 L140 62 L140 2 Q141 -25 113 -25 Q98 -25 81 -25 Q81 -24 81 -23 Q80 -16 77 -6 Q81 -6 91 -6 Q101 -7 106 -7 Q122 -7 121 5 L121 62 L41 62 L41 134 ZM60 117 L60 79 L196 79 L196 117 L60 117 ZM109 204 L127 210 Q136 193 142 178 L128 173 L247 173 L247 156 L10 156 L10 173 L122 173 Q117 187 109 204 ZM73 44 L86 29 Q57 7 20 -14 Q20 -14 19 -13 Q13 -2 9 0 Q46 21 73 44 ZM166 27 L177 42 Q204 27 241 2 L228 -13 Q199 7 166 27 Z" /><glyph glyph-name="" unicode="&#x4ead;" d="M49 153 L207 153 L207 104 L49 104 L49 153 ZM15 87 L241 87 L241 42 L223 42 L223 70 L33 70 L33 42 L15 42 L15 87 ZM44 49 L211 49 L211 33 L143 33 L143 3 Q144 -26 114 -25 Q99 -25 81 -25 Q81 -23 80 -20 Q78 -10 77 -5 Q92 -7 109 -7 Q126 -8 125 5 L125 33 L44 33 L44 49 ZM112 206 L131 210 Q133 206 135 198 Q138 190 139 186 L242 186 L242 170 L14 170 L14 186 L119 186 Q118 190 116 196 Q113 203 112 206 ZM66 138 L66 119 L190 119 L190 138 L66 138 Z" /><glyph glyph-name="" unicode="&#x4eb2;" d="M121 101 L9 101 L9 118 L84 118 Q81 123 73 135 Q65 146 61 151 L77 160 Q79 157 84 151 Q98 133 103 125 L90 118 L147 118 Q165 141 177 162 L195 152 Q184 137 169 118 L247 118 L247 101 L140 101 L140 69 L233 69 L233 52 L140 52 L140 7 Q142 -26 105 -26 Q86 -26 74 -26 Q74 -24 73 -20 Q71 -10 70 -6 Q75 -6 86 -6 Q97 -7 103 -7 Q122 -8 121 9 L121 52 L22 52 L22 69 L121 69 L121 101 ZM113 205 L132 211 Q138 199 143 186 L130 180 L234 180 L234 163 L22 163 L22 180 L124 180 Q119 193 113 205 ZM167 27 L179 41 Q205 23 239 0 L226 -16 Q210 -3 177 20 Q170 25 167 27 ZM67 42 L82 29 Q54 4 26 -16 Q20 -7 12 0 Q40 16 67 42 Z" /><glyph glyph-name="" unicode="&#x4eba;" d="M8 -8 Q114 51 120 204 L141 204 Q139 181 136 160 Q165 35 247 -3 Q245 -7 240 -13 Q235 -20 233 -24 Q155 23 128 122 Q105 23 23 -27 Q21 -24 16 -18 Q11 -11 8 -8 Z" /><glyph glyph-name="" unicode="&#x4ebf;" d="M228 66 Q231 65 238 63 Q246 61 248 60 Q246 29 243 14 Q240 -18 198 -17 Q160 -19 127 -17 Q95 -15 88 2 Q82 21 103 51 Q123 77 201 170 L99 170 L99 189 L227 189 L227 166 Q163 96 125 48 Q104 21 107 11 Q108 1 134 0 Q163 -1 194 0 Q224 0 225 22 Q228 55 228 66 ZM4 83 Q42 134 63 207 L83 202 Q77 183 63 149 Q62 147 62 146 L62 -27 L43 -27 L43 108 Q34 91 16 66 Q15 67 12 72 Q6 81 4 83 Z" /><glyph glyph-name="" unicode="&#x4ec0;" d="M82 119 L155 119 L155 206 L176 206 L176 119 L248 119 L248 100 L176 100 L176 -27 L155 -27 L155 100 L82 100 L82 119 ZM5 85 Q45 139 64 206 L85 200 Q76 173 64 147 L64 -28 L44 -28 L44 108 Q31 84 16 66 Q12 76 5 85 Z" /><glyph glyph-name="" unicode="&#x4ec5;" d="M87 173 L87 190 L233 190 L233 174 Q221 92 176 39 Q206 9 249 -7 Q240 -19 234 -27 Q188 -3 162 24 Q130 -6 85 -28 Q80 -21 70 -11 Q118 10 148 40 Q108 90 99 173 L87 173 ZM211 173 L118 173 Q125 102 162 55 Q204 106 211 173 ZM6 94 Q44 147 63 208 L83 202 Q73 174 58 142 L58 -28 L39 -28 L39 108 Q27 88 14 73 Q10 83 6 94 Z" /><glyph glyph-name="" unicode="&#x4eca;" d="M147 207 Q144 204 141 199 Q181 142 250 114 Q248 111 239 96 Q238 94 237 93 Q169 128 130 184 Q88 130 17 90 Q12 98 5 108 Q83 149 123 210 L147 207 ZM35 56 L35 75 L211 75 L211 56 Q202 44 185 22 Q158 -11 143 -31 L126 -17 Q164 28 185 56 L35 56 ZM104 128 L120 138 Q136 117 149 98 L131 88 Q119 107 104 128 Z" /><glyph glyph-name="" unicode="&#x4ecb;" d="M146 204 Q145 203 144 202 Q143 200 141 196 Q181 137 250 107 Q248 105 244 98 Q238 90 236 88 Q167 124 129 180 Q91 130 19 84 Q17 87 9 98 Q7 102 6 103 Q86 148 122 207 L146 204 ZM72 111 L92 111 Q92 104 91 91 Q91 79 91 73 Q94 1 38 -32 Q33 -24 24 -16 Q53 2 61 19 Q71 37 71 74 Q72 90 72 111 ZM161 112 L181 112 L181 -28 L161 -28 L161 112 Z" /><glyph glyph-name="" unicode="&#x4ecd;" d="M170 115 L196 171 L136 171 Q136 78 125 42 Q116 4 82 -28 Q76 -21 68 -13 Q99 17 107 51 Q117 85 117 171 L89 171 L89 189 L217 189 L217 171 L191 115 L238 115 Q238 112 238 105 Q236 54 234 26 Q235 -24 194 -22 Q172 -22 157 -22 Q157 -15 154 -1 Q174 -3 192 -3 Q215 -5 216 28 Q218 74 218 97 L170 97 L170 115 ZM5 84 Q41 136 60 206 L79 200 Q71 173 60 148 L60 -27 L41 -27 L41 109 Q29 85 16 67 Q16 68 15 69 Q9 80 5 84 Z" /><glyph glyph-name="" unicode="&#x4ece;" d="M153 206 L172 206 Q172 197 172 179 Q171 157 171 143 Q186 34 249 -7 Q248 -8 247 -10 Q243 -15 236 -24 Q179 18 164 96 Q151 21 89 -28 Q86 -25 81 -20 Q77 -15 75 -13 Q151 42 152 143 Q152 154 153 175 Q153 196 153 206 ZM57 206 L76 206 Q76 156 75 135 Q75 131 74 125 Q74 118 73 114 L82 122 Q91 112 107 93 Q124 73 132 63 L116 49 Q96 77 72 105 Q67 31 21 -26 Q18 -23 13 -18 Q8 -14 6 -12 Q57 45 56 142 Q57 165 57 206 Z" /><glyph glyph-name="" unicode="&#x4ed1;" d="M56 114 L75 114 L75 63 Q145 84 190 113 L204 97 Q145 65 75 43 L75 17 Q75 -1 99 -1 L174 -1 Q196 -2 198 17 Q201 33 201 49 Q211 47 221 44 Q220 39 219 29 Q217 16 216 11 Q211 -22 176 -20 L95 -20 Q56 -20 56 15 L56 114 ZM146 206 Q143 202 139 196 Q180 146 248 120 Q246 117 242 111 Q238 104 236 101 Q165 135 128 182 Q89 134 19 98 Q11 112 8 116 Q87 153 125 210 L146 206 Z" /><glyph glyph-name="" unicode="&#x4ed3;" d="M146 206 Q143 202 139 197 Q180 147 248 120 Q242 111 236 101 Q164 136 128 183 Q103 151 58 121 L195 121 Q195 105 193 72 Q192 67 192 65 Q192 29 153 32 Q140 31 123 31 Q122 41 119 51 Q123 51 133 51 Q145 50 151 50 Q173 49 173 67 Q175 89 175 103 L74 103 L74 18 Q73 -3 98 -2 L179 -2 Q208 -3 209 15 Q212 28 215 49 Q218 48 225 47 Q231 45 234 44 Q233 37 230 24 Q228 12 227 7 Q220 -21 183 -20 L93 -20 Q54 -21 55 14 L55 119 Q39 109 19 98 Q13 109 8 116 Q89 155 125 210 L146 206 Z" /><glyph glyph-name="" unicode="&#x4ed4;" d="M81 99 L164 99 L164 121 L209 172 L103 172 L103 191 L234 191 L234 172 L183 115 L183 99 L248 99 L248 80 L183 80 L183 14 Q186 -26 146 -24 Q128 -24 111 -24 Q110 -14 107 -4 Q120 -5 144 -5 Q165 -6 164 12 L164 80 L81 80 L81 99 ZM7 93 Q44 139 66 207 L85 201 Q74 172 62 145 L62 -27 L42 -27 L42 109 Q30 89 18 74 Q13 84 7 93 Z" /><glyph glyph-name="" unicode="&#x4ed5;" d="M82 129 L155 129 L155 204 L175 204 L175 129 L248 129 L248 111 L175 111 L175 0 L242 0 L242 -16 L89 -16 L89 0 L155 0 L155 111 L82 111 L82 129 ZM6 85 Q45 136 69 207 L89 202 Q77 172 62 140 L62 -28 L43 -28 L43 106 Q30 82 16 66 Q12 75 6 85 Z" /><glyph glyph-name="" unicode="&#x4ed6;" d="M69 111 L93 118 L93 177 L112 177 L112 124 L153 136 L153 206 L172 206 L172 142 L235 161 Q235 143 233 111 Q232 94 232 86 Q233 48 202 49 Q191 49 183 49 Q183 53 180 66 Q179 68 179 69 Q190 68 200 68 Q213 67 214 87 Q216 121 216 137 L172 124 L172 20 L153 20 L153 118 L112 105 L112 17 Q112 -5 135 -3 L197 -3 Q224 -4 225 13 Q228 32 230 49 Q234 48 244 45 Q249 44 251 43 Q249 31 245 12 Q244 7 244 5 Q239 -22 202 -21 L131 -21 Q92 -22 93 13 L93 99 L72 92 L69 111 ZM6 94 Q44 145 63 208 L82 202 Q71 170 57 141 L57 -28 L39 -28 L39 108 Q26 87 14 72 Q7 91 6 94 Z" /><glyph glyph-name="" unicode="&#x4ed8;" d="M78 149 L189 149 L189 206 L209 206 L209 149 L244 149 L244 131 L209 131 L209 13 Q210 -23 170 -25 Q151 -25 138 -25 Q138 -19 135 -6 Q138 -15 134 -3 Q150 -5 168 -5 Q190 -7 189 17 L189 131 L78 131 L78 149 ZM8 93 Q46 144 66 208 L86 202 Q76 174 62 145 L62 -28 L43 -28 L43 109 Q29 87 15 70 Q13 78 8 93 ZM94 96 L110 106 Q126 85 145 51 L127 40 Q111 72 94 96 Z" /><glyph glyph-name="" unicode="&#x4ed9;" d="M93 -9 L93 156 L112 156 L112 7 L155 7 L155 206 L174 206 L174 7 L216 7 L216 156 L235 156 L235 -25 L216 -25 L216 -9 L93 -9 ZM6 89 Q41 138 62 206 L82 199 Q71 171 59 142 L59 -28 L40 -28 L40 105 Q28 84 15 68 Q14 70 12 75 Q8 85 6 89 Z" /><glyph glyph-name="" unicode="&#x4ee3;" d="M76 124 L133 130 Q130 165 130 207 L150 207 Q150 166 153 132 L242 142 L244 124 L155 114 Q163 60 179 25 Q194 -4 213 -6 Q220 -7 223 4 Q225 11 228 32 Q229 37 229 40 Q239 36 248 33 Q246 15 240 -5 Q235 -28 214 -28 Q185 -27 162 12 Q142 55 135 112 L79 106 L76 124 ZM6 92 Q44 145 65 208 L85 201 Q74 175 62 149 L62 -29 L42 -29 L42 111 Q28 88 14 70 Q7 89 6 92 ZM172 187 L185 200 Q210 182 228 164 L214 149 Q190 173 172 187 Z" /><glyph glyph-name="" unicode="&#x4ee4;" d="M75 47 Q81 43 93 35 Q101 30 129 12 Q156 37 185 68 L35 68 L35 86 L211 86 L211 68 Q191 45 145 0 Q157 -6 169 -15 L154 -31 Q114 1 62 33 L75 47 ZM146 207 Q145 206 143 202 Q142 200 141 199 Q181 143 250 117 Q249 115 244 107 Q239 99 237 96 Q169 131 129 185 Q90 135 17 92 Q12 100 5 111 Q83 150 123 210 L146 207 ZM101 132 L116 143 Q141 118 150 107 L134 93 Q119 114 101 132 Z" /><glyph glyph-name="" unicode="&#x4ee5;" d="M191 202 L210 202 Q210 169 209 138 Q206 81 193 52 Q206 39 231 12 Q244 0 250 -7 L233 -22 Q223 -10 205 11 Q190 27 184 35 Q162 0 100 -30 Q94 -23 87 -13 Q193 28 189 138 Q191 176 191 202 ZM116 68 Q116 53 118 45 Q111 41 90 28 Q51 3 45 0 Q38 -5 30 -11 L16 6 Q27 17 27 31 L27 199 L47 199 L47 26 Q96 56 116 68 ZM105 208 Q125 175 141 146 L123 136 Q99 182 89 199 L105 208 Z" /><glyph glyph-name="" unicode="&#x4eec;" d="M236 8 Q238 -26 201 -26 Q179 -26 164 -26 Q164 -25 164 -23 Q163 -17 160 -6 Q169 -7 197 -7 Q218 -8 217 10 L217 167 L153 167 L153 186 L236 186 L236 8 ZM7 90 Q44 145 61 206 L80 198 Q70 170 59 145 L59 -28 L40 -28 L40 107 Q29 88 15 68 Q12 77 7 90 ZM94 -25 L94 151 L113 151 L113 -25 L94 -25 ZM97 195 L111 206 Q115 201 122 192 Q134 177 140 169 L124 158 Q122 161 117 168 Q105 185 97 195 Z" /><glyph glyph-name="" unicode="&#x4ef6;" d="M164 207 L183 207 L183 151 L241 151 L241 134 L183 134 L183 72 L249 72 L249 55 L183 55 L183 -28 L164 -28 L164 55 L76 55 L76 72 L164 72 L164 134 L118 134 Q107 105 96 87 Q86 93 79 97 Q103 140 114 190 L134 185 Q132 178 128 165 Q125 156 124 151 L164 151 L164 207 ZM7 87 Q41 136 61 207 L80 201 Q73 177 61 147 L61 -28 L42 -28 L42 108 Q26 80 16 66 Q12 76 7 87 Z" /><glyph glyph-name="" unicode="&#x4ef7;" d="M7 87 Q40 138 58 207 L77 201 Q68 174 58 149 L58 -28 L40 -28 L40 108 Q28 84 15 66 Q9 82 7 87 ZM174 207 Q171 202 169 199 Q198 151 250 123 Q244 115 238 106 Q184 141 159 183 Q129 136 81 103 Q80 105 73 113 Q70 117 68 119 Q124 154 152 210 L174 207 ZM132 113 L132 81 Q136 2 92 -30 Q86 -24 76 -17 Q99 1 106 20 Q113 38 113 80 L113 113 L132 113 ZM184 113 L202 113 L202 -28 L184 -28 L184 113 Z" /><glyph glyph-name="" unicode="&#x4efb;" d="M87 2 L158 2 L158 78 L82 78 L82 97 L158 97 L158 169 Q127 166 94 165 Q93 178 91 184 Q156 187 235 195 L239 176 Q212 173 177 170 L177 97 L249 97 L249 78 L177 78 L177 2 L245 2 L245 -14 L87 -14 L87 2 ZM7 92 Q43 139 66 207 L86 200 Q76 173 62 146 L62 -29 L44 -29 L44 111 Q43 109 40 105 Q30 88 15 70 Q11 79 7 92 Z" /><glyph glyph-name="" unicode="&#x4efd;" d="M92 102 L213 102 Q213 97 212 86 Q211 36 209 17 Q210 -25 167 -24 Q150 -24 137 -24 Q134 -7 133 -4 Q142 -5 166 -5 Q190 -7 190 19 Q192 39 194 77 Q194 82 194 85 L138 85 Q140 12 82 -28 Q76 -20 69 -13 Q121 22 120 85 L92 85 L92 102 ZM7 93 Q43 142 63 207 L82 200 Q71 169 56 140 L56 -28 L38 -28 L38 106 Q36 102 31 95 Q27 88 15 72 Q11 82 7 93 ZM164 200 L180 207 Q202 148 249 117 Q240 107 235 100 Q183 141 164 200 ZM66 108 Q110 146 130 197 L147 190 Q123 132 80 95 Q68 107 66 108 Z" /><glyph glyph-name="" unicode="&#x4eff;" d="M78 166 L249 166 L249 148 L140 148 L138 112 Q138 110 138 108 L233 108 Q231 53 229 22 Q230 -24 188 -21 Q168 -21 152 -21 Q151 -12 148 0 Q164 -2 187 -2 Q210 -4 210 21 Q213 61 213 91 L137 91 Q134 15 87 -28 Q79 -19 71 -13 Q119 26 119 111 L120 148 L78 148 L78 166 ZM8 88 Q41 137 60 206 L79 200 Q71 173 60 148 L60 -28 L41 -28 L41 108 Q34 94 18 71 Q17 68 16 67 Q14 72 11 80 Q9 85 8 88 ZM148 204 L166 209 Q174 191 180 172 L161 166 Q159 175 151 195 Q149 201 148 204 Z" /><glyph glyph-name="" unicode="&#x4f01;" d="M121 134 L141 134 L141 81 L215 81 L215 63 L141 63 L141 0 L238 0 L238 -17 L18 -17 L18 0 L51 0 L51 93 L71 93 L71 0 L121 0 L121 134 ZM149 206 Q145 203 142 198 Q183 149 249 121 Q243 113 236 101 Q165 138 130 184 Q85 132 19 97 Q18 99 14 105 Q7 114 6 116 Q87 156 122 209 L149 206 Z" /><glyph glyph-name="" unicode="&#x4f0a;" d="M79 68 L124 68 Q125 77 126 98 Q127 108 127 113 L72 113 L72 130 L127 130 Q127 157 127 174 L88 174 L88 191 L224 191 L224 130 L248 130 L248 113 L224 113 L224 41 L205 41 L205 51 L140 51 Q132 6 84 -29 Q83 -28 79 -23 Q73 -16 71 -14 Q113 14 121 51 L79 51 L79 68 ZM6 94 Q41 141 63 208 L82 202 Q72 174 57 142 L57 -28 L38 -28 L38 108 Q26 88 14 73 Q10 83 6 94 ZM145 113 Q145 88 143 68 L205 68 L205 113 L145 113 ZM205 174 L146 174 Q146 157 146 130 L205 130 L205 174 Z" /><glyph glyph-name="" unicode="&#x4f10;" d="M133 207 L154 207 Q153 171 155 142 L240 152 L242 134 L157 124 Q160 83 168 56 Q202 80 226 110 L240 97 Q215 65 175 36 Q176 34 177 31 Q179 27 180 25 Q195 -5 213 -6 Q222 -7 224 4 Q227 16 230 40 Q240 36 249 33 Q244 5 241 -5 Q235 -28 215 -28 Q184 -27 163 13 Q160 18 158 24 Q126 5 87 -10 Q83 -3 76 6 Q118 22 151 43 Q142 72 137 121 L85 115 L82 133 L135 139 Q133 169 133 207 ZM8 88 Q49 144 70 207 L91 201 Q79 172 65 143 L65 -27 L45 -27 L45 108 Q31 84 17 67 Q12 77 8 88 ZM172 189 L183 202 Q191 196 204 187 Q218 177 225 172 L213 157 Q201 169 172 189 Z" /><glyph glyph-name="" unicode="&#x4f17;" d="M145 206 Q142 200 139 197 Q176 151 248 126 Q242 117 238 106 Q167 136 128 182 Q91 134 19 101 Q14 111 8 120 Q87 151 126 210 L145 206 ZM161 121 L180 121 Q180 117 179 110 Q179 103 178 99 Q197 13 249 -9 Q242 -18 236 -26 Q188 4 173 61 Q161 1 107 -30 Q99 -20 94 -15 Q165 18 161 121 ZM70 118 L89 118 Q89 99 86 84 Q102 68 131 37 Q130 38 134 34 L119 20 Q109 33 91 53 Q85 60 82 64 Q71 12 21 -27 Q14 -18 6 -11 Q71 29 70 118 Z" /><glyph glyph-name="" unicode="&#x4f18;" d="M131 206 L150 206 Q150 166 148 140 L244 140 L244 123 L177 123 L177 13 Q176 -2 192 -1 L206 -1 Q223 -2 225 13 Q227 26 228 51 Q237 47 247 44 Q246 18 243 6 Q240 -22 208 -20 L189 -20 Q156 -22 158 10 L158 123 L147 123 Q147 118 147 115 Q142 31 80 -28 Q68 -14 65 -12 Q123 41 127 118 Q127 120 127 123 L75 123 L75 140 L129 140 Q131 186 131 206 ZM8 93 Q46 146 64 207 L84 200 Q73 168 58 138 L58 -28 L39 -28 L39 105 Q27 86 15 71 Q11 81 8 93 ZM181 199 Q209 179 223 167 Q219 161 210 152 Q194 168 170 186 L181 199 Z" /><glyph glyph-name="" unicode="&#x4f19;" d="M148 208 L168 208 Q168 198 168 179 Q167 160 167 149 Q167 140 166 132 Q166 129 166 126 Q179 33 248 -10 Q245 -13 239 -21 Q236 -25 234 -27 Q174 16 159 83 Q147 22 80 -29 Q74 -21 66 -13 Q113 21 129 55 Q147 88 147 148 Q148 171 148 208 ZM7 88 Q46 141 66 209 L86 203 Q73 169 62 146 L62 -28 L44 -28 L44 109 Q30 85 16 67 Q12 78 7 88 ZM182 98 Q198 118 223 153 Q222 151 226 157 L242 146 Q226 123 197 86 L182 98 ZM75 146 L91 155 Q110 125 125 96 L108 86 Q99 104 78 141 Q79 138 75 146 Z" /><glyph glyph-name="" unicode="&#x4f1a;" d="M164 41 Q197 10 225 -16 L209 -30 Q206 -27 200 -20 Q194 -14 191 -10 Q110 -14 68 -19 Q57 -21 48 -24 L36 -4 Q47 0 56 7 Q73 21 98 54 L17 54 L17 72 L239 72 L239 54 L122 54 Q93 17 74 0 Q136 2 176 4 Q164 16 151 29 L164 41 ZM124 211 L144 207 Q143 206 142 205 Q140 200 138 199 Q185 142 250 118 Q249 116 244 108 Q239 102 237 98 Q169 130 128 186 Q81 131 19 95 Q13 103 6 113 Q80 151 124 211 ZM61 122 L194 122 L194 104 L61 104 L61 122 Z" /><glyph glyph-name="" unicode="&#x4f20;" d="M98 29 L108 43 Q139 27 161 13 L208 59 L105 59 L105 76 Q110 91 114 106 L77 106 L77 123 L119 123 Q124 140 128 155 L88 155 L88 172 L133 172 Q135 181 138 197 Q139 203 140 206 L161 206 Q160 201 157 189 Q155 178 153 172 L238 172 L238 155 L148 155 Q146 146 142 129 Q141 125 140 123 L248 123 L248 106 L135 106 Q131 91 125 76 L233 76 L233 58 L178 3 Q195 -5 207 -14 L194 -30 Q170 -14 112 20 Q102 26 98 29 ZM8 89 Q42 141 61 207 L81 201 Q80 199 79 194 Q73 175 61 149 L61 -28 L42 -28 L42 109 Q30 85 16 68 Q12 78 8 89 Z" /><glyph glyph-name="" unicode="&#x4f2f;" d="M98 169 L137 169 Q144 186 152 209 L172 203 Q165 185 157 169 L234 169 L234 -26 L214 -26 L214 -5 L117 -5 L117 -26 L98 -26 L98 169 ZM117 73 L117 11 L214 11 L214 73 L117 73 ZM117 152 L117 91 L214 91 L214 152 L117 152 ZM6 92 Q43 145 62 208 L81 202 Q72 175 60 150 L60 -28 L40 -28 L40 111 Q39 109 37 105 Q27 88 14 71 Q11 82 6 92 Z" /><glyph glyph-name="" unicode="&#x4f34;" d="M152 207 L171 207 L171 116 L238 116 L238 98 L171 98 L171 59 L248 59 L248 41 L171 41 L171 -28 L152 -28 L152 41 L76 41 L76 59 L152 59 L152 98 L86 98 L86 116 L152 116 L152 207 ZM7 88 Q46 141 66 209 L86 203 Q75 173 61 144 L61 -28 L42 -28 L42 107 Q30 84 16 67 Q12 78 7 88 ZM189 140 Q208 164 223 185 L240 172 Q233 163 216 142 Q208 132 204 127 L189 140 ZM86 172 L102 183 Q118 162 133 141 L116 129 Q111 137 101 151 Q91 165 86 172 Z" /><glyph glyph-name="" unicode="&#x4f3c;" d="M204 201 L223 201 Q223 164 222 141 Q219 72 205 41 Q216 28 238 3 Q246 -6 249 -10 L232 -23 Q224 -11 205 12 Q199 20 196 24 Q182 -1 140 -29 Q139 -28 136 -25 Q129 -17 125 -14 Q206 26 203 141 Q203 149 203 168 Q204 190 204 201 ZM7 90 Q40 146 52 208 L70 204 Q65 180 56 153 L56 -28 L37 -28 L37 108 Q27 87 16 70 Q11 80 7 90 ZM165 75 Q165 72 166 64 Q166 56 167 53 Q142 37 104 12 Q94 4 92 1 L78 17 Q87 26 87 39 L87 182 L106 182 L106 36 Q144 61 165 75 ZM125 197 L142 206 Q144 203 147 197 Q167 161 176 144 L157 135 Q135 182 125 197 Z" /><glyph glyph-name="" unicode="&#x4f46;" d="M98 191 L228 191 L228 41 L98 41 L98 191 ZM7 93 Q45 144 64 207 L84 200 Q73 168 58 139 L58 -28 L39 -28 L39 105 Q27 85 15 71 Q12 81 7 93 ZM116 109 L116 58 L209 58 L209 109 L116 109 ZM116 174 L116 125 L209 125 L209 174 L116 174 ZM76 4 L249 4 L249 -12 L76 -12 L76 4 Z" /><glyph glyph-name="" unicode="&#x4f4d;" d="M206 133 L227 126 Q219 101 201 51 Q188 13 184 0 L249 0 L249 -17 L73 -17 L73 0 L163 0 Q186 64 206 133 ZM7 91 Q41 142 60 208 L80 203 Q70 171 58 144 L58 -29 L40 -29 L40 107 Q30 87 16 69 Q14 74 9 87 Q7 90 7 91 ZM144 203 L163 210 Q175 175 177 169 L159 164 L244 164 L244 146 L78 146 L78 164 L157 164 Q154 175 144 203 ZM112 130 Q127 88 146 25 L126 18 Q108 83 93 124 L112 130 Z" /><glyph glyph-name="" unicode="&#x4f4e;" d="M92 188 Q151 187 236 198 L243 180 Q230 179 192 176 Q183 175 178 175 Q178 161 180 113 L246 113 L246 96 L182 96 Q189 12 220 -3 Q227 -6 229 0 Q232 14 233 37 Q243 33 250 30 Q249 21 247 6 Q246 0 246 -4 Q241 -25 226 -25 Q208 -24 192 -3 Q168 27 164 96 L110 96 L110 10 Q114 12 121 16 Q134 23 155 36 Q157 24 159 17 Q155 14 144 8 Q118 -4 110 -10 Q104 -15 97 -21 L84 -5 Q93 2 92 14 L92 188 ZM6 95 Q44 148 63 209 L81 202 Q70 170 55 141 L55 -28 L37 -28 L37 110 Q21 84 12 74 Q9 84 6 95 ZM163 113 Q162 141 160 174 Q149 173 152 174 Q120 172 110 172 L110 113 L163 113 ZM141 -1 L154 8 Q170 -5 180 -18 L166 -29 Q163 -26 159 -20 Q148 -8 141 -1 Z" /><glyph glyph-name="" unicode="&#x4f4f;" d="M93 90 L154 90 L154 148 L87 148 L87 166 L240 166 L240 148 L173 148 L173 90 L233 90 L233 72 L173 72 L173 -1 L248 -1 L248 -19 L80 -19 L80 -1 L154 -1 L154 72 L93 72 L93 90 ZM7 88 Q47 144 66 209 L86 203 Q76 176 65 150 L65 -28 L45 -28 L45 112 Q34 91 16 67 Q16 68 15 71 Q10 84 7 88 ZM146 204 L164 209 Q167 202 174 185 Q177 177 179 173 L160 166 Q156 178 146 204 Z" /><glyph glyph-name="" unicode="&#x4f51;" d="M78 166 L139 166 Q143 176 148 197 Q150 204 151 208 L171 203 Q165 184 158 166 L246 166 L246 148 L151 148 Q141 124 127 100 L230 100 L230 -27 L211 -27 L211 -7 L126 -7 L126 -27 L108 -27 L108 70 Q93 49 74 27 Q72 30 68 36 Q64 41 62 44 Q108 95 132 148 L78 148 L78 166 ZM126 82 L126 8 L211 8 L211 82 L126 82 ZM6 92 Q37 138 61 207 L80 203 Q69 173 57 145 L57 -28 L38 -28 L38 110 Q26 87 13 71 Q9 81 6 92 Z" /><glyph glyph-name="" unicode="&#x4f53;" d="M58 26 Q108 70 131 140 L75 140 L75 158 L145 158 L145 207 L164 207 L164 158 L239 158 L239 140 L178 140 Q202 65 250 32 Q245 28 236 14 Q183 64 164 140 L164 38 L202 38 L202 21 L164 21 L164 -28 L145 -28 L145 21 L107 21 L107 38 L145 38 L145 140 Q129 69 72 10 Q63 22 58 26 ZM6 91 Q42 139 62 208 L80 202 Q70 169 56 140 L56 -28 L38 -28 L38 105 Q36 101 31 94 Q27 87 15 71 Q14 72 12 78 Q7 90 6 91 Z" /><glyph glyph-name="" unicode="&#x4f55;" d="M93 137 L175 137 L175 35 L93 35 L93 137 ZM86 191 L248 191 L248 173 L227 173 L227 10 Q229 -27 193 -25 Q183 -26 155 -26 Q154 -14 152 -5 Q171 -6 189 -6 Q209 -7 208 10 L208 173 L86 173 L86 191 ZM6 91 Q40 142 59 208 L79 202 Q70 176 59 150 L59 -28 L40 -28 L40 111 Q28 87 15 70 Q11 80 6 91 ZM110 120 L110 52 L157 52 L157 120 L110 120 Z" /><glyph glyph-name="" unicode="&#x4f59;" d="M146 206 Q143 202 139 197 Q181 147 248 122 Q246 119 242 113 Q238 106 236 103 Q213 114 195 125 L195 112 L140 112 L140 78 L239 78 L239 60 L140 60 L140 2 Q141 -27 108 -27 Q92 -27 77 -27 Q76 -19 73 -7 Q82 -8 103 -8 Q122 -9 120 5 L120 60 L17 60 L17 78 L120 78 L120 112 L61 112 L61 124 Q36 108 19 100 Q18 101 16 105 Q11 114 8 118 Q87 156 125 210 L146 206 ZM128 183 Q101 151 68 129 L189 129 Q150 155 128 183 ZM178 51 Q205 29 242 -1 L228 -16 Q204 6 164 38 L178 51 ZM72 51 L88 39 Q67 15 29 -19 Q26 -16 19 -9 Q16 -6 14 -4 Q46 19 72 51 Z" /><glyph glyph-name="" unicode="&#x4f5b;" d="M79 122 L120 122 L120 159 L75 159 L75 176 L120 176 L120 206 L137 206 L137 176 L166 176 L166 206 L184 206 L184 176 L230 176 L230 106 L184 106 L184 69 L242 69 Q242 47 240 26 Q239 0 214 0 Q205 0 195 0 Q195 2 193 8 Q192 14 191 17 Q196 16 210 16 Q222 15 222 29 Q223 36 223 52 L184 52 L184 -25 L166 -25 L166 52 L134 52 Q130 4 84 -29 Q81 -24 70 -16 Q112 14 116 52 L71 52 L79 122 ZM7 91 Q40 142 58 208 L76 204 Q67 174 55 145 L55 -28 L37 -28 L37 108 Q27 89 15 71 Q11 81 7 91 ZM137 106 Q137 99 136 85 Q136 74 136 69 L166 69 L166 106 L137 106 ZM137 159 L137 122 L166 122 L166 159 L137 159 ZM213 159 L184 159 L184 122 L213 122 L213 159 ZM118 69 Q120 84 120 106 L94 106 L90 69 L118 69 Z" /><glyph glyph-name="" unicode="&#x4f5c;" d="M74 109 Q109 157 126 208 L145 204 Q139 186 131 170 L248 170 L248 152 L160 152 L160 110 L238 110 L238 92 L160 92 L160 49 L241 49 L241 32 L160 32 L160 -28 L141 -28 L141 152 L123 152 Q108 123 89 96 Q78 107 74 109 ZM7 88 Q40 134 63 207 L83 202 Q73 174 61 147 L61 -28 L42 -28 L42 108 Q28 84 16 67 Q12 76 7 88 Z" /><glyph glyph-name="" unicode="&#x4f60;" d="M7 88 Q46 141 66 209 L86 203 Q73 169 62 146 L62 -28 L44 -28 L44 109 Q30 85 16 67 Q12 78 7 88 ZM209 113 L225 152 L123 152 Q111 130 98 109 Q95 112 88 117 Q85 120 83 121 Q111 160 126 208 L146 202 Q139 184 131 169 L244 169 L244 150 L226 106 L209 113 ZM155 133 L174 133 L174 7 Q177 -25 140 -25 Q118 -25 113 -25 Q113 -24 113 -22 Q112 -16 109 -5 Q128 -6 138 -6 Q156 -7 155 9 L155 133 ZM133 91 Q112 41 97 8 L79 16 Q99 55 115 97 L133 91 ZM212 98 Q232 58 248 19 L230 11 Q223 30 205 70 Q198 84 195 91 L212 98 Z" /><glyph glyph-name="" unicode="&#x4f63;" d="M169 -17 L152 -17 L152 50 L104 50 Q102 9 79 -28 Q72 -20 63 -15 Q78 6 83 31 Q88 54 88 104 L88 195 L236 195 L236 4 Q238 -27 206 -25 Q194 -26 184 -26 Q184 -25 184 -23 Q183 -17 180 -6 Q187 -7 204 -7 Q219 -8 218 6 L218 50 L169 50 L169 -17 ZM7 94 Q43 148 58 209 L77 203 Q76 201 75 196 Q69 176 57 148 L57 -28 L39 -28 L39 110 Q28 89 16 73 Q12 83 7 94 ZM169 114 L169 67 L218 67 L218 114 L169 114 ZM218 177 L169 177 L169 131 L218 131 L218 177 ZM105 109 Q105 85 105 67 L152 67 L152 114 L105 114 L105 109 ZM105 177 L105 131 L152 131 L152 177 L105 177 Z" /><glyph glyph-name="" unicode="&#x4f73;" d="M152 90 L171 90 L171 58 L237 58 L237 40 L171 40 L171 0 L245 0 L245 -17 L76 -17 L76 0 L152 0 L152 40 L88 40 L88 58 L152 58 L152 90 ZM152 206 L171 206 L171 169 L234 169 L234 152 L171 152 L171 114 L243 114 L243 97 L80 97 L80 114 L152 114 L152 152 L89 152 L89 169 L152 169 L152 206 ZM8 92 Q43 144 62 209 L82 203 Q73 174 60 147 L60 -28 L41 -28 L41 110 Q29 87 16 70 Q14 75 11 83 Q9 89 8 92 Z" /><glyph glyph-name="" unicode="&#x4f7f;" d="M75 174 L151 174 L151 207 L169 207 L169 174 L247 174 L247 158 L169 158 L169 134 L234 134 L234 57 L216 57 L216 67 L167 67 Q164 36 151 17 Q182 -2 249 -8 Q242 -17 236 -28 Q172 -18 138 2 Q121 -13 77 -30 Q73 -22 64 -12 Q109 0 123 14 Q106 29 92 50 L108 59 Q120 41 135 28 Q145 43 148 67 L85 67 L85 134 L151 134 L151 158 L75 158 L75 174 ZM8 92 Q45 147 59 208 L78 202 Q68 169 55 141 L55 -29 L37 -29 L37 105 Q36 103 33 99 Q23 80 16 71 Q12 82 8 92 ZM150 83 Q150 87 150 95 Q151 104 151 109 L151 118 L103 118 L103 83 L150 83 ZM169 109 Q169 95 168 83 L216 83 L216 118 L169 118 L169 109 Z" /><glyph glyph-name="" unicode="&#x4f8b;" d="M78 193 L171 193 L171 177 L124 177 Q123 173 122 166 Q118 148 115 140 L161 140 L161 123 Q149 27 83 -28 Q77 -21 70 -14 Q134 37 144 124 L110 124 Q109 122 107 117 Q105 108 99 95 Q105 91 115 84 Q122 79 126 76 L115 61 Q110 66 97 76 Q93 79 91 80 Q84 64 73 50 Q68 58 62 63 Q94 109 106 177 L78 177 L78 193 ZM8 94 Q40 147 54 210 L72 207 Q65 177 55 152 L55 -28 L39 -28 L39 114 Q28 92 16 72 Q13 81 8 94 ZM220 207 L237 207 L237 5 Q238 -25 211 -24 Q202 -25 178 -25 Q177 -14 175 -4 Q198 -6 204 -6 Q221 -7 220 10 L220 207 ZM195 27 L178 27 L178 169 L195 169 L195 27 Z" /><glyph glyph-name="" unicode="&#x4f9b;" d="M82 152 L113 152 L113 206 L132 206 L132 152 L185 152 L185 206 L205 206 L205 152 L239 152 L239 134 L205 134 L205 68 L248 68 L248 50 L72 50 L72 68 L113 68 L113 134 L82 134 L82 152 ZM5 92 Q46 147 65 208 L84 201 Q73 170 58 142 L58 -29 L39 -29 L39 107 Q27 87 13 70 Q8 86 5 92 ZM132 134 L132 68 L185 68 L185 134 L132 134 ZM170 31 L184 43 Q204 26 238 -6 Q244 -11 247 -14 L231 -28 Q207 -3 170 31 ZM147 31 Q123 3 86 -29 Q84 -28 78 -22 Q72 -16 70 -15 Q105 12 130 43 L147 31 Z" /><glyph glyph-name="" unicode="&#x4f9d;" d="M56 52 Q113 94 143 151 L74 151 L74 167 L154 167 Q148 186 139 202 L156 208 Q164 193 172 174 L156 167 L247 167 L247 151 L164 151 Q161 148 160 145 Q166 109 176 84 Q199 101 224 124 L237 110 Q225 99 194 76 Q187 70 183 67 Q202 28 248 1 Q245 0 235 -13 Q234 -15 234 -15 Q164 28 147 123 Q136 107 124 92 L124 3 Q153 20 166 28 Q168 16 170 8 Q150 -1 124 -18 Q121 -20 115 -25 Q111 -28 110 -29 L97 -13 Q106 -3 105 8 L105 71 Q82 47 66 36 Q62 44 56 52 ZM7 91 Q41 142 59 207 L77 203 Q68 172 55 143 L55 -29 L36 -29 L36 105 Q26 85 14 70 Q14 72 11 78 Q8 88 7 91 Z" /><glyph glyph-name="" unicode="&#x4fa3;" d="M84 82 L235 82 L235 -28 L217 -28 L217 -10 L102 -10 L102 -28 L84 -28 L84 82 ZM93 194 L226 194 L226 110 L93 110 L93 194 ZM102 65 L102 5 L217 5 L217 65 L102 65 ZM7 90 Q39 137 58 208 L77 202 Q67 172 55 143 L55 -28 L37 -28 L37 105 Q35 102 31 96 Q25 85 15 70 Q10 85 7 90 ZM112 177 L112 127 L207 127 L207 177 L112 177 Z" /><glyph glyph-name="" unicode="&#x4fa7;" d="M72 194 L163 194 L163 39 L146 39 L146 177 L89 177 L89 40 L72 40 L72 194 ZM7 94 Q35 141 51 207 L68 203 Q61 174 50 147 L50 -28 L34 -28 L34 108 Q24 87 13 71 Q12 78 8 89 Q7 93 7 94 ZM221 207 L238 207 L238 4 Q239 -25 211 -25 Q196 -26 183 -26 Q183 -17 180 -7 Q183 -7 191 -7 Q200 -8 205 -8 Q222 -9 221 7 L221 207 ZM128 40 Q144 23 173 -6 L158 -18 Q153 -11 134 9 Q121 23 117 28 Q109 0 70 -28 Q68 -26 64 -22 Q60 -17 57 -14 Q90 7 99 29 Q109 50 109 99 L109 159 L125 159 L125 100 Q125 57 118 32 L128 40 ZM200 22 L183 22 L183 184 L200 184 L200 22 Z" /><glyph glyph-name="" unicode="&#x4fa8;" d="M94 175 Q92 191 92 193 Q137 193 228 199 L231 182 Q200 179 168 178 Q167 156 161 137 L243 137 L243 120 L187 120 Q205 85 249 71 Q246 67 242 60 Q240 56 239 54 Q186 75 167 120 L154 120 Q138 83 79 50 Q77 53 73 59 Q70 63 68 66 Q117 91 134 120 L81 120 L81 137 L142 137 Q148 155 149 177 Q122 175 94 175 ZM5 90 Q43 140 65 208 L83 202 Q72 169 57 141 L57 -27 L39 -27 L39 108 Q27 89 15 72 Q13 75 10 81 Q7 87 5 90 ZM115 44 Q115 57 115 68 L133 68 Q133 56 133 44 Q135 -5 87 -30 Q81 -22 75 -16 Q117 4 115 44 ZM187 68 L205 68 L205 -26 L187 -26 L187 68 Z" /><glyph glyph-name="" unicode="&#x4fb5;" d="M91 51 L91 67 L215 67 L215 52 Q199 25 174 7 Q197 -2 242 -9 Q238 -13 234 -22 Q232 -25 231 -27 Q184 -16 157 -2 Q124 -18 79 -29 Q75 -22 68 -12 Q113 -4 140 7 Q118 24 105 51 L91 51 ZM86 196 L223 196 L223 116 L84 116 L84 131 L206 131 L206 148 L95 148 L95 164 L206 164 L206 180 L86 180 L86 196 ZM7 91 Q41 144 57 207 L75 202 Q66 171 54 141 L54 -28 L36 -28 L36 104 Q26 86 15 70 Q14 74 11 81 Q8 88 7 91 ZM69 99 L241 99 L241 62 L223 62 L223 83 L86 83 L86 61 L69 61 L69 99 ZM194 51 L124 51 Q137 28 157 16 Q179 30 194 51 Z" /><glyph glyph-name="" unicode="&#x4fbf;" d="M104 53 Q119 35 136 23 Q145 36 148 55 L87 55 L87 155 L152 155 L152 178 L84 178 L84 194 L244 194 L244 178 L169 178 L169 155 L235 155 L235 44 L217 44 L217 55 L166 55 Q161 28 151 14 Q174 1 248 -5 Q247 -7 245 -10 Q242 -15 238 -24 Q169 -14 139 0 Q121 -14 79 -29 Q74 -19 67 -12 Q110 0 123 10 Q106 23 91 42 L104 53 ZM6 92 Q41 137 62 208 L80 203 Q70 172 57 144 L57 -28 L39 -28 L39 109 Q27 87 14 70 Q13 76 6 92 ZM169 97 Q169 82 168 70 L217 70 L217 97 L169 97 ZM217 140 L169 140 L169 113 L217 113 L217 140 ZM104 140 L104 113 L152 113 L152 140 L104 140 ZM150 70 Q151 74 151 84 Q152 92 152 97 L104 97 L104 70 L150 70 Z" /><glyph glyph-name="" unicode="&#x4fc3;" d="M62 -13 Q95 17 99 86 L116 84 Q114 63 111 46 Q125 14 153 3 L153 110 L94 110 L94 194 L227 194 L227 110 L171 110 L171 69 L238 69 L238 52 L171 52 L171 0 Q176 0 180 0 Q195 -1 220 0 Q238 0 249 0 Q245 -5 241 -18 Q206 -18 178 -17 Q130 -18 105 23 Q98 -1 75 -28 Q69 -20 62 -13 ZM7 90 Q39 137 58 208 L77 202 Q76 199 73 192 Q62 158 55 142 L55 -28 L37 -28 L37 104 Q33 99 27 88 Q19 76 15 70 Q12 82 7 90 ZM112 177 L112 127 L208 127 L208 177 L112 177 Z" /><glyph glyph-name="" unicode="&#x4fca;" d="M71 36 Q101 58 127 99 L145 95 Q139 86 133 79 L217 79 L217 63 Q202 34 174 13 Q204 -1 248 -6 Q247 -7 245 -10 Q239 -18 237 -24 Q184 -11 157 2 Q120 -16 76 -28 Q72 -20 66 -11 Q119 0 142 13 Q123 28 110 49 Q105 43 93 32 Q87 26 84 23 Q81 26 76 31 Q73 34 71 36 ZM7 95 Q44 142 65 209 L84 202 Q72 172 59 143 L59 -27 L40 -27 L40 109 Q28 88 15 73 Q12 83 7 95 ZM188 187 Q192 184 199 177 Q231 149 243 136 L229 124 Q223 131 215 137 Q167 137 110 133 Q105 133 94 131 Q90 130 89 130 L82 149 Q93 154 102 161 Q124 180 148 209 L167 201 Q135 169 112 149 Q116 149 125 149 Q173 151 200 153 Q196 157 187 165 Q179 173 174 177 L188 187 ZM197 63 L121 63 Q121 63 121 62 Q134 38 158 22 Q185 40 197 63 ZM178 114 L188 128 Q219 113 246 98 L236 81 Q212 96 178 114 ZM136 114 Q113 96 82 78 Q76 86 70 92 Q99 107 125 127 L136 114 Z" /><glyph glyph-name="" unicode="&#x4fdd;" d="M92 197 L227 197 L227 114 L92 114 L92 197 ZM63 0 Q110 25 134 66 L70 66 L70 82 L150 82 L150 108 L168 108 L168 82 L248 82 L248 66 L182 66 Q207 25 249 5 Q243 -1 238 -9 Q190 16 168 64 L168 -28 L150 -28 L150 64 Q122 14 76 -14 Q70 -7 63 0 ZM7 90 Q41 141 57 207 L75 202 Q66 172 54 143 L54 -28 L36 -28 L36 105 Q26 85 14 70 Q10 80 7 90 ZM110 180 L110 131 L208 131 L208 180 L110 180 Z" /><glyph glyph-name="" unicode="&#x4fe1;" d="M93 58 L231 58 L231 -29 L212 -29 L212 -15 L112 -15 L112 -29 L93 -29 L93 58 ZM7 91 Q43 143 61 208 L80 202 Q79 199 77 194 Q70 173 57 144 L57 -29 L39 -29 L39 108 Q27 87 15 71 Q11 82 7 91 ZM112 41 L112 0 L212 0 L212 41 L112 41 ZM144 201 L160 209 Q163 204 168 195 Q173 185 175 180 L164 175 L248 175 L248 158 L77 158 L77 175 L157 175 Q151 188 144 201 ZM91 136 L233 136 L233 119 L91 119 L91 136 ZM91 97 L233 97 L233 80 L91 80 L91 97 Z" /><glyph glyph-name="" unicode="&#x4fe3;" d="M70 59 L147 59 Q148 63 148 74 Q149 83 149 88 L81 88 L81 104 L237 104 L237 88 L167 88 Q167 71 165 59 L246 59 L246 42 L170 42 Q188 3 248 -11 Q242 -19 237 -28 Q177 -10 157 32 Q144 -4 76 -29 Q71 -21 65 -13 Q131 7 143 42 L70 42 L70 59 ZM92 197 L225 197 L225 125 L92 125 L92 197 ZM7 90 Q42 140 60 208 L79 202 Q78 200 77 195 Q64 159 56 142 L56 -27 L38 -27 L38 106 Q26 85 15 70 Q11 80 7 90 ZM110 181 L110 141 L207 141 L207 181 L110 181 Z" /><glyph glyph-name="" unicode="&#x4fee;" d="M96 140 Q128 173 141 208 L158 202 Q157 201 156 197 Q154 193 148 183 L227 183 L227 168 Q206 138 187 124 Q212 112 248 105 Q247 102 244 97 Q242 91 240 88 Q197 99 173 114 Q146 97 104 83 Q103 84 102 87 Q100 91 94 99 Q133 109 158 124 Q143 136 130 154 Q120 141 109 127 Q102 134 96 140 ZM7 90 Q37 142 52 208 L70 205 Q64 178 54 151 L54 -28 L36 -28 L36 109 Q27 87 15 70 Q12 79 7 90 ZM73 16 L73 169 L90 169 L90 16 L73 16 ZM227 45 L238 32 Q181 -12 103 -31 Q99 -22 94 -15 Q171 2 227 45 ZM205 74 L216 61 Q173 29 115 8 Q112 14 106 23 Q165 42 205 74 ZM182 99 L193 87 Q156 61 113 47 Q112 48 110 52 Q106 58 103 61 Q147 75 182 99 ZM207 168 L140 168 Q155 147 173 133 Q194 148 207 168 Z" /><glyph glyph-name="" unicode="&#x4ff1;" d="M67 48 L97 48 L97 196 L220 196 L220 48 L249 48 L249 32 L67 32 L67 48 ZM7 89 Q41 139 60 207 L78 201 Q68 169 54 140 L54 -29 L37 -29 L37 105 Q27 85 15 70 Q11 80 7 89 ZM115 71 L115 48 L203 48 L203 71 L115 71 ZM115 145 L115 122 L203 122 L203 145 L115 145 ZM115 108 L115 85 L203 85 L203 108 L115 108 ZM115 181 L115 159 L203 159 L203 181 L115 181 ZM129 30 L143 19 Q123 0 83 -30 L71 -16 Q110 9 129 30 ZM171 18 L183 30 Q217 6 241 -14 L229 -29 Q211 -13 171 18 Z" /><glyph glyph-name="" unicode="&#x5019;" d="M102 72 Q121 99 130 130 L147 126 Q145 121 142 112 Q140 109 140 108 L236 108 L236 91 L183 91 Q183 85 182 75 Q182 64 181 58 L248 58 L248 41 L185 41 Q202 4 249 -9 Q241 -20 238 -27 Q187 -6 172 29 Q162 -5 95 -30 Q95 -30 94 -29 Q86 -16 82 -13 Q151 7 159 41 L99 41 L99 58 L162 58 Q164 73 164 91 L133 91 Q126 76 117 62 Q114 65 107 69 Q103 71 102 72 ZM6 93 Q39 146 53 208 L71 205 Q62 174 53 149 L53 -29 L35 -29 L35 109 Q26 91 14 72 Q13 75 7 90 Q6 92 6 93 ZM114 197 L221 197 L216 149 L246 149 L246 132 L100 132 L100 149 L197 149 L201 180 L114 180 L114 197 ZM73 173 L90 173 L90 22 L73 22 L73 173 Z" /><glyph glyph-name="" unicode="&#x501f;" d="M94 86 L224 86 L224 -28 L206 -28 L206 -14 L112 -14 L112 -28 L94 -28 L94 86 ZM75 122 L114 122 L114 156 L85 156 L85 173 L114 173 L114 207 L133 207 L133 173 L182 173 L182 207 L200 207 L200 173 L238 173 L238 156 L200 156 L200 122 L247 122 L247 106 L75 106 L75 122 ZM8 97 Q46 151 62 208 L82 201 Q81 197 78 190 Q66 159 58 145 L58 -28 L40 -28 L40 111 Q28 92 16 75 Q11 91 8 97 ZM112 28 L112 0 L206 0 L206 28 L112 28 ZM112 70 L112 42 L206 42 L206 70 L112 70 ZM133 156 L133 122 L182 122 L182 156 L133 156 Z" /><glyph glyph-name="" unicode="&#x503a;" d="M89 153 L151 153 L151 170 L81 170 L81 185 L151 185 L151 207 L168 207 L168 185 L240 185 L240 170 L168 170 L168 153 L228 153 L228 138 L168 138 L168 121 L247 121 L247 105 L71 105 L71 121 L151 121 L151 138 L89 138 L89 153 ZM7 90 Q37 135 55 207 L72 204 Q64 177 55 150 L55 -29 L37 -29 L37 110 Q26 88 15 71 Q11 80 7 90 ZM91 89 L225 89 L225 16 L207 16 L207 73 L108 73 L108 13 L91 13 L91 89 ZM149 65 L166 65 Q166 45 162 30 Q193 14 233 -7 Q239 -10 242 -12 L231 -28 Q196 -4 156 15 Q138 -14 74 -30 Q72 -28 70 -23 Q65 -16 63 -13 Q157 -1 149 65 Z" /><glyph glyph-name="" unicode="&#x503c;" d="M149 207 L167 207 L167 183 L243 183 L243 166 L167 166 L167 144 L225 144 L225 -4 L248 -4 L248 -20 L67 -20 L67 -4 L91 -4 L91 144 L149 144 L149 166 L78 166 L78 183 L149 183 L149 207 ZM6 88 Q42 140 60 206 L77 202 Q66 169 54 141 L54 -27 L36 -27 L36 106 Q27 88 15 71 Q11 80 6 88 ZM109 16 L109 -4 L207 -4 L207 16 L109 16 ZM109 129 L109 106 L207 106 L207 129 L109 129 ZM109 91 L109 69 L207 69 L207 91 L109 91 ZM109 54 L109 32 L207 32 L207 54 L109 54 Z" /><glyph glyph-name="" unicode="&#x5047;" d="M150 194 L150 118 L94 118 L94 89 L144 89 L144 72 L94 72 L94 43 L147 43 L147 27 L94 27 L94 -29 L76 -29 L76 194 L150 194 ZM150 83 L150 99 L234 99 L234 84 Q224 45 206 20 Q220 5 252 -11 Q244 -20 240 -26 Q213 -10 195 7 Q171 -14 138 -30 Q133 -23 127 -15 Q165 0 184 20 Q165 46 157 83 L150 83 ZM7 89 Q37 144 50 208 L68 205 Q62 179 53 152 L53 -29 L36 -29 L36 109 Q26 87 14 70 Q11 79 7 89 ZM159 194 L233 194 L233 118 L158 118 L158 134 L216 134 L216 178 L159 178 L159 194 ZM94 178 L94 134 L133 134 L133 178 L94 178 ZM216 83 L174 83 Q183 52 195 33 Q210 54 216 83 Z" /><glyph glyph-name="" unicode="&#x5048;" d="M92 198 L222 198 L222 114 L92 114 L92 198 ZM62 60 Q92 83 109 112 L126 106 Q122 100 117 94 L236 94 Q236 45 233 9 Q232 -25 199 -25 Q182 -25 169 -25 Q169 -17 167 -6 Q175 -7 198 -7 Q215 -9 215 11 Q218 45 218 78 L106 78 Q98 69 90 61 L106 61 L106 17 L198 17 L198 2 L89 2 L89 60 Q80 51 74 46 Q68 54 62 60 ZM8 90 Q41 142 57 208 L76 202 Q67 173 55 146 L55 -28 L38 -28 L38 109 Q27 87 15 70 Q11 80 8 90 ZM109 149 L109 129 L204 129 L204 149 L109 149 ZM109 183 L109 164 L204 164 L204 183 L109 183 ZM153 77 L170 73 Q167 67 163 61 Q173 54 191 42 Q198 37 201 35 L191 21 Q169 39 155 48 Q142 30 124 20 Q120 26 112 32 Q142 47 153 77 Z" /><glyph glyph-name="" unicode="&#x505a;" d="M182 208 L199 205 Q195 182 189 162 L247 162 L247 145 L234 145 Q228 76 208 36 Q225 8 250 -9 Q244 -17 238 -26 Q212 -2 198 18 Q185 -2 153 -30 Q150 -25 141 -16 Q174 12 188 37 Q173 67 169 110 Q163 98 157 88 Q152 95 146 103 Q172 149 182 208 ZM102 206 L120 206 L120 159 L159 159 L159 143 L120 143 L120 94 L148 94 L148 6 L91 6 L91 -10 L73 -10 L73 94 L102 94 L102 143 L64 143 L64 159 L102 159 L102 206 ZM6 93 Q37 144 52 208 L70 203 Q62 176 53 150 L53 -28 L37 -28 L37 112 Q36 110 34 106 Q21 84 13 73 Q9 82 6 93 ZM91 78 L91 22 L131 22 L131 78 L91 78 ZM199 56 Q213 91 217 145 L184 145 Q182 142 182 140 Q186 86 199 56 Z" /><glyph glyph-name="" unicode="&#x505c;" d="M95 151 L217 151 L217 103 L95 103 L95 151 ZM7 91 Q42 146 56 208 L74 203 Q66 176 55 147 L55 -28 L39 -28 L39 110 Q27 87 15 70 Q11 81 7 91 ZM93 53 L220 53 L220 37 L173 37 L173 2 Q174 -24 146 -25 Q133 -25 116 -25 Q116 -24 115 -20 Q114 -10 112 -6 Q125 -7 141 -7 Q156 -8 155 4 L155 37 L93 37 L93 53 ZM69 89 L245 89 L245 50 L228 50 L228 73 L86 73 L86 50 L69 50 L69 89 ZM139 204 L156 209 Q162 194 166 182 L242 182 L242 166 L75 166 L75 182 L147 182 Q146 187 141 197 Q140 202 139 204 ZM112 137 L112 118 L200 118 L200 137 L112 137 Z" /><glyph glyph-name="" unicode="&#x5065;" d="M123 42 L167 42 L167 63 L129 63 L129 77 L167 77 L167 98 L132 98 L132 111 L167 111 L167 132 L120 132 L120 146 L167 146 L167 167 L132 167 L132 181 L167 181 L167 206 L183 206 L183 181 L226 181 L226 146 L247 146 L247 132 L226 132 L226 98 L183 98 L183 77 L231 77 L231 63 L183 63 L183 42 L234 42 L234 29 L183 29 L183 2 L167 2 L167 29 L123 29 L123 42 ZM77 80 Q83 55 94 38 Q103 62 104 95 L67 95 L67 110 L102 167 L70 167 L70 183 L120 183 L120 167 L85 110 L120 110 L120 94 Q117 51 105 23 Q129 -2 179 -3 Q211 -4 249 -1 Q248 -4 245 -11 Q242 -17 241 -20 Q235 -20 222 -20 Q195 -21 176 -20 Q127 -19 97 7 Q87 -8 69 -29 Q67 -25 59 -18 Q58 -17 57 -16 Q79 6 86 20 Q71 43 62 74 L77 80 ZM6 91 Q38 141 52 208 L70 204 Q61 171 51 144 L51 -27 L35 -27 L35 108 Q26 90 14 71 Q11 80 6 91 ZM211 167 L183 167 L183 146 L211 146 L211 167 ZM183 111 L211 111 L211 132 L183 132 L183 111 Z" /><glyph glyph-name="" unicode="&#x50a8;" d="M242 180 Q224 149 205 127 L248 127 L248 111 L190 111 Q178 99 165 89 L230 89 L230 -27 L213 -27 L213 -11 L156 -11 L156 -27 L140 -27 L140 69 Q135 66 126 59 Q119 54 115 52 Q114 56 110 62 Q107 67 106 69 Q141 87 166 111 L114 111 L114 127 L157 127 L157 161 L123 161 L123 177 L157 177 L157 207 L175 207 L175 177 L209 177 L209 161 L175 161 L175 127 L182 127 Q209 156 226 188 L242 180 ZM6 90 Q37 144 49 208 L67 205 Q63 181 52 153 L52 -28 L36 -28 L36 110 Q25 87 14 70 Q7 88 6 90 ZM125 36 Q125 35 126 33 Q127 23 129 19 Q114 8 97 -3 Q91 -8 86 -12 L74 0 Q83 5 82 20 L82 111 L61 111 L61 128 L99 128 L99 17 Q104 20 112 27 Q121 33 125 36 ZM156 31 L156 2 L213 2 L213 31 L156 31 ZM156 74 L156 46 L213 46 L213 74 L156 74 ZM89 200 Q100 179 112 156 L95 147 Q86 170 73 192 L89 200 Z" /><glyph glyph-name="" unicode="&#x50b2;" d="M186 207 L203 205 Q199 182 191 161 L249 161 L249 146 L237 146 Q231 69 212 32 Q227 9 250 -8 Q244 -17 240 -27 Q217 -5 203 16 Q188 -7 163 -29 Q157 -23 151 -14 Q181 12 193 32 Q177 63 171 112 Q168 104 163 96 Q157 104 152 110 Q177 160 186 207 ZM107 207 L123 207 L123 177 L161 177 L161 162 L123 162 L123 140 L154 140 L154 126 L123 126 L123 103 L157 103 L157 89 L102 89 Q102 77 102 67 L155 67 Q155 61 154 46 Q153 23 152 16 Q151 -22 122 -19 Q107 -19 104 -19 Q102 -10 100 0 Q113 -2 120 -2 Q136 -4 136 16 Q138 31 138 53 L101 53 Q96 3 70 -29 Q69 -28 67 -26 Q61 -19 57 -16 Q88 16 87 89 L63 89 L63 103 L107 103 L107 126 L72 126 L72 140 L107 140 L107 162 L67 162 L67 177 L107 177 L107 207 ZM6 93 Q37 144 52 208 L69 203 Q64 181 53 152 L53 -28 L37 -28 L37 113 Q23 85 13 73 Q10 82 6 93 ZM202 50 Q217 81 221 146 L185 146 Q185 145 185 144 Q184 142 184 141 Q187 82 202 50 Z" /><glyph glyph-name="" unicode="&#x50cf;" d="M65 145 Q103 171 127 209 L147 205 Q145 203 141 197 Q137 192 135 189 L202 189 L202 175 L180 152 L232 152 L232 100 L155 100 Q153 97 151 95 Q163 83 172 65 Q198 80 221 97 L232 84 Q229 82 222 78 Q209 69 202 65 Q214 24 246 1 Q239 -4 232 -11 Q203 14 188 56 Q184 53 178 50 Q182 34 182 13 Q183 -25 146 -26 Q133 -26 121 -26 Q119 -18 116 -8 Q130 -9 144 -9 Q166 -10 165 14 Q165 23 164 32 Q136 5 78 -20 Q73 -13 67 -5 Q124 14 160 49 Q158 56 155 62 Q123 32 77 14 Q72 22 66 28 Q117 47 147 75 Q146 77 143 80 Q141 83 139 84 Q119 68 77 49 Q75 52 72 56 Q68 61 66 63 Q117 82 134 100 L88 100 L88 141 Q86 139 82 136 Q77 132 75 130 Q69 138 65 145 ZM7 91 Q39 138 59 208 L78 204 Q66 171 54 141 L54 -28 L37 -28 L37 106 Q35 103 31 97 Q25 86 15 71 Q11 81 7 91 ZM179 174 L122 174 Q112 162 101 152 L159 152 L179 174 ZM216 137 L171 137 Q168 125 164 115 L216 115 L216 137 ZM105 137 L105 115 L146 115 Q152 125 154 137 L105 137 Z" /><glyph glyph-name="" unicode="&#x5141;" d="M170 175 Q220 127 244 101 L228 87 Q222 93 210 106 Q218 97 208 109 Q201 108 186 108 Q171 107 163 107 L163 13 Q163 -4 180 -3 L207 -3 Q223 -3 224 7 Q227 27 227 44 Q233 41 242 39 Q245 38 247 37 Q245 20 243 0 Q240 -23 210 -22 L177 -22 Q144 -22 144 8 L144 106 Q137 106 123 105 Q109 105 102 104 Q106 0 19 -28 Q14 -21 7 -10 Q85 12 83 103 Q78 103 67 102 Q56 102 51 101 Q39 101 26 98 L18 118 Q28 121 39 130 Q84 170 112 211 L132 200 Q100 160 57 121 Q142 123 192 126 Q174 145 157 163 L170 175 Z" /><glyph glyph-name="" unicode="&#x5143;" d="M11 122 L245 122 L245 103 L168 103 L168 13 Q167 -4 186 -3 L200 -3 Q223 -4 224 13 Q227 25 227 46 Q237 42 248 40 Q247 21 244 5 Q240 -22 203 -21 L181 -21 Q147 -23 149 10 L149 103 L100 103 Q100 99 100 95 Q101 8 22 -29 Q18 -22 8 -12 Q84 21 80 94 Q80 99 80 103 L11 103 L11 122 ZM35 192 L222 192 L222 174 L35 174 L35 192 Z" /><glyph glyph-name="" unicode="&#x5145;" d="M174 144 Q175 143 178 140 Q217 99 233 77 L217 65 Q213 69 206 78 Q203 82 201 84 Q185 84 167 84 L167 11 Q167 -5 185 -5 L205 -5 Q220 -5 224 8 Q227 25 227 40 Q240 34 247 33 Q247 25 243 3 Q243 1 243 1 Q235 -21 207 -22 L180 -22 Q149 -20 148 8 L148 83 Q141 83 126 82 Q112 82 105 81 Q108 0 20 -27 Q19 -25 16 -21 Q10 -12 8 -9 Q87 11 86 80 Q80 80 70 79 Q62 79 58 79 Q44 77 39 75 L29 95 Q42 100 51 107 Q74 128 97 156 L12 156 L12 174 L126 174 Q125 176 121 183 Q115 194 111 200 L129 209 Q132 205 138 195 Q144 185 146 180 L133 174 L244 174 L244 156 L123 156 Q99 127 68 98 Q92 98 164 100 Q181 101 188 101 Q183 107 173 119 Q164 128 160 133 L174 144 Z" /><glyph glyph-name="" unicode="&#x5146;" d="M138 206 L157 206 L157 100 Q169 94 196 78 Q215 67 223 63 L213 45 Q200 54 167 73 Q160 77 157 79 L157 18 Q157 -2 178 -1 L201 -1 Q223 -2 225 13 Q228 27 229 49 Q239 44 247 41 Q246 30 243 16 Q242 10 242 7 Q237 -21 201 -20 L175 -20 Q139 -20 138 17 L138 206 ZM83 206 L102 206 L102 106 Q103 51 86 23 Q70 -5 23 -29 Q18 -22 12 -13 Q81 22 82 78 Q79 76 72 72 Q36 52 21 43 L12 62 Q49 79 83 99 L83 105 L83 206 ZM226 157 Q204 135 178 114 L165 128 Q192 148 212 171 L226 157 ZM16 156 L28 169 Q58 145 74 129 L61 115 Q53 122 36 138 Q22 151 16 156 Z" /><glyph glyph-name="" unicode="&#x5148;" d="M124 208 L144 208 L144 161 L228 161 L228 143 L144 143 L144 97 L245 97 L245 79 L167 79 L167 10 Q167 -4 184 -4 L209 -4 Q226 -4 227 6 Q229 21 229 42 Q238 38 249 36 Q248 11 245 0 Q240 -21 212 -22 L180 -22 Q148 -22 148 8 L148 79 L100 79 Q101 -2 18 -29 Q13 -22 6 -12 Q82 8 81 79 L13 79 L13 97 L124 97 L124 143 L62 143 Q52 124 39 106 Q35 110 27 115 Q24 117 22 118 Q51 154 67 202 L87 196 Q80 177 72 161 L124 161 L124 208 Z" /><glyph glyph-name="" unicode="&#x5149;" d="M118 208 L137 208 L137 106 L247 106 L247 88 L167 88 L167 11 Q167 -5 184 -6 L209 -6 Q225 -6 227 6 Q227 8 228 17 Q229 32 229 40 Q231 39 234 38 Q246 34 250 33 Q246 3 244 -2 Q239 -23 209 -23 L180 -23 Q148 -22 147 8 L147 88 L100 88 Q104 -1 18 -29 Q13 -22 6 -12 Q84 10 81 88 L10 88 L10 106 L118 106 L118 208 ZM163 133 Q192 161 212 189 L230 176 Q205 148 178 121 L163 133 ZM28 177 L42 189 Q67 162 89 135 L72 122 Q50 152 28 177 Z" /><glyph glyph-name="" unicode="&#x514b;" d="M119 209 L138 209 L138 180 L245 180 L245 164 L138 164 L138 137 L216 137 L216 56 L165 56 L165 9 Q164 -7 183 -6 L209 -6 Q224 -6 226 5 Q229 16 230 35 Q240 32 249 30 Q248 26 247 19 Q247 11 244 0 Q240 -25 211 -24 L177 -24 Q145 -25 146 6 L146 56 L109 56 Q108 -12 18 -29 Q14 -21 9 -12 Q91 2 90 56 L40 56 L40 137 L119 137 L119 164 L10 164 L10 180 L119 180 L119 209 ZM59 120 L59 73 L198 73 L198 120 L59 120 Z" /><glyph glyph-name="" unicode="&#x514d;" d="M9 -13 Q83 11 105 60 L37 60 L37 124 Q35 122 31 119 Q28 117 20 110 Q19 111 16 115 Q10 123 7 126 Q52 156 87 209 L105 202 Q103 199 99 193 Q94 186 92 183 L187 183 L187 166 L160 140 L218 140 L218 60 L146 60 L146 12 Q144 -6 166 -5 L205 -5 Q223 -6 225 9 Q228 21 229 44 Q239 41 248 38 Q247 20 243 4 Q239 -23 209 -22 L161 -22 Q124 -25 128 11 L128 60 L126 60 Q105 2 22 -31 Q15 -21 9 -13 ZM199 123 L137 123 Q136 98 131 77 L199 77 L199 123 ZM55 123 L55 77 L112 77 Q118 98 119 123 L55 123 ZM162 167 L79 167 Q79 166 78 166 Q66 152 53 140 L135 140 L162 167 Z" /><glyph glyph-name="" unicode="&#x5151;" d="M35 164 L145 164 Q152 174 165 195 Q171 205 174 209 L193 199 Q181 182 166 164 L220 164 L220 65 L164 65 L164 11 Q163 -7 182 -6 L206 -6 Q223 -6 225 6 Q228 18 228 39 Q230 38 233 37 Q238 34 248 31 Q247 12 244 0 Q241 -23 210 -22 L178 -22 Q145 -22 145 8 L145 65 L105 65 Q104 -3 21 -29 Q16 -22 9 -12 Q85 7 86 65 L35 65 L35 164 ZM54 146 L54 82 L201 82 L201 146 L54 146 ZM63 199 L78 210 Q91 197 106 177 L90 165 Q78 183 63 199 Z" /><glyph glyph-name="" unicode="&#x5165;" d="M75 194 L91 205 Q117 189 151 119 Q195 21 249 0 L232 -21 Q177 10 134 110 Q133 113 130 118 Q128 123 126 125 Q100 31 22 -23 Q16 -13 8 -5 Q85 43 113 150 Q96 180 75 194 Z" /><glyph glyph-name="" unicode="&#x5168;" d="M125 211 L145 206 Q144 205 143 202 Q141 200 140 198 Q187 143 249 120 Q242 109 236 100 Q223 106 208 115 L208 98 L138 98 L138 61 L217 61 L217 43 L138 43 L138 0 L238 0 L238 -16 L18 -16 L18 0 L118 0 L118 43 L40 43 L40 61 L118 61 L118 98 L49 98 L49 114 Q47 113 43 110 Q28 101 19 97 Q14 105 7 115 Q85 154 125 211 ZM129 184 Q99 147 51 115 L208 115 Q160 146 129 184 Z" /><glyph glyph-name="" unicode="&#x516c;" d="M161 68 Q172 55 191 32 Q218 0 233 -16 L216 -29 Q213 -26 208 -19 Q201 -10 197 -6 Q160 -7 91 -11 Q73 -12 64 -13 Q54 -13 36 -17 L27 2 Q39 7 47 15 Q82 54 113 110 L134 101 Q112 63 65 5 Q115 7 183 10 Q166 32 145 56 L161 68 ZM147 194 L165 201 Q191 134 249 100 Q242 93 234 82 Q172 126 147 194 ZM7 92 Q63 133 90 197 L109 189 Q76 120 22 77 Q16 84 7 92 Z" /><glyph glyph-name="" unicode="&#x516d;" d="M11 140 L247 140 L247 120 L11 120 L11 140 ZM84 98 L105 87 Q72 28 29 -24 Q21 -17 10 -8 Q54 36 84 98 ZM150 83 L166 96 Q202 53 243 -6 L223 -21 Q183 41 150 83 ZM103 197 L121 206 Q135 187 151 159 L132 149 Q125 162 105 193 Q104 196 103 197 Z" /><glyph glyph-name="" unicode="&#x5170;" d="M18 155 L145 155 Q162 176 182 208 L200 197 Q197 193 191 185 Q184 175 169 155 L238 155 L238 136 L18 136 L18 155 ZM10 7 L246 7 L246 -10 L10 -10 L10 7 ZM35 83 L219 83 L219 64 L35 64 L35 83 ZM55 197 L70 208 Q76 202 87 190 Q99 177 104 171 L87 158 Q72 178 55 197 Z" /><glyph glyph-name="" unicode="&#x5171;" d="M165 206 L184 206 L184 159 L237 159 L237 140 L184 140 L184 73 L247 73 L247 55 L9 55 L9 73 L71 73 L71 140 L19 140 L19 159 L71 159 L71 205 L91 205 L91 159 L165 159 L165 206 ZM91 140 L91 73 L165 73 L165 140 L91 140 ZM93 43 L108 27 Q89 14 45 -13 Q30 -22 23 -26 Q21 -24 15 -16 Q10 -10 9 -9 Q51 11 93 43 ZM146 27 L160 42 Q183 28 229 0 Q237 -5 241 -8 L227 -25 Q177 9 146 27 Z" /><glyph glyph-name="" unicode="&#x5173;" d="M9 -11 Q101 19 114 76 L14 76 L14 94 L117 94 Q117 96 118 99 Q118 103 118 104 L118 140 L28 140 L28 158 L84 158 Q68 180 53 198 L68 209 Q86 190 102 169 L88 158 L146 158 Q152 167 163 183 Q174 200 179 208 L198 198 Q183 179 167 158 L229 158 L229 140 L137 140 L137 104 Q137 100 136 94 L243 94 L243 76 L141 76 Q165 14 247 -7 Q245 -10 241 -17 Q236 -24 234 -27 Q152 3 128 62 Q110 4 22 -29 Q15 -19 9 -11 Z" /><glyph glyph-name="" unicode="&#x5174;" d="M9 91 L247 91 L247 72 L9 72 L9 91 ZM88 60 L104 48 Q73 10 27 -28 Q26 -27 24 -25 Q17 -17 13 -14 Q56 19 88 60 ZM153 47 L166 60 Q188 40 219 9 Q234 -5 243 -13 L228 -28 Q224 -24 217 -17 Q176 25 153 47 ZM170 115 Q200 163 217 196 L236 187 Q215 148 187 104 L170 115 ZM104 201 L122 207 Q139 164 152 122 L131 115 Q119 161 104 201 ZM23 184 L40 192 Q67 145 82 115 L64 106 Q50 137 23 184 Z" /><glyph glyph-name="" unicode="&#x5175;" d="M9 60 L51 60 L51 190 Q135 191 209 201 L217 182 Q146 176 71 172 L71 133 L233 133 L233 116 L179 116 L179 60 L247 60 L247 42 L9 42 L9 60 ZM71 116 L71 60 L160 60 L160 116 L71 116 ZM87 35 L100 22 Q73 0 22 -30 Q16 -21 10 -14 Q48 5 87 35 ZM154 22 L165 35 Q200 13 241 -13 L228 -28 Q210 -16 154 22 Z" /><glyph glyph-name="" unicode="&#x5176;" d="M14 176 L51 176 L51 207 L69 207 L69 176 L187 176 L187 207 L205 207 L205 176 L242 176 L242 159 L205 159 L205 47 L248 47 L248 30 L9 30 L9 47 L51 47 L51 159 L14 159 L14 176 ZM69 73 L69 47 L187 47 L187 73 L69 73 ZM69 116 L69 90 L187 90 L187 116 L69 116 ZM69 159 L69 133 L187 133 L187 159 L69 159 ZM151 9 L162 26 Q169 23 185 16 Q232 -2 248 -10 L238 -29 Q204 -10 151 9 ZM92 25 L103 9 Q64 -12 18 -30 Q17 -27 13 -21 Q9 -14 8 -12 Q57 5 92 25 Z" /><glyph glyph-name="" unicode="&#x5177;" d="M8 41 L42 41 L42 197 L214 197 L214 41 L248 41 L248 24 L8 24 L8 41 ZM59 65 L59 41 L197 41 L197 65 L59 65 ZM59 180 L59 157 L197 157 L197 180 L59 180 ZM59 142 L59 118 L197 118 L197 142 L59 142 ZM59 103 L59 80 L197 80 L197 103 L59 103 ZM94 19 L105 3 Q71 -12 20 -30 Q16 -22 10 -12 Q65 5 94 19 ZM148 2 L158 18 Q167 15 185 9 Q231 -5 244 -10 L235 -28 Q191 -10 148 2 Z" /><glyph glyph-name="" unicode="&#x5178;" d="M147 207 L165 207 L165 177 L222 177 L222 51 L245 51 L245 34 L12 34 L12 51 L35 51 L35 177 L91 177 L91 207 L109 207 L109 177 L147 177 L147 207 ZM158 26 Q181 16 227 -3 Q238 -8 243 -10 L233 -28 Q179 -1 148 9 L158 26 ZM96 26 L106 10 Q94 4 71 -6 Q41 -21 22 -29 Q21 -27 19 -23 Q15 -15 12 -12 Q62 7 96 26 ZM165 97 L165 51 L204 51 L204 97 L165 97 ZM204 159 L165 159 L165 114 L204 114 L204 159 ZM109 159 L109 114 L147 114 L147 159 L109 159 ZM53 159 L53 114 L91 114 L91 159 L53 159 ZM53 97 L53 51 L91 51 L91 97 L53 97 ZM109 97 L109 51 L147 51 L147 97 L109 97 Z" /><glyph glyph-name="" unicode="&#x517b;" d="M25 177 L87 177 Q83 181 76 189 Q69 196 66 199 L79 210 Q80 209 85 205 Q98 193 103 186 L93 177 L149 177 Q151 180 156 186 Q170 204 174 209 L191 199 Q181 187 170 177 L231 177 L231 161 L133 161 Q133 157 132 149 Q132 142 132 139 L220 139 L220 123 L129 123 Q126 111 122 101 L243 101 L243 84 L167 84 Q194 57 248 49 Q241 38 237 29 Q177 43 145 84 L114 84 Q105 69 81 55 L97 55 Q98 18 86 2 Q75 -13 38 -30 Q32 -23 26 -14 Q60 0 69 11 Q79 23 78 53 Q56 40 20 28 Q16 35 8 44 Q68 62 91 84 L13 84 L13 101 L102 101 Q107 111 110 123 L33 123 L33 139 L113 139 Q113 142 113 149 Q114 157 114 161 L25 161 L25 177 ZM157 54 L176 54 L176 -28 L157 -28 L157 54 Z" /><glyph glyph-name="" unicode="&#x517c;" d="M27 143 L85 143 L85 166 L10 166 L10 182 L80 182 Q75 190 65 200 L80 209 Q90 199 100 187 L92 182 L146 182 Q155 191 166 210 L184 199 Q176 190 168 182 L246 182 L246 166 L159 166 L159 143 L216 143 L216 105 L247 105 L247 89 L216 89 L216 51 L162 51 Q192 20 248 0 Q243 -3 237 -16 Q183 8 159 35 L159 -28 L142 -28 L142 51 L102 51 L102 -28 L85 -28 L85 35 Q58 1 18 -21 Q12 -12 6 -7 Q53 15 81 51 L23 51 L23 66 L85 66 L85 89 L10 89 L10 105 L85 105 L85 128 L27 128 L27 143 ZM199 128 L159 128 L159 105 L199 105 L199 128 ZM159 66 L199 66 L199 89 L159 89 L159 66 ZM102 166 L102 143 L142 143 L142 166 L102 166 ZM102 89 L102 66 L142 66 L142 89 L102 89 ZM102 128 L102 105 L142 105 L142 128 L102 128 Z" /><glyph glyph-name="" unicode="&#x5185;" d="M119 207 L139 207 Q139 200 138 184 Q138 171 138 165 L227 165 L227 7 Q229 -23 195 -23 Q169 -24 157 -24 Q155 -13 153 -3 Q158 -3 170 -3 Q184 -4 191 -4 Q208 -5 207 9 L207 147 L138 147 Q137 115 128 94 L138 103 Q170 77 201 47 L186 31 Q167 52 126 89 Q113 59 64 28 Q62 32 55 41 Q51 45 51 46 Q120 78 118 147 L48 147 L48 -26 L29 -26 L29 165 L118 165 Q119 179 119 207 Z" /><glyph glyph-name="" unicode="&#x518c;" d="M9 109 L33 109 L33 195 L111 195 L111 109 L142 109 L142 195 L222 195 L222 109 L248 109 L248 91 L222 91 L222 0 Q223 -24 195 -25 Q182 -25 168 -25 Q168 -24 167 -21 Q166 -12 164 -7 Q169 -7 178 -8 Q187 -8 191 -8 Q204 -9 203 3 L203 91 L160 91 L160 90 Q162 14 133 -29 Q125 -24 117 -18 Q144 20 142 90 L142 91 L111 91 L111 7 Q112 -16 87 -17 Q78 -17 61 -17 Q61 -14 59 -5 Q58 -1 58 0 Q61 0 68 0 Q77 0 81 0 Q94 -1 93 10 L93 91 L51 91 L51 80 Q53 13 25 -29 Q16 -23 8 -18 Q35 20 33 79 L33 91 L9 91 L9 109 ZM160 178 L160 109 L203 109 L203 178 L160 178 ZM51 178 L51 109 L93 109 L93 178 L51 178 Z" /><glyph glyph-name="" unicode="&#x518d;" d="M9 55 L40 55 L40 150 L119 150 L119 177 L17 177 L17 194 L239 194 L239 177 L138 177 L138 150 L216 150 L216 55 L248 55 L248 39 L216 39 L216 1 Q218 -25 188 -25 Q160 -25 152 -25 Q150 -17 148 -6 Q169 -8 182 -8 Q197 -9 197 3 L197 39 L59 39 L59 -28 L40 -28 L40 39 L9 39 L9 55 ZM59 134 L59 103 L119 103 L119 134 L59 134 ZM59 87 L59 55 L119 55 L119 87 L59 87 ZM197 134 L138 134 L138 103 L197 103 L197 134 ZM138 87 L138 55 L197 55 L197 87 L138 87 Z" /><glyph glyph-name="" unicode="&#x5192;" d="M42 101 L215 101 L215 -28 L197 -28 L197 -17 L60 -17 L60 -28 L42 -28 L42 101 ZM25 197 L232 197 L232 111 L214 111 L214 182 L43 182 L43 111 L25 111 L25 197 ZM60 17 L60 -2 L197 -2 L197 17 L60 17 ZM60 86 L60 66 L197 66 L197 86 L60 86 ZM60 51 L60 31 L197 31 L197 51 L60 51 ZM54 133 L203 133 L203 118 L54 118 L54 133 ZM54 164 L203 164 L203 150 L54 150 L54 164 Z" /><glyph glyph-name="" unicode="&#x5199;" d="M44 73 L64 169 L84 169 L79 140 L220 140 L220 122 L75 122 L69 92 L227 92 Q227 89 226 79 Q224 30 222 17 Q221 -27 175 -24 Q153 -25 128 -25 Q125 -6 124 -3 Q156 -5 172 -5 Q202 -8 202 19 Q205 33 206 73 L44 73 ZM18 194 L238 194 L238 148 L218 148 L218 176 L38 176 L38 148 L18 148 L18 194 ZM8 44 L187 44 L187 26 L8 26 L8 44 Z" /><glyph glyph-name="" unicode="&#x519b;" d="M11 28 L128 28 L128 61 L40 61 L40 78 Q56 99 71 125 L18 125 L18 142 L82 142 Q85 147 91 158 Q96 168 99 173 L118 167 Q111 154 103 142 L238 142 L238 125 L93 125 Q78 100 62 78 L128 78 L128 114 L147 114 L147 78 L226 78 L226 61 L147 61 L147 28 L247 28 L247 10 L147 10 L147 -29 L128 -29 L128 10 L11 10 L11 28 ZM20 196 L239 196 L239 153 L220 153 L220 179 L39 179 L39 153 L20 153 L20 196 Z" /><glyph glyph-name="" unicode="&#x519c;" d="M204 121 L216 105 Q189 86 162 71 Q191 33 250 12 Q247 9 240 0 Q237 -3 235 -5 Q144 33 117 118 Q105 96 87 77 L87 1 Q132 19 151 28 Q151 16 152 8 Q148 7 139 3 Q106 -9 91 -16 Q82 -19 73 -28 L59 -11 Q70 -5 69 8 L69 58 Q46 38 16 20 Q14 25 8 36 Q8 35 7 38 Q92 84 115 158 L45 158 L45 116 L27 116 L27 175 L119 175 Q122 186 125 204 Q125 206 125 207 L145 206 Q144 193 139 175 L234 175 L234 129 L217 129 L217 158 L134 158 Q131 149 128 141 Q137 109 151 86 Q164 93 192 113 Q200 118 204 121 Z" /><glyph glyph-name="" unicode="&#x51af;" d="M110 166 L104 98 L189 98 L195 181 L73 181 L73 198 L216 198 L207 98 L240 98 Q239 45 236 12 Q234 -24 193 -24 Q165 -24 146 -24 Q146 -21 144 -14 Q143 -6 142 -3 Q155 -5 191 -5 Q215 -5 217 16 Q220 45 220 81 L84 81 L92 166 L110 166 ZM66 46 L203 46 L203 29 L66 29 L66 46 ZM45 98 Q54 91 64 87 Q41 20 30 -13 L10 -3 Q30 39 45 98 ZM30 194 Q37 183 51 160 Q59 146 63 139 L44 128 Q29 160 14 185 L30 194 Z" /><glyph glyph-name="" unicode="&#x51b2;" d="M151 208 L170 208 L170 160 L234 160 L234 40 L215 40 L215 52 L170 52 L170 -28 L151 -28 L151 52 L106 52 L106 40 L87 40 L87 160 L151 160 L151 208 ZM106 143 L106 69 L151 69 L151 143 L106 143 ZM215 143 L170 143 L170 69 L215 69 L215 143 ZM47 95 Q50 94 55 91 Q63 87 67 86 Q65 80 60 65 Q39 4 30 -20 L10 -10 Q32 43 47 95 ZM29 197 Q34 189 45 175 Q60 154 67 143 L48 132 Q30 163 13 186 L29 197 Z" /><glyph glyph-name="" unicode="&#x51b3;" d="M138 207 L157 207 Q157 188 157 163 L219 163 L219 87 L248 87 L248 69 L160 69 Q181 16 244 -6 Q243 -7 242 -9 Q233 -20 230 -25 Q163 9 147 57 Q135 6 65 -29 Q55 -15 51 -11 Q122 21 132 69 L70 69 L70 87 L135 87 Q138 99 137 117 Q137 121 137 129 Q138 140 138 146 L83 146 L83 163 L138 163 Q138 187 138 207 ZM200 146 L157 146 Q157 139 156 127 Q156 119 156 116 Q156 99 155 87 L200 87 L200 146 ZM43 101 Q44 101 45 100 Q56 94 62 91 Q39 24 28 -9 L8 0 Q28 44 43 101 ZM28 192 Q33 187 41 178 Q60 159 70 147 L54 134 Q53 135 51 138 Q27 166 14 180 L28 192 Z" /><glyph glyph-name="" unicode="&#x51b5;" d="M122 84 L84 84 L84 195 L227 195 L227 84 L185 84 L185 9 Q185 -5 197 -4 L212 -4 Q225 -4 226 5 Q227 9 228 28 Q229 35 229 39 Q240 35 248 33 Q248 31 247 27 Q246 8 243 -1 Q239 -20 217 -21 L194 -21 Q165 -22 166 9 L166 84 L141 84 Q143 6 69 -30 Q66 -26 61 -19 Q57 -14 56 -13 Q125 19 122 84 ZM103 178 L103 101 L208 101 L208 178 L103 178 ZM50 95 Q61 89 69 83 Q61 65 44 24 Q32 -4 27 -16 L8 -4 Q32 41 50 95 ZM25 191 Q49 168 69 144 L52 129 Q31 157 10 178 L25 191 Z" /><glyph glyph-name="" unicode="&#x51bb;" d="M155 135 L174 135 L174 95 L243 95 L243 77 L174 77 L174 5 Q176 -25 144 -25 Q129 -25 117 -25 Q116 -17 113 -5 Q116 -5 124 -5 Q132 -6 137 -6 Q157 -8 155 10 L155 77 L81 77 L81 94 L110 158 L72 158 L72 175 L118 175 L134 212 L152 208 L138 175 L241 175 L241 158 L130 158 L102 95 L155 95 L155 135 ZM48 96 Q57 90 67 86 Q65 80 60 65 Q39 4 30 -20 L10 -9 Q27 25 48 96 ZM109 62 L126 52 Q103 13 77 -21 L61 -8 Q83 18 109 62 ZM206 62 Q222 40 250 -5 L233 -16 Q215 15 191 53 L206 62 ZM29 197 Q33 192 41 181 Q49 171 67 144 L49 132 Q32 161 13 186 L29 197 Z" /><glyph glyph-name="" unicode="&#x51c6;" d="M59 110 Q93 151 115 208 L133 202 Q127 187 116 167 L244 167 L244 150 L185 150 L185 113 L237 113 L237 97 L185 97 L185 59 L238 59 L238 43 L185 43 L185 6 L247 6 L247 -9 L111 -9 L111 -29 L92 -29 L92 125 Q81 107 72 95 Q66 104 59 110 ZM47 96 Q56 91 66 87 Q50 45 31 -11 L10 -1 Q26 34 47 96 ZM111 43 L111 6 L167 6 L167 43 L111 43 ZM111 97 L111 59 L167 59 L167 97 L111 97 ZM111 150 L111 113 L167 113 L167 150 L111 150 ZM24 195 Q45 172 65 145 L49 132 Q32 157 9 184 L24 195 ZM156 200 L171 210 Q181 199 194 180 L178 169 Q176 172 172 178 Q168 185 156 200 Z" /><glyph glyph-name="" unicode="&#x51cc;" d="M66 32 Q106 59 131 95 L148 90 Q142 83 136 75 L216 75 L216 60 Q198 32 173 12 Q199 0 247 -8 Q245 -11 243 -16 Q241 -18 236 -27 Q191 -17 156 1 Q121 -17 72 -31 Q70 -26 65 -19 Q63 -15 62 -13 Q117 0 140 13 Q124 27 110 46 Q95 31 80 19 Q78 22 72 27 Q68 30 66 32 ZM147 207 L166 207 L166 179 L231 179 L231 163 L166 163 L166 138 L243 138 L243 123 L71 123 L71 138 L147 138 L147 163 L83 163 L83 179 L147 179 L147 207 ZM41 87 Q51 80 60 78 Q43 28 31 -22 L11 -12 Q26 23 41 87 ZM123 59 L122 59 Q135 38 157 23 Q180 38 195 59 L123 59 ZM28 196 Q46 168 62 141 L45 131 Q44 133 42 136 Q23 171 12 187 L28 196 ZM131 106 Q130 105 127 103 Q98 82 77 69 Q75 72 71 77 Q67 82 64 84 Q93 99 118 119 L131 106 ZM178 104 L188 118 Q217 106 244 89 L234 73 Q216 86 178 104 Z" /><glyph glyph-name="" unicode="&#x51cf;" d="M92 106 Q92 55 85 29 Q79 2 58 -28 Q51 -20 43 -14 Q77 28 75 94 L75 168 L171 168 Q170 192 170 206 L188 206 Q188 192 188 168 L248 168 L248 152 L189 152 Q189 141 190 129 Q191 81 197 58 Q212 88 225 128 L242 122 Q222 66 202 33 Q210 6 216 0 Q219 -5 222 -4 Q226 -4 227 1 Q228 7 231 27 Q232 35 233 39 Q243 35 250 33 Q248 20 243 0 Q242 -4 242 -6 Q237 -24 225 -25 Q213 -25 203 -12 Q195 0 190 14 Q173 -6 152 -27 Q145 -21 136 -15 Q164 8 183 36 L183 37 Q176 67 173 126 Q173 130 172 139 Q172 148 171 152 L92 152 L92 106 ZM107 93 L162 93 L162 17 L107 17 L107 93 ZM8 3 Q24 45 40 98 Q49 94 58 90 Q54 78 43 45 Q31 8 27 -2 L8 3 ZM13 182 L29 191 Q54 152 62 136 L45 125 Q41 133 31 151 Q17 175 13 182 ZM123 78 L123 33 L146 33 L146 78 L123 78 ZM102 131 L163 131 L163 115 L102 115 L102 131 ZM200 197 L212 207 Q228 191 235 183 L221 172 Q216 179 200 197 Z" /><glyph glyph-name="" unicode="&#x51e0;" d="M61 194 L180 194 L180 16 Q179 -1 196 0 L206 0 Q223 -1 224 13 Q226 22 227 45 Q228 50 228 52 Q237 47 249 44 Q247 22 243 6 Q240 -20 208 -19 L193 -19 Q159 -21 161 15 L161 176 L81 176 L81 115 Q81 58 69 31 Q58 3 22 -25 Q16 -18 7 -8 Q40 15 50 39 Q61 62 61 111 L61 194 Z" /><glyph glyph-name="" unicode="&#x51ed;" d="M86 97 L147 97 L147 127 L76 127 L76 144 L147 144 L147 174 Q138 173 119 173 Q100 172 91 172 Q89 180 87 189 Q159 191 220 198 L223 180 Q214 179 190 177 Q174 176 166 175 L166 144 L245 144 L245 127 L166 127 L166 97 L232 97 L232 80 L86 80 L86 97 ZM176 59 L176 12 Q175 -6 192 -4 L202 -4 Q222 -5 224 7 Q227 23 228 41 Q236 37 247 33 Q246 19 241 0 Q238 -23 206 -22 L187 -22 Q154 -25 157 10 L157 43 L90 43 L90 38 Q96 -14 21 -30 Q16 -23 9 -13 Q79 0 71 41 L71 59 L176 59 ZM69 206 L85 197 Q79 188 68 173 Q64 167 62 164 L62 72 L44 72 L44 141 Q32 127 19 115 Q14 121 7 128 Q43 161 69 206 Z" /><glyph glyph-name="" unicode="&#x51fa;" d="M33 96 L33 183 L52 183 L52 114 L118 114 L118 205 L137 205 L137 114 L203 114 L203 183 L222 183 L222 96 L137 96 L137 1 L210 1 L210 70 L229 70 L229 -24 L210 -24 L210 -16 L27 -16 L27 70 L46 70 L46 1 L118 1 L118 96 L33 96 Z" /><glyph glyph-name="" unicode="&#x51fb;" d="M27 164 L118 164 L118 208 L138 208 L138 164 L230 164 L230 146 L138 146 L138 102 L247 102 L247 84 L138 84 L138 0 L204 0 L204 63 L223 63 L223 -28 L204 -28 L204 -18 L33 -18 L33 63 L52 63 L52 0 L118 0 L118 84 L9 84 L9 102 L118 102 L118 146 L27 146 L27 164 Z" /><glyph glyph-name="" unicode="&#x5206;" d="M39 101 L200 101 Q199 78 198 41 Q197 29 197 23 Q195 -23 151 -22 Q126 -22 112 -22 Q112 -14 109 -2 Q113 -2 125 -2 Q141 -3 149 -3 Q176 -5 177 25 Q179 63 179 83 L105 83 Q103 0 26 -31 Q23 -26 15 -17 Q14 -15 13 -14 Q84 9 85 83 L39 83 L39 101 ZM144 201 L162 209 Q189 144 250 112 Q240 101 234 94 Q171 134 144 201 ZM6 109 Q62 146 95 206 L112 196 Q77 133 20 93 Q14 100 6 109 Z" /><glyph glyph-name="" unicode="&#x5207;" d="M95 192 L236 192 Q234 111 229 21 Q229 -22 186 -21 Q164 -21 151 -21 Q150 -19 149 -14 Q146 -4 145 0 Q151 0 148 0 Q171 -1 184 -1 Q209 -3 209 21 Q214 107 215 174 L161 174 Q161 165 160 142 Q158 124 158 113 Q159 15 90 -29 Q88 -27 84 -23 Q77 -15 75 -14 Q140 26 139 110 Q139 118 140 136 Q141 162 142 174 L95 174 L95 192 ZM109 69 Q109 54 110 46 Q79 27 57 11 Q54 9 49 4 Q46 1 45 1 L31 19 Q41 27 40 41 L40 119 L9 115 L8 134 L40 138 L40 209 L59 209 L59 140 L108 145 L109 126 L59 121 L59 38 Q91 57 109 69 Z" /><glyph glyph-name="" unicode="&#x5212;" d="M7 1 Q40 19 64 40 Q54 70 51 120 L14 114 L11 131 L50 138 Q48 169 47 206 L67 206 Q67 172 69 141 L147 155 L149 138 L69 124 Q71 80 79 54 Q104 80 126 114 L142 104 Q121 71 86 34 Q98 3 115 -4 Q129 -12 132 1 Q135 20 137 38 Q149 34 156 32 Q151 5 148 -6 Q142 -27 125 -26 Q111 -26 99 -17 Q80 -2 71 21 Q48 2 21 -13 Q16 -7 7 1 ZM214 206 L233 206 L233 7 Q234 -25 202 -25 Q186 -25 169 -25 Q169 -22 167 -15 Q166 -8 165 -5 Q175 -6 197 -6 Q215 -7 214 10 L214 206 ZM182 35 L163 35 L163 183 L182 183 L182 35 ZM82 188 L93 200 Q113 186 125 174 L113 160 Q110 163 103 170 Q89 182 82 188 Z" /><glyph glyph-name="" unicode="&#x5217;" d="M8 68 Q54 118 69 179 L17 179 L17 196 L150 196 L150 179 L88 179 Q87 176 86 172 Q81 157 74 140 L137 140 L137 122 Q119 27 32 -27 Q24 -17 19 -13 Q102 36 118 123 L67 123 Q65 119 61 112 Q56 104 54 100 Q61 94 58 96 Q78 80 89 70 L77 55 Q63 69 44 85 Q42 82 37 75 Q34 71 20 54 Q18 56 14 61 Q10 66 8 68 ZM214 205 L233 205 L233 6 Q235 -25 203 -25 Q177 -25 166 -25 Q165 -14 162 -4 Q187 -5 197 -5 Q216 -6 214 13 L214 205 ZM179 30 L161 30 L161 178 L179 178 L179 30 Z" /><glyph glyph-name="" unicode="&#x5219;" d="M25 194 L132 194 L132 38 L114 38 L114 177 L43 177 L43 38 L25 38 L25 194 ZM70 159 L88 159 Q88 115 87 95 Q86 53 75 28 L88 39 Q100 30 129 5 Q142 -5 148 -10 L133 -24 Q96 10 75 27 Q63 -2 19 -30 Q18 -29 15 -25 Q8 -15 7 -14 Q44 7 55 28 Q67 48 69 95 Q69 107 69 126 Q70 146 70 159 ZM214 205 L232 205 L232 8 Q233 -25 201 -24 Q191 -25 166 -25 Q165 -18 164 -9 Q164 -10 163 -5 Q170 -6 197 -6 Q216 -8 214 10 L214 205 ZM183 34 L164 34 L164 183 L183 183 L183 34 Z" /><glyph glyph-name="" unicode="&#x521a;" d="M38 -26 L19 -26 L19 193 L150 193 L150 5 Q151 -23 123 -24 Q105 -24 88 -24 Q87 -12 85 -5 Q90 -6 117 -6 Q133 -6 132 6 L132 176 L38 176 L38 -26 ZM218 206 L237 206 L237 7 Q238 -26 206 -26 Q194 -26 175 -26 Q174 -20 171 -11 Q170 -8 170 -6 Q173 -6 182 -6 Q194 -7 199 -7 Q220 -8 218 9 L218 206 ZM41 148 L55 155 Q60 147 71 129 Q80 112 85 104 Q98 131 107 157 L124 151 Q110 119 95 86 Q105 68 122 37 Q125 31 126 29 L110 20 Q106 29 95 49 Q88 61 85 67 Q70 40 55 18 L40 28 Q61 58 75 86 Q58 116 41 148 ZM175 180 L193 180 L193 27 L175 27 L175 180 Z" /><glyph glyph-name="" unicode="&#x521b;" d="M102 205 Q99 201 96 196 Q122 174 154 142 L141 127 Q122 149 87 180 Q65 147 37 123 L136 123 Q136 103 134 71 Q133 38 97 39 Q75 39 69 39 Q68 50 66 58 Q84 57 96 57 Q116 56 115 74 Q116 79 116 90 Q117 100 117 106 L53 106 L53 13 Q51 -5 71 -3 L104 -3 Q125 -3 129 7 Q131 14 133 37 Q140 34 152 30 Q149 8 146 0 Q140 -22 109 -21 L67 -21 Q32 -23 34 11 L34 120 Q32 119 29 116 Q27 114 18 107 Q17 110 12 117 Q8 123 7 124 Q58 162 82 209 L102 205 ZM214 207 L233 207 L233 6 Q234 -25 203 -25 Q190 -25 166 -25 Q165 -15 162 -4 Q168 -4 180 -5 Q191 -5 196 -5 Q215 -6 214 10 L214 207 ZM182 34 L164 34 L164 183 L182 183 L182 34 Z" /><glyph glyph-name="" unicode="&#x521d;" d="M101 187 L236 187 Q234 106 230 21 Q230 -23 191 -21 Q176 -22 156 -22 Q155 -10 152 0 Q162 -1 187 -1 Q210 -3 210 23 Q214 77 216 168 L161 168 Q161 160 160 136 Q159 111 158 103 Q157 20 91 -28 Q78 -15 76 -13 Q138 31 138 107 Q140 151 140 168 L101 168 L101 187 ZM13 145 L13 163 L90 163 L90 145 Q76 120 61 102 L61 94 Q63 93 67 90 Q71 87 73 86 Q80 94 92 113 Q95 117 96 119 L112 109 Q110 107 107 101 Q94 84 87 76 Q99 67 111 58 L99 43 Q88 52 67 68 Q63 71 61 73 L61 -27 L43 -27 L43 79 Q30 65 13 50 Q10 60 7 71 Q42 101 69 145 L13 145 ZM38 201 L55 209 Q64 195 74 176 L56 167 Q46 186 38 201 Z" /><glyph glyph-name="" unicode="&#x5220;" d="M7 105 L27 105 L27 197 L82 197 L82 105 L102 105 L102 198 L158 198 L158 105 L176 105 L176 89 L158 89 L158 -4 Q159 -25 137 -25 Q129 -25 119 -25 Q119 -24 119 -22 Q118 -17 115 -8 Q121 -9 133 -9 Q142 -9 142 -1 L142 89 L118 89 L118 64 Q120 6 95 -29 Q90 -24 81 -18 Q104 15 102 64 L102 89 L82 89 L82 2 Q83 -19 61 -19 Q52 -19 43 -19 Q42 -11 40 -2 Q49 -3 57 -3 Q66 -4 66 4 L66 89 L42 89 L42 63 Q43 8 20 -28 Q12 -23 6 -17 Q29 15 27 66 L27 89 L7 89 L7 105 ZM218 207 L236 207 L236 3 Q237 -26 209 -25 Q195 -25 180 -25 Q180 -17 177 -5 Q185 -6 203 -6 Q219 -7 218 5 L218 207 ZM198 27 L181 27 L181 189 L198 189 L198 27 ZM118 183 L118 105 L142 105 L142 183 L118 183 ZM42 182 L42 105 L66 105 L66 182 L42 182 Z" /><glyph glyph-name="" unicode="&#x5224;" d="M17 123 L71 123 Q72 148 72 206 L91 206 Q91 152 90 123 L143 123 L143 106 L90 106 Q89 88 86 72 L147 72 L147 55 L83 55 Q73 8 31 -29 Q22 -20 16 -15 Q54 15 63 55 L12 55 L12 72 L67 72 Q70 87 71 106 L17 106 L17 123 ZM216 207 L235 207 L235 4 Q236 -26 203 -25 Q184 -25 170 -25 Q169 -15 166 -5 Q171 -5 182 -6 Q193 -6 197 -6 Q217 -7 216 11 L216 207 ZM165 179 L183 179 L183 31 L165 31 L165 179 ZM102 146 Q125 176 132 190 L149 180 Q147 177 144 172 Q127 148 116 135 L102 146 ZM15 180 L30 190 Q48 166 60 148 L43 136 Q27 165 15 180 Z" /><glyph glyph-name="" unicode="&#x5229;" d="M8 132 L67 132 L67 173 Q29 169 17 169 Q15 177 12 186 Q75 191 131 198 L135 181 Q132 181 118 179 Q97 177 84 175 L84 132 L139 132 L139 115 L84 115 L84 -28 L67 -28 L67 93 Q46 45 17 10 Q15 14 12 21 Q9 27 7 32 Q39 66 60 115 L8 115 L8 132 ZM215 204 L234 204 L234 4 Q236 -27 202 -26 Q179 -26 171 -26 Q168 -7 167 -4 Q186 -6 196 -6 Q216 -7 215 11 L215 204 ZM156 180 L174 180 L174 27 L156 27 L156 180 ZM86 82 L99 94 Q117 79 141 55 L126 40 Q115 54 86 82 Z" /><glyph glyph-name="" unicode="&#x522b;" d="M25 194 L135 194 L135 113 L25 113 L25 194 ZM16 84 L55 84 Q55 89 56 100 Q56 107 56 109 L75 109 Q74 94 74 84 L137 84 Q137 47 134 13 Q133 -24 96 -22 Q77 -24 65 -22 Q65 -19 63 -14 Q62 -6 61 -2 Q79 -4 93 -4 Q114 -5 116 16 Q118 42 118 67 L73 67 Q71 5 21 -29 Q15 -22 8 -13 Q52 16 54 67 L16 67 L16 84 ZM215 207 L234 207 L234 5 Q235 -25 203 -25 Q184 -27 166 -25 Q165 -15 162 -4 Q165 -4 175 -4 Q190 -5 196 -5 Q216 -6 215 13 L215 207 ZM43 177 L43 130 L117 130 L117 177 L43 177 ZM165 182 L183 182 L183 28 L165 28 L165 182 Z" /><glyph glyph-name="" unicode="&#x5230;" d="M113 164 Q134 132 151 102 Q142 98 133 93 Q132 96 129 102 Q126 107 124 110 Q107 109 69 106 Q56 105 50 104 Q46 104 38 102 Q29 101 25 100 L16 120 Q23 124 31 132 Q48 152 60 176 L12 176 L12 193 L152 193 L152 176 L82 176 Q64 146 45 121 Q64 122 108 125 Q77 123 115 126 Q112 132 105 143 Q100 150 98 154 L113 164 ZM72 99 L91 99 L91 69 L147 69 L147 52 L91 52 L91 8 Q121 13 150 16 Q150 6 151 -1 Q108 -6 13 -20 L8 0 Q37 2 72 6 L72 52 L15 52 L15 69 L72 69 L72 99 ZM218 208 L237 208 L237 5 Q239 -27 206 -25 Q182 -25 173 -25 Q172 -15 170 -3 Q190 -5 200 -5 Q220 -7 218 13 L218 208 ZM166 182 L184 182 L184 28 L166 28 L166 182 Z" /><glyph glyph-name="" unicode="&#x5236;" d="M8 120 L78 120 L78 152 L42 152 Q36 139 28 125 Q21 131 12 135 Q30 160 39 197 L56 193 Q55 189 53 181 Q50 173 49 169 L78 169 L78 206 L97 206 L97 169 L149 169 L149 152 L97 152 L97 120 L160 120 L160 103 L97 103 L97 76 L150 76 L150 18 Q151 -7 125 -7 Q116 -7 106 -7 Q105 -4 104 2 Q102 7 102 9 Q111 8 121 8 Q133 8 132 19 L132 59 L97 59 L97 -29 L78 -29 L78 59 L45 59 L45 -11 L27 -11 L27 76 L78 76 L78 103 L8 103 L8 120 ZM217 206 L235 206 L235 7 Q235 -24 205 -24 Q196 -25 174 -25 Q173 -15 170 -4 Q187 -5 199 -5 Q218 -6 217 9 L217 206 ZM188 34 L170 34 L170 183 L188 183 L188 34 Z" /><glyph glyph-name="" unicode="&#x5237;" d="M30 194 L156 194 L156 130 L47 130 L47 108 Q47 57 41 31 Q36 4 18 -23 Q13 -16 6 -9 Q32 26 30 107 L30 194 ZM115 -28 L100 -28 L100 84 L75 84 L75 -1 L59 -1 L59 99 L100 99 L100 123 L115 123 L115 99 L157 99 L157 22 Q157 0 140 0 Q136 0 126 0 Q123 0 122 0 Q121 7 119 15 Q120 15 123 15 Q130 14 132 14 Q142 14 142 25 L142 84 L115 84 L115 -28 ZM218 205 L234 205 L234 6 Q237 -25 207 -25 Q184 -25 175 -25 Q174 -14 171 -5 Q192 -7 201 -7 Q219 -8 218 11 L218 205 ZM47 178 L47 146 L140 146 L140 178 L47 178 ZM194 32 L177 32 L177 182 L194 182 L194 32 Z" /><glyph glyph-name="" unicode="&#x5238;" d="M167 168 Q184 185 197 203 L213 193 Q197 173 183 157 L233 157 L233 141 L125 141 Q119 126 112 114 L246 114 L246 97 L177 97 Q204 70 249 61 Q245 56 239 46 Q238 43 237 42 Q215 49 198 59 Q197 46 193 10 Q191 -25 146 -24 Q128 -24 115 -24 Q113 -14 110 -4 Q119 -5 145 -5 Q174 -6 174 12 Q174 16 175 25 Q177 42 177 48 L105 48 Q101 -11 24 -30 Q23 -29 22 -26 Q17 -19 13 -13 Q84 2 86 48 L52 48 L52 57 Q38 48 20 39 Q11 51 7 56 Q50 74 75 97 L11 97 L11 114 L90 114 Q99 126 105 141 L21 141 L21 157 L111 157 Q120 186 122 209 L141 208 Q138 185 130 157 L181 157 L167 168 ZM189 65 Q170 77 155 97 L100 97 Q80 74 64 65 L189 65 ZM42 192 L56 203 Q60 199 67 192 Q80 180 87 172 L72 159 Q65 167 52 181 Q45 188 42 192 Z" /><glyph glyph-name="" unicode="&#x523a;" d="M7 6 Q48 40 74 88 L74 122 L40 122 L40 62 L23 62 L23 138 L74 138 L74 165 L12 165 L12 182 L74 182 L74 207 L93 207 L93 182 L155 182 L155 165 L93 165 L93 138 L145 138 L145 86 Q146 62 121 63 Q112 62 102 62 Q101 71 99 80 Q110 79 119 79 Q128 79 127 88 L127 122 L93 122 L93 48 L102 56 Q113 47 134 28 Q145 19 150 14 L136 1 Q122 16 93 43 L93 -28 L74 -28 L74 59 Q51 21 19 -8 Q16 -4 11 1 Q8 4 7 6 ZM216 204 L235 204 L235 5 Q236 -25 204 -26 Q190 -26 172 -26 Q170 -20 168 -9 Q168 -7 168 -6 Q172 -6 181 -6 Q193 -7 198 -7 Q217 -8 216 9 L216 204 ZM169 179 L187 179 L187 27 L169 27 L169 179 Z" /><glyph glyph-name="" unicode="&#x523b;" d="M69 202 L87 209 Q90 204 95 194 Q100 185 102 180 L91 176 L155 176 L155 158 L83 158 Q61 125 45 105 Q50 105 63 105 Q81 106 90 106 Q102 125 110 143 L128 136 Q90 59 20 13 Q17 17 10 27 Q9 28 8 29 Q49 55 79 91 Q63 90 33 88 Q28 87 26 87 L21 103 Q25 107 31 114 Q45 131 60 158 L15 158 L15 176 L84 176 Q78 187 81 181 Q78 187 69 202 ZM216 204 L235 204 L235 4 Q236 -26 204 -25 Q199 -25 185 -24 Q175 -24 172 -24 Q172 -16 168 -5 Q188 -7 197 -7 Q217 -8 216 11 L216 204 ZM149 93 Q133 61 112 35 Q120 28 135 13 Q150 -1 157 -8 L142 -22 Q134 -12 115 6 Q105 16 100 22 Q74 -7 32 -30 Q31 -29 29 -26 Q23 -18 20 -14 Q95 23 132 101 L149 93 ZM169 179 L187 179 L187 27 L169 27 L169 179 Z" /><glyph glyph-name="" unicode="&#x524d;" d="M44 -29 L26 -29 L26 131 L129 131 L129 -2 Q131 -28 104 -26 Q92 -26 77 -26 Q76 -17 73 -8 Q76 -8 86 -8 Q96 -9 100 -9 Q112 -10 111 1 L111 30 L44 30 L44 -29 ZM152 177 Q166 194 174 210 L193 199 Q176 177 169 171 L247 171 L247 154 L10 154 L10 171 L89 171 Q87 174 83 179 Q73 193 68 199 L83 209 Q100 192 107 179 L94 171 L163 171 L152 177 ZM211 138 L229 138 L229 5 Q231 -25 200 -25 Q183 -26 169 -26 Q168 -15 166 -6 Q169 -6 176 -6 Q187 -7 194 -7 Q212 -8 211 10 L211 138 ZM159 127 L177 127 L177 18 L159 18 L159 127 ZM44 115 L44 88 L111 88 L111 115 L44 115 ZM44 73 L44 46 L111 46 L111 73 L44 73 Z" /><glyph glyph-name="" unicode="&#x5269;" d="M9 154 L79 154 L79 179 Q62 179 25 177 Q52 179 22 177 Q21 186 19 194 Q36 195 66 196 Q132 197 157 199 L161 183 Q130 182 96 180 L96 154 L167 154 L167 138 L96 138 L96 49 L106 58 Q114 52 140 30 Q156 17 162 12 L149 0 Q144 3 129 16 Q106 37 96 45 L96 -28 L79 -28 L79 46 Q58 12 22 -14 Q21 -13 19 -10 Q11 -2 8 0 Q57 31 79 74 L79 138 L9 138 L9 154 ZM220 207 L238 207 L238 5 Q239 -24 210 -24 Q193 -24 180 -24 Q179 -22 178 -14 Q177 -8 177 -6 Q186 -7 205 -7 Q221 -8 220 8 L220 207 ZM198 27 L181 27 L181 185 L198 185 L198 27 ZM114 127 L130 127 L130 111 Q148 116 163 122 L169 107 Q158 103 130 96 L130 81 Q130 72 139 72 L143 72 Q152 72 153 80 Q156 92 156 100 Q159 99 165 96 Q169 94 171 93 Q170 91 169 84 Q168 79 168 77 Q165 56 144 57 L137 57 Q114 57 114 80 L114 127 ZM10 114 L46 114 L46 127 L62 127 L62 55 L46 55 L46 67 Q20 61 11 59 L7 76 Q27 79 46 82 L46 99 L10 99 L10 114 Z" /><glyph glyph-name="" unicode="&#x5272;" d="M26 49 L143 49 L143 -24 L125 -24 L125 -14 L44 -14 L44 -24 L26 -24 L26 49 ZM21 147 L76 147 L76 162 L93 162 L93 147 L149 147 L149 132 L93 132 L93 114 L142 114 L142 100 L93 100 L93 82 L156 82 L156 67 L93 67 L93 53 L76 53 L76 67 L14 67 L14 82 L76 82 L76 100 L28 100 L28 114 L76 114 L76 132 L21 132 L21 147 ZM220 207 L237 207 L237 8 Q239 -24 207 -24 Q203 -24 192 -24 Q181 -25 176 -25 Q176 -18 173 -5 Q179 -6 203 -6 Q221 -8 220 9 L220 207 ZM70 207 L87 209 Q88 205 90 195 Q91 188 92 184 L156 184 L156 153 L139 153 L139 169 L30 169 L30 153 L13 153 L13 184 L74 184 Q74 188 72 196 Q71 204 70 207 ZM44 33 L44 0 L125 0 L125 33 L44 33 ZM190 27 L173 27 L173 182 L190 182 L190 27 Z" /><glyph glyph-name="" unicode="&#x529b;" d="M102 208 L124 208 Q123 180 122 154 L230 154 Q227 73 226 34 Q226 -25 175 -21 Q145 -21 132 -21 Q132 -20 132 -19 Q130 -4 128 0 Q150 0 174 0 Q206 -3 205 38 Q207 74 209 134 L122 134 Q121 19 24 -27 Q17 -19 9 -10 Q104 36 100 134 L20 134 L20 154 L101 154 Q101 169 102 196 Q102 206 102 208 Z" /><glyph glyph-name="" unicode="&#x529e;" d="M96 208 L117 208 Q117 208 117 201 Q116 180 115 163 L202 163 Q200 73 199 33 Q198 -24 151 -21 Q119 -21 110 -21 Q108 -3 107 0 Q113 0 127 0 Q143 0 150 0 Q179 -3 179 38 Q182 93 182 144 L114 144 Q116 15 25 -28 Q19 -19 13 -11 Q63 20 76 48 Q91 75 94 144 L22 144 L22 163 L95 163 Q96 186 96 208 ZM42 121 L61 114 Q49 83 27 41 Q19 45 8 50 Q26 80 42 121 ZM206 114 L224 120 Q237 86 249 55 L229 48 Q218 83 206 114 Z" /><glyph glyph-name="" unicode="&#x529f;" d="M140 207 L159 207 Q159 179 158 156 L235 156 Q233 46 231 19 Q230 -27 189 -24 Q184 -24 167 -23 Q153 -23 150 -23 Q148 -12 146 -1 Q161 -4 188 -4 Q211 -6 211 19 Q213 50 215 137 L158 137 Q157 128 157 118 Q157 15 79 -29 Q73 -22 65 -13 Q138 25 138 119 Q138 127 138 137 L102 137 L102 156 L139 156 Q139 169 140 193 Q140 204 140 207 ZM7 34 Q30 38 47 43 L47 159 L10 159 L10 178 L107 178 L107 159 L67 159 L67 48 Q80 51 103 57 Q106 58 107 58 Q108 46 109 39 Q59 27 13 13 L7 34 Z" /><glyph glyph-name="" unicode="&#x52a0;" d="M146 176 L238 176 L238 -22 L219 -22 L219 1 L165 1 L165 -22 L146 -22 L146 176 ZM48 207 L67 207 Q67 199 66 184 Q66 170 66 164 L122 164 Q122 101 119 15 Q118 -23 83 -22 Q72 -22 58 -22 Q58 -13 55 -1 Q70 -2 81 -2 Q100 -3 100 16 Q103 76 103 145 L66 145 Q67 25 20 -29 Q19 -27 11 -21 Q7 -17 5 -15 Q30 18 37 48 Q45 76 46 145 L13 145 L13 164 L47 164 Q47 170 47 184 Q48 199 48 207 ZM165 158 L165 18 L219 18 L219 158 L165 158 Z" /><glyph glyph-name="" unicode="&#x52a1;" d="M82 211 L100 203 Q97 200 92 193 Q89 188 87 186 L216 186 L216 169 Q188 140 153 122 Q195 106 250 103 Q243 92 237 83 Q174 92 132 111 Q86 93 15 79 Q11 88 5 96 Q65 105 111 122 Q85 138 67 162 Q43 136 25 121 Q18 128 12 134 Q53 166 82 211 ZM27 69 L98 69 Q98 70 98 71 Q100 82 100 95 L120 95 Q119 81 117 69 L214 69 Q214 59 212 37 Q211 26 211 21 Q212 -27 164 -24 Q142 -24 126 -24 Q126 -22 125 -18 Q124 -7 123 -4 Q129 -5 143 -5 Q155 -6 163 -6 Q192 -9 193 22 Q193 26 194 37 Q194 49 194 52 L114 52 Q102 -4 24 -31 Q18 -23 12 -15 Q83 7 94 52 L27 52 L27 69 ZM189 169 L82 169 Q102 146 132 131 Q165 147 189 169 Z" /><glyph glyph-name="" unicode="&#x52a8;" d="M157 208 L177 208 Q177 198 176 180 Q176 165 176 157 L240 157 Q240 154 240 148 Q238 46 236 19 Q235 -22 199 -22 Q185 -22 171 -22 Q169 -12 167 -1 Q187 -3 197 -3 Q216 -3 217 19 Q221 89 221 140 L175 140 Q175 130 175 119 Q174 24 119 -30 Q113 -22 104 -14 Q154 27 156 119 Q156 128 156 140 L119 140 L119 157 L157 157 Q157 182 157 208 ZM94 74 Q105 51 121 15 Q119 18 123 9 Q119 8 110 4 Q106 2 104 1 Q103 6 101 10 Q58 6 18 0 L9 20 Q20 27 26 41 Q39 69 51 101 L9 101 L9 119 L126 119 L126 101 L71 101 Q53 53 35 21 Q50 22 83 25 Q91 26 95 26 Q92 33 86 47 Q81 60 78 67 L94 74 ZM20 187 L117 187 L117 169 L20 169 L20 187 Z" /><glyph glyph-name="" unicode="&#x52a9;" d="M8 13 Q17 15 28 15 L28 191 L113 191 L113 26 Q122 28 129 29 Q129 27 129 21 Q128 15 128 12 Q114 10 70 4 Q26 -2 11 -4 L8 13 ZM157 206 L176 206 Q176 204 176 197 Q175 171 175 155 L235 155 Q233 69 230 16 Q231 -25 195 -24 Q180 -24 164 -24 Q164 -19 162 -11 Q161 -4 161 -2 Q179 -4 191 -4 Q212 -5 212 19 Q216 81 216 138 L174 138 Q174 127 173 118 Q174 14 120 -29 Q115 -24 105 -16 Q155 19 155 118 Q155 121 155 127 Q156 134 156 138 L126 138 L126 155 L156 155 Q157 177 157 206 ZM46 18 Q54 19 71 21 Q88 23 96 24 L96 63 L46 63 L46 18 ZM46 175 L46 135 L96 135 L96 175 L46 175 ZM46 119 L46 79 L96 79 L96 119 L46 119 Z" /><glyph glyph-name="" unicode="&#x52b1;" d="M171 207 L189 207 Q188 181 188 157 L238 157 Q235 49 234 18 Q233 -25 200 -22 Q192 -23 176 -23 Q175 -11 173 -2 Q178 -3 198 -3 Q216 -6 216 18 Q218 50 219 139 L188 139 Q187 119 187 108 Q187 15 144 -30 Q142 -27 138 -23 Q133 -17 131 -15 Q169 24 170 104 Q170 116 170 139 L150 139 L150 157 L171 157 Q171 202 171 207 ZM51 146 L142 146 L142 130 L89 130 Q89 109 88 94 L135 94 Q134 81 133 49 Q132 26 132 15 Q133 -22 101 -21 Q93 -21 83 -21 Q82 -8 80 -3 Q84 -4 99 -4 Q115 -6 115 15 Q116 37 118 78 L88 78 Q86 3 55 -28 Q49 -22 42 -14 Q61 8 66 33 Q71 54 72 130 L51 130 L51 146 ZM45 175 L45 101 Q46 7 23 -28 Q17 -22 8 -15 Q29 14 27 102 L27 192 L146 192 L146 175 L45 175 Z" /><glyph glyph-name="" unicode="&#x52b2;" d="M125 156 L157 156 Q157 190 157 208 L177 208 Q176 196 176 156 L236 156 Q236 133 233 35 Q232 20 232 14 Q233 -24 195 -23 Q179 -23 169 -23 Q168 -13 165 -3 Q176 -4 194 -4 Q213 -5 213 15 Q216 66 217 138 L175 138 Q175 121 175 109 Q175 11 128 -28 Q116 -16 113 -14 Q156 21 156 105 Q156 124 157 138 L125 138 L125 156 ZM140 107 L128 91 Q100 111 76 126 Q54 107 17 90 Q16 92 7 107 Q69 133 96 175 L20 175 L20 192 L118 192 L118 176 Q105 155 90 139 Q98 134 118 121 Q134 111 140 107 ZM9 10 Q19 11 49 15 Q58 16 62 17 L62 66 L18 66 L18 83 L123 83 L123 66 L81 66 L81 19 Q89 20 104 23 Q121 25 129 27 Q129 25 129 8 Q125 7 118 6 Q43 -2 14 -8 L9 10 Z" /><glyph glyph-name="" unicode="&#x52bf;" d="M25 59 L102 59 Q102 66 102 74 L121 74 Q121 71 120 66 Q120 61 120 59 L219 59 Q219 50 217 19 Q216 13 216 10 Q215 -25 171 -22 Q154 -23 131 -22 Q129 -12 126 -1 Q126 -1 129 -1 Q154 -3 169 -3 Q198 -5 197 12 Q199 27 199 42 L117 42 Q112 -8 22 -29 Q17 -22 10 -12 Q91 2 99 42 L25 42 L25 59 ZM142 209 L159 209 L159 177 L209 177 Q209 132 211 113 Q214 91 223 93 Q230 95 231 131 Q233 130 236 129 Q243 126 248 124 Q245 70 221 72 Q199 72 195 102 Q191 129 191 161 L159 161 Q158 141 152 126 Q169 117 183 108 L172 92 Q167 95 157 102 Q148 108 144 111 Q131 89 95 71 Q89 79 82 86 Q118 103 129 120 Q117 126 107 132 L116 145 L136 135 Q141 146 141 161 L113 161 L113 177 L142 177 L142 209 ZM14 125 Q25 127 55 133 L55 159 L16 159 L16 175 L55 175 L55 209 L72 209 L72 175 L101 175 L101 159 L72 159 L72 136 Q77 137 85 139 Q97 141 102 142 Q102 133 102 125 Q100 125 96 124 Q82 122 72 120 L72 97 Q74 69 47 70 Q30 70 24 70 Q23 80 20 88 Q39 87 45 87 Q56 85 55 100 L55 116 Q36 112 18 108 L14 125 Z" /><glyph glyph-name="" unicode="&#x52c3;" d="M171 206 L189 206 Q189 202 189 189 Q188 167 188 155 L242 155 Q242 125 238 21 Q238 25 238 14 Q237 -24 203 -23 Q195 -24 175 -24 Q174 -14 171 -4 Q184 -6 199 -6 Q220 -7 220 15 Q222 48 224 138 L188 138 Q187 128 187 117 Q187 17 128 -28 Q123 -19 115 -13 Q169 26 170 118 Q170 127 170 138 L142 138 L142 155 L170 155 Q170 166 171 188 Q171 201 171 206 ZM12 45 Q29 48 68 51 L68 61 L95 86 L36 86 L36 101 L116 101 L116 86 L86 57 L86 53 Q122 57 137 59 Q137 53 137 42 Q126 41 103 38 Q92 37 86 36 L86 5 Q87 -26 56 -25 Q38 -26 34 -26 Q33 -11 31 -6 Q39 -7 54 -7 Q68 -7 68 7 L68 34 Q58 33 39 31 Q22 29 15 28 L12 45 ZM13 141 L67 141 L67 165 L21 165 L21 180 L67 180 L67 205 L84 205 L84 180 L130 180 L130 165 L84 165 L84 141 L138 141 L138 100 L122 100 L122 125 L29 125 L29 100 L13 100 L13 141 Z" /><glyph glyph-name="" unicode="&#x52df;" d="M15 75 L84 75 Q92 83 99 90 L42 90 L42 160 L214 160 L214 90 L119 90 Q113 83 106 75 L241 75 L241 61 L184 61 Q210 44 250 32 Q244 23 239 16 Q188 37 163 61 L91 61 Q66 39 17 14 Q12 21 6 29 Q41 44 66 61 L15 61 L15 75 ZM57 35 L102 35 Q103 44 103 54 L121 54 Q121 44 119 35 L193 35 Q194 19 191 1 Q190 -26 161 -26 Q138 -26 130 -26 Q129 -18 126 -8 Q133 -9 157 -9 Q173 -10 174 3 Q174 7 175 14 Q175 20 175 22 L116 22 Q108 -12 44 -29 Q37 -19 34 -14 Q91 -3 98 22 L57 22 L57 35 ZM155 207 L172 207 L172 190 L243 190 L243 176 L172 176 L172 164 L155 164 L155 176 L101 176 L101 164 L84 164 L84 176 L13 176 L13 190 L84 190 L84 207 L101 207 L101 190 L155 190 L155 207 ZM58 119 L58 103 L198 103 L198 119 L58 119 ZM58 147 L58 131 L198 131 L198 147 L58 147 Z" /><glyph glyph-name="" unicode="&#x52fa;" d="M74 208 L94 202 Q86 184 78 170 L229 170 Q227 65 225 29 Q224 -24 175 -23 Q133 -23 123 -23 Q122 -17 119 -2 Q134 -3 173 -3 Q206 -6 207 33 Q208 68 209 151 L68 151 Q52 123 25 94 Q18 101 9 109 Q49 149 74 208 ZM83 119 Q115 86 139 59 L120 42 Q94 77 67 106 L83 119 Z" /><glyph glyph-name="" unicode="&#x52fe;" d="M73 208 L94 202 Q87 184 79 171 L229 171 Q227 65 225 29 Q225 -25 175 -23 Q155 -24 123 -22 Q121 -14 119 -1 Q152 -4 173 -3 Q207 -6 206 33 Q208 68 209 152 L69 152 Q53 124 25 94 Q18 101 9 110 Q50 149 73 208 ZM140 97 Q153 76 181 29 L161 19 Q160 22 157 27 Q155 32 153 34 Q139 33 109 30 Q77 28 63 26 Q56 25 44 21 L33 42 Q47 51 54 61 Q87 113 99 140 L119 132 Q95 86 66 46 Q110 48 144 51 Q134 70 123 88 L140 97 Z" /><glyph glyph-name="" unicode="&#x52ff;" d="M74 209 L94 203 Q92 198 88 188 Q82 176 80 170 L234 170 Q230 66 228 30 Q228 -22 179 -20 Q148 -20 137 -20 Q135 -4 133 0 Q148 0 178 0 Q208 -3 209 32 Q210 59 214 153 L181 153 Q173 28 69 -28 Q63 -19 56 -11 Q152 42 161 153 L123 153 Q110 63 26 11 Q22 17 16 24 Q14 27 13 28 Q90 74 104 153 L71 153 Q55 122 24 91 Q18 97 9 105 Q51 144 74 209 Z" /><glyph glyph-name="" unicode="&#x5305;" d="M69 210 L89 204 Q87 200 84 192 Q80 184 78 180 L217 180 Q216 125 213 65 Q213 20 170 22 Q156 21 138 21 Q138 29 134 41 Q136 41 144 41 Q161 40 170 40 Q194 39 194 63 Q197 110 197 163 L69 163 Q60 147 50 132 L151 132 L151 60 L63 60 L63 16 Q62 -3 85 -2 L195 -2 Q220 -3 223 11 Q225 19 228 39 Q229 45 229 48 Q246 41 248 41 Q245 20 242 5 Q235 -21 199 -20 L81 -20 Q43 -21 44 15 L44 123 Q32 108 19 93 Q15 100 7 109 Q49 157 69 210 ZM63 116 L63 77 L132 77 L132 116 L63 116 Z" /><glyph glyph-name="" unicode="&#x5316;" d="M76 59 Q106 73 135 93 L135 203 L155 203 L155 107 Q194 139 221 177 L239 165 Q205 120 155 82 L155 17 Q154 -3 175 -1 L201 -1 Q221 -2 223 12 Q227 34 227 57 Q238 53 249 50 Q246 25 243 6 Q239 -21 203 -20 L172 -20 Q134 -21 135 15 L135 69 Q118 56 87 41 Q80 54 76 59 ZM6 88 Q48 141 70 207 L91 201 Q81 174 67 146 L67 -27 L46 -27 L46 110 Q31 85 17 67 Q14 73 9 82 Q7 86 6 88 Z" /><glyph glyph-name="" unicode="&#x5317;" d="M150 205 L169 205 L169 123 Q207 144 231 161 L243 143 Q221 129 169 103 L169 16 Q168 -2 187 -1 L202 -1 Q223 -2 224 13 Q226 21 228 50 Q228 53 228 54 Q243 47 248 46 Q248 44 247 38 Q245 18 243 7 Q238 -20 205 -20 L184 -20 Q150 -20 150 14 L150 205 ZM12 137 L82 137 L82 205 L101 205 L101 -26 L82 -26 L82 23 Q78 21 67 17 Q31 1 15 -4 L7 14 Q32 22 82 42 L82 119 L12 119 L12 137 Z" /><glyph glyph-name="" unicode="&#x5339;" d="M27 190 L241 190 L241 171 L177 171 L177 74 Q176 58 192 59 L199 59 Q217 58 217 72 Q220 86 220 105 Q228 102 238 99 Q240 98 241 98 Q240 91 238 77 Q237 69 237 66 Q231 39 202 40 L189 40 Q155 38 157 73 L157 171 L116 171 Q116 98 107 75 Q100 50 66 30 Q60 37 51 45 Q83 65 89 85 Q97 103 96 171 L47 171 L47 1 L245 1 L245 -16 L27 -16 L27 190 Z" /><glyph glyph-name="" unicode="&#x533a;" d="M28 191 L236 191 L236 172 L47 172 L47 3 L239 3 L239 -14 L28 -14 L28 191 ZM67 145 L79 158 Q90 149 114 128 Q133 111 143 102 Q170 131 192 163 L209 151 Q185 119 157 89 Q201 49 220 31 L204 14 Q175 45 143 75 Q111 41 72 12 Q70 15 65 20 Q60 26 58 28 Q96 54 129 88 Q100 115 67 145 Z" /><glyph glyph-name="" unicode="&#x533b;" d="M27 196 L242 196 L242 178 L46 178 L46 0 L245 0 L245 -18 L27 -18 L27 196 ZM102 175 L120 168 Q117 163 113 154 Q111 150 110 148 L227 148 L227 131 L160 131 Q160 111 158 92 L237 92 L237 75 L155 75 Q155 74 154 72 Q154 69 153 68 Q185 50 230 22 L218 5 Q190 25 146 53 Q126 22 71 2 Q66 10 60 18 Q127 42 135 75 L60 75 L60 92 L140 92 Q141 101 141 131 L100 131 Q90 113 77 97 Q70 103 62 109 Q87 136 102 175 Z" /><glyph glyph-name="" unicode="&#x5341;" d="M117 207 L139 207 L139 117 L246 117 L246 98 L139 98 L139 -28 L117 -28 L117 98 L10 98 L10 117 L117 117 L117 207 Z" /><glyph glyph-name="" unicode="&#x5343;" d="M30 164 Q28 172 26 184 Q147 188 225 196 L228 176 Q186 172 138 169 L138 102 L243 102 L243 83 L138 83 L138 -27 L118 -27 L118 83 L13 83 L13 102 L118 102 L118 168 Q76 165 30 164 Z" /><glyph glyph-name="" unicode="&#x5347;" d="M170 207 L189 207 L189 104 L247 104 L247 86 L189 86 L189 -27 L170 -27 L170 86 L92 86 Q97 4 25 -30 Q23 -27 18 -22 Q14 -16 11 -13 Q77 15 73 86 L9 86 L9 104 L73 104 L73 169 Q63 168 43 166 Q27 165 18 164 Q17 172 15 183 Q90 188 146 197 L151 179 Q139 177 114 174 Q100 172 92 171 L92 104 L170 104 L170 207 Z" /><glyph glyph-name="" unicode="&#x534a;" d="M118 208 L137 208 L137 118 L237 118 L237 99 L137 99 L137 60 L247 60 L247 41 L137 41 L137 -28 L118 -28 L118 41 L9 41 L9 60 L118 60 L118 99 L19 99 L19 118 L118 118 L118 208 ZM166 143 Q181 157 206 185 Q209 188 211 190 L228 177 Q213 160 185 134 Q182 131 181 130 L166 143 ZM28 178 L42 190 Q63 171 87 144 L71 130 Q57 147 32 174 Q29 177 28 178 Z" /><glyph glyph-name="" unicode="&#x534e;" d="M80 124 Q111 132 138 144 L138 205 L157 205 L157 152 Q193 170 220 193 L232 179 Q197 151 157 133 L157 115 Q155 95 177 97 L201 97 Q221 96 223 112 Q226 123 227 140 Q239 135 246 134 Q246 132 245 128 Q242 110 240 104 Q237 79 204 80 L174 80 Q136 78 138 114 L138 124 Q116 115 89 106 Q88 110 83 118 Q81 122 80 124 ZM118 80 L137 80 L137 48 L245 48 L245 31 L137 31 L137 -30 L118 -30 L118 31 L11 31 L11 48 L118 48 L118 80 ZM9 133 Q52 163 78 209 L95 201 Q85 183 72 168 L72 73 L54 73 L54 146 Q37 130 19 116 Q15 125 9 133 Z" /><glyph glyph-name="" unicode="&#x534f;" d="M134 207 L153 207 Q153 197 152 180 Q152 165 152 158 L209 158 Q206 45 205 18 Q203 -26 168 -23 Q150 -23 143 -23 Q142 -9 139 -3 Q151 -4 167 -4 Q186 -6 186 18 Q188 51 190 139 L151 139 Q151 129 150 118 Q150 23 90 -27 Q84 -20 76 -12 Q133 33 132 119 Q132 128 133 139 L90 139 L90 158 L133 158 Q134 183 134 207 ZM34 206 L53 206 L53 137 L76 137 L76 119 L53 119 L53 -28 L34 -28 L34 119 L8 119 L8 137 L34 137 L34 206 ZM97 115 L113 109 Q102 78 85 41 Q78 45 69 48 Q83 76 97 115 ZM210 110 L227 115 Q229 108 234 94 Q237 85 249 52 L231 46 Q222 80 210 110 Z" /><glyph glyph-name="" unicode="&#x5353;" d="M11 30 L118 30 L118 55 L45 55 L45 152 L114 152 L114 207 L133 207 L133 189 L233 189 L233 173 L133 173 L133 152 L212 152 L212 55 L136 55 L136 30 L247 30 L247 14 L136 14 L136 -28 L118 -28 L118 14 L11 14 L11 30 ZM63 96 L63 71 L194 71 L194 96 L63 96 ZM63 136 L63 111 L194 111 L194 136 L63 136 Z" /><glyph glyph-name="" unicode="&#x5355;" d="M9 37 L119 37 L119 63 L33 63 L33 171 L84 171 Q80 176 70 186 Q62 195 57 200 L72 210 Q89 194 102 179 L89 171 L151 171 Q166 189 180 209 L198 200 Q194 195 186 186 Q178 176 174 171 L223 171 L223 63 L137 63 L137 37 L247 37 L247 20 L137 20 L137 -29 L119 -29 L119 20 L9 20 L9 37 ZM137 109 L137 80 L205 80 L205 109 L137 109 ZM51 109 L51 80 L119 80 L119 109 L51 109 ZM205 154 L137 154 L137 125 L205 125 L205 154 ZM51 154 L51 125 L119 125 L119 154 L51 154 Z" /><glyph glyph-name="" unicode="&#x5356;" d="M144 114 L163 114 Q162 70 155 50 L243 50 L243 32 L147 32 L144 28 Q178 16 243 -10 L233 -27 Q182 -4 133 14 Q105 -11 18 -28 Q15 -19 8 -10 Q104 5 124 32 L13 32 L13 50 L134 50 Q143 67 144 114 ZM118 208 L137 208 L137 183 L226 183 L226 166 L137 166 L137 140 L236 140 L236 122 L217 89 Q214 91 204 94 Q201 96 200 96 L216 123 L17 123 L17 140 L118 140 L118 166 L31 166 L31 183 L118 183 L118 208 ZM38 89 Q71 80 104 69 L98 54 Q63 66 31 74 L38 89 ZM56 116 Q67 113 89 107 Q111 100 121 97 L114 81 Q84 92 49 102 L56 116 Z" /><glyph glyph-name="" unicode="&#x5357;" d="M118 207 L137 207 L137 179 L245 179 L245 162 L137 162 L137 137 L232 137 L232 0 Q232 -26 203 -27 Q187 -27 165 -27 Q163 -18 160 -7 Q166 -7 177 -7 Q189 -8 196 -8 Q214 -8 213 3 L213 121 L45 121 L45 -28 L26 -28 L26 137 L118 137 L118 162 L10 162 L10 179 L118 179 L118 207 ZM55 38 L119 38 L119 65 L62 65 L62 80 L99 80 Q90 95 79 108 L93 118 Q95 115 101 108 Q104 105 115 90 L101 80 L138 80 Q145 90 157 110 Q160 115 162 118 L179 108 Q169 95 157 80 L195 80 L195 65 L138 65 L138 38 L203 38 L203 22 L138 22 L138 -23 L119 -23 L119 22 L55 22 L55 38 Z" /><glyph glyph-name="" unicode="&#x535a;" d="M210 58 L210 71 L165 71 L165 56 L148 56 L148 71 L102 71 L102 53 L85 53 L85 148 L148 148 L148 164 L73 164 L73 180 L148 180 L148 208 L165 208 L165 180 L206 180 Q193 193 185 200 L196 210 Q200 206 207 200 Q215 193 219 189 L209 180 L242 180 L242 164 L165 164 L165 148 L227 148 L227 58 L210 58 ZM32 208 L50 208 L50 139 L73 139 L73 122 L50 122 L50 -29 L32 -29 L32 122 L8 122 L8 139 L32 139 L32 208 ZM67 43 L191 43 L191 57 L209 57 L209 43 L248 43 L248 28 L209 28 L209 0 Q210 -26 179 -26 Q161 -26 146 -26 Q145 -19 143 -8 Q149 -8 160 -9 Q172 -9 177 -9 Q192 -9 191 2 L191 28 L67 28 L67 43 ZM102 133 L102 117 L148 117 L148 133 L102 133 ZM102 102 L102 86 L148 86 L148 102 L102 102 ZM165 102 L165 86 L210 86 L210 102 L165 102 ZM210 133 L165 133 L165 117 L210 117 L210 133 ZM95 14 L106 26 Q124 15 140 3 L128 -8 Q114 3 95 14 Z" /><glyph glyph-name="" unicode="&#x5360;" d="M112 206 L132 206 L132 165 L242 165 L242 146 L132 146 L132 97 L218 97 L218 -29 L199 -29 L199 -14 L57 -14 L57 -29 L38 -29 L38 97 L112 97 L112 206 ZM57 78 L57 3 L199 3 L199 78 L57 78 Z" /><glyph glyph-name="" unicode="&#x5361;" d="M109 208 L128 208 L128 172 L230 172 L230 154 L128 154 L128 116 L246 116 L246 97 L12 97 L12 116 L109 116 L109 208 ZM136 74 Q190 49 231 27 L220 9 Q158 43 128 58 L128 -28 L108 -28 L108 89 L128 89 L128 61 L136 74 Z" /><glyph glyph-name="" unicode="&#x5370;" d="M132 190 L234 190 L234 44 Q235 11 204 12 Q191 11 167 11 Q167 15 166 22 Q165 30 164 33 Q174 32 198 32 Q216 31 215 48 L215 171 L151 171 L151 -28 L132 -28 L132 190 ZM122 192 Q102 186 57 176 Q46 174 42 173 L42 118 L116 118 L116 100 L42 100 L42 24 Q50 27 67 33 Q100 44 117 50 Q117 46 118 40 Q118 32 119 29 Q79 17 43 2 Q36 0 28 -5 L16 10 Q23 18 23 31 L23 187 Q72 197 115 209 L122 192 Z" /><glyph glyph-name="" unicode="&#x5371;" d="M7 140 Q49 167 82 209 L101 206 Q95 197 88 189 L197 189 L197 173 Q186 161 169 144 L245 144 L245 127 L57 127 L57 94 Q57 47 50 22 Q42 -3 21 -30 Q16 -25 6 -17 Q26 6 33 27 Q39 47 39 89 L39 140 Q30 133 19 125 Q18 126 15 130 Q9 137 7 140 ZM106 87 L106 15 Q105 -3 125 -2 L194 -2 Q215 -2 219 11 Q222 23 224 43 Q226 42 230 40 Q234 38 243 35 Q241 19 237 3 Q230 -18 199 -18 L121 -18 Q87 -19 88 13 L88 103 L206 103 Q205 78 202 56 Q202 26 169 26 Q163 25 143 25 Q143 26 143 27 Q142 35 139 44 Q142 44 151 44 Q163 43 167 43 Q185 42 185 58 Q186 73 186 87 L106 87 ZM173 172 L73 172 Q59 157 44 144 L146 144 Q151 149 161 160 Q169 168 173 172 Z" /><glyph glyph-name="" unicode="&#x5373;" d="M89 67 Q124 27 139 5 L123 -5 Q117 4 105 19 Q101 17 94 14 Q72 4 44 -8 Q37 -12 29 -18 L16 -3 Q24 2 24 14 L24 193 L121 193 L121 74 L42 74 L42 8 Q60 17 94 33 Q88 41 76 55 Q75 57 75 57 L89 67 ZM148 190 L233 190 L233 45 Q234 12 203 13 Q190 12 176 12 Q175 23 172 33 Q188 32 198 32 Q216 31 215 47 L215 172 L167 172 L167 -28 L148 -28 L148 190 ZM42 176 L42 142 L103 142 L103 176 L42 176 ZM42 91 L103 91 L103 125 L42 125 L42 91 Z" /><glyph glyph-name="" unicode="&#x5377;" d="M122 209 L142 209 Q140 198 135 177 Q132 165 130 158 L233 158 L233 142 L124 142 Q119 129 113 117 L246 117 L246 101 L176 101 Q204 71 250 61 Q243 52 237 42 Q207 53 186 69 Q186 65 185 55 Q185 45 184 41 Q183 12 148 12 Q133 12 123 12 Q122 20 120 30 Q126 29 148 29 Q166 28 166 43 Q166 46 167 50 Q167 54 167 56 L81 56 L81 9 Q79 -7 100 -6 L175 -6 Q199 -7 202 8 Q205 19 206 30 Q214 26 225 23 Q224 16 221 6 Q220 3 219 1 Q212 -24 178 -23 L96 -23 Q60 -24 62 8 L62 60 Q42 47 18 33 Q12 41 5 50 Q55 72 80 101 L10 101 L10 117 L92 117 Q100 129 104 142 L24 142 L24 158 L110 158 Q119 187 122 209 ZM102 101 Q92 86 77 72 L181 72 Q166 85 154 101 L102 101 ZM168 170 Q187 192 196 206 L213 195 Q206 185 191 169 Q186 162 183 159 L168 170 ZM40 194 L54 205 Q70 190 85 174 L69 161 Q58 175 40 194 Z" /><glyph glyph-name="" unicode="&#x5382;" d="M44 190 L245 190 L245 171 L65 171 L65 114 Q65 61 57 32 Q49 3 25 -26 Q20 -20 8 -11 Q30 15 37 39 Q44 63 44 109 L44 190 Z" /><glyph glyph-name="" unicode="&#x5386;" d="M125 165 L145 165 Q145 164 145 158 Q144 135 144 122 L229 122 Q226 55 224 27 Q224 -23 179 -21 Q159 -21 143 -21 Q143 -19 142 -16 Q141 -3 140 0 Q159 0 177 0 Q205 -4 205 29 Q206 50 208 103 L143 103 Q144 10 62 -29 Q56 -21 48 -12 Q126 25 123 103 L69 103 L69 122 L123 122 Q124 149 125 165 ZM55 109 Q55 55 48 27 Q41 -2 22 -29 Q19 -26 13 -19 Q8 -14 7 -13 Q24 10 30 33 Q35 56 35 105 L35 193 L246 193 L246 174 L55 174 L55 109 Z" /><glyph glyph-name="" unicode="&#x538b;" d="M57 2 L141 2 L141 88 L74 88 L74 106 L141 106 L141 160 L162 160 L162 106 L236 106 L236 88 L162 88 L162 2 L246 2 L246 -14 L57 -14 L57 2 ZM57 109 Q57 55 50 28 Q43 0 23 -28 Q17 -21 7 -11 Q26 15 31 37 Q37 59 37 105 L37 190 L245 190 L245 172 L57 172 L57 109 ZM182 61 L195 72 Q201 66 215 51 Q227 38 232 33 L217 19 Q209 29 188 54 Q184 59 182 61 Z" /><glyph glyph-name="" unicode="&#x539a;" d="M76 161 L225 161 L225 88 L76 88 L76 161 ZM55 29 L149 29 L149 39 L194 56 L76 56 L76 71 L226 71 L226 54 L167 31 L167 29 L246 29 L246 13 L167 13 L167 -2 Q168 -28 140 -28 Q124 -28 107 -28 Q106 -18 104 -10 Q107 -10 116 -10 Q129 -11 136 -11 Q150 -11 149 0 L149 13 L55 13 L55 29 ZM49 107 Q51 15 22 -27 Q15 -20 7 -14 Q33 24 31 108 L31 193 L245 193 L245 177 L49 177 L49 107 ZM93 118 L93 102 L207 102 L207 118 L93 118 ZM93 147 L93 132 L207 132 L207 147 L93 147 Z" /><glyph glyph-name="" unicode="&#x539d;" d="M179 174 L197 174 L197 150 L236 150 L236 134 L197 134 L197 105 L245 105 L245 89 L51 89 Q51 16 23 -28 Q15 -20 8 -15 Q35 24 34 109 L34 194 L244 194 L244 179 L52 179 L52 114 L52 105 L98 105 L98 134 L59 134 L59 150 L98 150 L98 174 L116 174 L116 150 L179 150 L179 174 ZM73 70 L222 70 L222 -28 L204 -28 L204 -17 L92 -17 L92 -28 L73 -28 L73 70 ZM92 18 L92 -2 L204 -2 L204 18 L92 18 ZM92 55 L92 33 L204 33 L204 55 L92 55 ZM116 134 L116 105 L179 105 L179 134 L116 134 Z" /><glyph glyph-name="" unicode="&#x539f;" d="M51 109 Q51 55 45 29 Q39 1 19 -30 Q11 -21 6 -16 Q22 6 27 32 Q33 56 33 105 L33 193 L245 193 L245 176 L154 176 Q152 172 148 163 Q144 154 142 150 L226 150 L226 54 L163 54 L163 4 Q164 -26 135 -25 Q123 -26 104 -26 Q103 -17 101 -5 Q112 -6 132 -6 Q147 -7 146 7 L146 54 L78 54 L78 150 L123 150 Q123 151 125 154 Q130 169 132 176 L51 176 L51 109 ZM95 94 L95 70 L208 70 L208 94 L95 94 ZM95 134 L95 110 L208 110 L208 134 L95 134 ZM195 44 Q202 38 214 27 Q236 8 249 -4 L234 -17 Q221 -3 193 23 Q186 30 182 33 L195 44 ZM102 44 L116 34 Q93 6 63 -17 Q57 -11 50 -5 Q78 17 102 44 Z" /><glyph glyph-name="" unicode="&#x53a6;" d="M47 13 Q87 33 105 56 L75 56 L75 142 L129 142 Q130 144 131 149 Q132 153 132 155 L61 155 L61 169 L237 169 L237 155 L149 155 Q147 152 145 144 Q145 143 145 142 L224 142 L224 56 L126 56 Q120 48 114 42 L219 42 L219 28 Q196 11 171 0 Q202 -6 247 -12 Q245 -14 241 -22 Q239 -25 238 -27 Q188 -20 150 -7 Q114 -20 59 -29 Q58 -28 56 -24 Q52 -19 49 -15 Q97 -9 130 0 Q110 9 92 23 Q91 22 89 21 Q77 12 58 1 Q55 5 47 13 ZM51 111 Q53 17 21 -28 Q19 -26 15 -22 Q13 -19 7 -14 Q23 10 29 35 Q34 60 34 110 L34 195 L245 195 L245 180 L51 180 L51 111 ZM91 82 L91 68 L208 68 L208 82 L91 82 ZM91 130 L91 117 L208 117 L208 130 L91 130 ZM91 105 L91 93 L208 93 L208 105 L91 105 ZM195 29 L108 29 Q127 16 151 6 Q176 16 195 29 Z" /><glyph glyph-name="" unicode="&#x53bb;" d="M118 209 L138 209 L138 167 L228 167 L228 149 L138 149 L138 94 L247 94 L247 76 L130 76 Q104 41 68 2 Q86 2 120 3 Q165 4 190 5 Q172 26 153 46 L169 58 Q185 41 211 14 Q228 -3 238 -13 L220 -28 Q217 -24 211 -16 Q208 -13 206 -11 Q195 -11 174 -12 Q109 -12 65 -15 Q59 -15 45 -17 Q40 -18 38 -18 L29 0 Q44 6 52 15 Q85 48 104 76 L10 76 L10 94 L118 94 L118 149 L30 149 L30 167 L118 167 L118 209 Z" /><glyph glyph-name="" unicode="&#x53bf;" d="M9 59 L47 59 L47 197 L211 197 L211 59 L248 59 L248 42 L110 42 Q88 20 63 0 Q123 0 184 3 Q169 16 153 28 L167 41 Q206 12 236 -13 Q234 -15 229 -20 Q224 -26 221 -29 Q212 -19 201 -10 Q96 -14 55 -17 Q45 -19 34 -22 L25 -1 Q32 0 45 8 Q44 7 47 9 Q64 20 84 42 L9 42 L9 59 ZM65 89 L65 59 L192 59 L192 89 L65 89 ZM65 181 L65 151 L192 151 L192 181 L65 181 ZM65 135 L65 105 L192 105 L192 135 L65 135 Z" /><glyph glyph-name="" unicode="&#x53c2;" d="M125 138 Q124 136 120 131 Q117 127 115 124 L242 124 L242 108 L172 108 Q200 79 249 63 Q245 58 237 46 Q182 70 153 108 L100 108 Q68 74 18 45 Q17 47 12 53 Q7 60 6 61 Q47 80 77 108 L14 108 L14 124 L92 124 Q99 134 108 144 Q98 144 81 143 Q67 143 61 143 Q57 143 47 142 Q42 142 41 142 L35 159 Q45 163 58 170 Q88 190 113 210 L132 200 Q120 191 88 171 Q75 162 70 159 Q82 159 115 159 Q156 160 173 160 Q151 176 143 181 L156 193 Q174 181 208 157 Q218 149 223 146 L210 132 Q202 137 193 145 Q181 145 154 145 Q125 144 111 144 L125 138 ZM207 44 L219 31 Q131 -15 38 -31 Q32 -22 28 -15 Q127 2 207 44 ZM177 69 L188 56 Q116 21 42 3 Q41 4 40 8 Q36 16 34 19 Q108 35 177 69 ZM150 95 L162 83 Q111 57 52 40 Q48 48 43 56 Q100 69 150 95 Z" /><glyph glyph-name="" unicode="&#x53c8;" d="M113 39 Q69 85 52 172 L29 172 L29 190 L209 190 L209 171 Q191 89 143 40 Q180 10 248 -6 Q247 -7 246 -10 Q238 -21 234 -26 Q162 -3 128 25 Q103 2 22 -28 Q20 -25 16 -18 Q11 -11 9 -8 Q80 11 113 39 ZM72 172 Q85 97 128 53 Q174 101 187 172 L72 172 Z" /><glyph glyph-name="" unicode="&#x53c9;" d="M8 -9 Q77 9 113 36 Q60 86 45 171 L28 171 L28 188 L215 188 L215 170 Q194 88 143 37 Q179 10 248 -5 Q246 -8 232 -27 Q160 -2 128 23 Q102 0 21 -28 Q15 -19 8 -9 ZM194 171 L64 171 Q73 98 128 49 Q176 95 194 171 ZM102 146 L116 156 Q135 134 150 114 L134 102 Q117 128 102 146 Z" /><glyph glyph-name="" unicode="&#x53ca;" d="M7 -12 Q71 44 69 173 L22 173 L22 191 L197 191 L197 173 L174 125 L219 125 L219 109 Q196 57 166 28 Q199 4 248 -5 Q247 -7 244 -12 Q239 -20 236 -26 Q184 -10 151 14 Q123 -8 69 -30 Q67 -25 59 -15 Q58 -12 57 -11 Q106 6 136 28 Q106 59 84 113 Q77 30 22 -26 Q15 -18 7 -12 ZM150 123 L175 173 L89 173 Q89 168 88 160 Q88 152 88 148 Q114 76 151 40 Q179 67 196 108 L150 108 L150 123 Z" /><glyph glyph-name="" unicode="&#x53cb;" d="M88 209 L109 206 Q106 188 103 171 L244 171 L244 153 L100 153 Q96 134 91 117 L218 117 L218 99 Q202 51 165 20 Q199 0 247 -7 Q238 -21 232 -28 Q184 -13 150 8 Q111 -14 62 -30 Q56 -21 49 -11 Q101 2 134 21 Q102 51 87 99 L86 99 Q62 26 19 -19 Q13 -11 6 -3 Q59 50 80 153 L15 153 L15 171 L83 171 Q86 189 88 209 ZM196 99 L105 99 Q120 57 150 33 Q184 59 196 99 Z" /><glyph glyph-name="" unicode="&#x53cc;" d="M118 172 L118 190 L232 190 L232 172 Q222 83 188 39 Q212 10 249 -6 Q247 -8 233 -24 Q192 2 176 24 Q151 -4 102 -30 Q97 -23 89 -13 Q135 7 164 39 Q131 84 125 172 L118 172 ZM14 143 L29 152 Q32 147 39 138 Q53 116 73 85 Q88 125 92 171 L11 171 L11 190 L112 190 L112 171 Q102 106 85 66 Q93 55 106 33 Q113 20 117 14 L101 1 Q86 28 75 46 Q56 11 22 -22 Q19 -19 12 -12 Q8 -9 7 -8 Q45 26 64 64 Q46 93 14 143 ZM212 172 L143 172 Q149 93 176 55 Q204 95 212 172 Z" /><glyph glyph-name="" unicode="&#x53cd;" d="M38 191 Q125 192 226 201 L233 184 Q149 177 57 174 L57 132 L222 132 L222 115 Q200 59 162 24 Q193 4 249 -7 Q242 -16 234 -28 Q180 -11 145 11 Q111 -12 59 -30 Q47 -14 45 -12 Q97 2 130 24 Q97 53 76 115 L57 115 Q57 61 49 31 Q42 1 20 -29 Q18 -28 13 -23 Q7 -17 5 -16 Q25 9 31 36 Q38 62 38 114 L38 191 ZM200 115 L96 115 Q114 63 145 36 Q182 67 200 115 Z" /><glyph glyph-name="" unicode="&#x53d1;" d="M40 153 L92 153 Q92 155 93 158 Q97 176 102 209 L123 206 Q120 191 114 161 Q113 156 112 153 L246 153 L246 135 L108 135 Q107 130 103 120 Q100 110 98 105 L218 105 L218 88 Q203 48 168 19 Q194 1 248 -7 Q245 -12 236 -24 Q237 -22 233 -27 Q186 -14 152 7 Q122 -10 63 -29 Q57 -20 48 -12 Q115 5 136 19 Q106 45 91 86 Q69 28 20 -19 Q14 -10 7 -3 Q68 55 87 135 L20 135 L20 154 Q32 179 38 200 L58 195 Q55 189 49 175 Q43 158 40 153 ZM196 88 L109 88 Q122 50 152 29 Q185 56 196 88 ZM160 192 L170 206 Q197 189 216 174 L203 158 Q201 159 198 162 Q173 184 160 192 Z" /><glyph glyph-name="" unicode="&#x53d6;" d="M8 27 Q12 28 22 29 Q27 30 29 30 L29 179 L13 179 L13 196 L125 196 L125 179 L112 179 L112 42 Q125 45 137 46 Q137 43 137 30 Q126 27 112 26 L112 -28 L94 -28 L94 23 Q41 15 10 9 L8 27 ZM129 171 L129 188 L236 188 L236 173 Q223 87 194 40 Q215 10 249 -8 Q247 -10 242 -16 Q237 -22 234 -25 Q202 -1 183 24 Q162 -4 127 -28 Q125 -26 118 -17 Q116 -13 115 -12 Q148 8 173 40 Q144 85 137 171 L129 171 ZM217 171 L154 171 Q160 99 184 58 Q208 103 217 171 ZM47 32 Q70 36 94 39 L94 74 L47 74 L47 32 ZM47 179 L47 142 L94 142 L94 179 L47 179 ZM47 127 L47 90 L94 90 L94 127 L47 127 Z" /><glyph glyph-name="" unicode="&#x53d7;" d="M46 67 L46 84 L199 84 L199 67 Q178 36 145 13 Q172 -1 248 -8 Q242 -18 237 -27 Q157 -15 126 2 Q90 -16 19 -31 Q12 -17 8 -13 Q75 -1 109 14 Q82 34 62 67 L46 67 ZM17 127 L165 127 Q184 156 196 177 L215 168 Q206 154 185 127 L239 127 L239 78 L220 78 L220 111 L36 111 L36 78 L17 78 L17 127 ZM28 176 Q28 178 27 182 Q26 191 25 194 Q132 194 224 201 L229 184 Q140 179 28 176 ZM177 67 L82 67 Q101 40 127 23 Q155 39 177 67 ZM110 168 L126 175 Q138 150 143 138 L125 131 Q119 148 110 168 ZM40 163 L56 172 Q62 164 72 148 Q76 142 78 139 L61 130 Q51 147 40 163 Z" /><glyph glyph-name="" unicode="&#x53d8;" d="M37 65 L37 82 L201 82 L201 65 Q178 34 145 13 Q175 -1 248 -8 Q240 -20 237 -27 Q158 -16 126 3 Q86 -16 19 -29 Q12 -17 8 -12 Q77 0 108 14 Q82 34 62 65 L37 65 ZM113 205 L131 210 Q132 207 134 203 Q141 187 143 180 L129 176 L243 176 L243 159 L166 159 L166 93 L147 93 L147 159 L109 159 L109 93 L90 93 L90 159 L12 159 L12 176 L124 176 Q119 191 113 205 ZM177 65 L84 65 Q102 40 127 24 Q158 42 177 65 ZM182 133 L195 145 Q209 133 235 106 Q242 99 246 95 L231 82 Q208 108 182 133 ZM57 146 L72 134 Q54 113 24 83 Q14 93 9 97 Q36 119 57 146 Z" /><glyph glyph-name="" unicode="&#x53e3;" d="M31 184 L224 184 L224 -19 L204 -19 L204 3 L51 3 L51 -19 L31 -19 L31 184 ZM51 165 L51 21 L204 21 L204 165 L51 165 Z" /><glyph glyph-name="" unicode="&#x53e4;" d="M118 208 L138 208 L138 162 L248 162 L248 143 L138 143 L138 91 L216 91 L216 -28 L197 -28 L197 -10 L59 -10 L59 -28 L40 -28 L40 91 L118 91 L118 143 L8 143 L8 162 L118 162 L118 208 ZM59 73 L59 6 L197 6 L197 73 L59 73 Z" /><glyph glyph-name="" unicode="&#x53e5;" d="M47 123 L159 123 L159 30 L65 30 L65 14 L47 14 L47 123 ZM71 209 L90 204 Q82 189 76 175 L229 175 Q229 145 227 61 Q226 37 226 27 Q226 -25 174 -22 Q152 -23 123 -23 Q121 -10 118 -2 Q129 -3 172 -3 Q208 -7 206 28 Q208 99 208 157 L66 157 Q50 128 23 97 Q12 108 8 111 Q50 154 71 209 ZM65 106 L65 47 L140 47 L140 106 L65 106 Z" /><glyph glyph-name="" unicode="&#x53e6;" d="M39 198 L217 198 L217 112 L39 112 L39 198 ZM17 80 L93 80 L95 103 L115 103 L112 80 L230 80 Q227 46 226 26 Q226 -26 178 -24 Q143 -24 131 -24 Q129 -12 127 -2 Q154 -5 177 -5 Q207 -8 207 27 Q210 56 209 62 L109 62 Q101 -2 22 -29 Q16 -21 9 -14 Q83 6 90 62 L17 62 L17 80 ZM58 181 L58 129 L199 129 L199 181 L58 181 Z" /><glyph glyph-name="" unicode="&#x53ea;" d="M40 192 L218 192 L218 69 L40 69 L40 192 ZM59 174 L59 87 L198 87 L198 174 L59 174 ZM162 61 Q208 23 248 -12 L231 -28 Q198 4 147 47 L162 61 ZM90 60 L108 48 Q76 12 24 -29 L7 -14 Q50 15 90 60 Z" /><glyph glyph-name="" unicode="&#x53eb;" d="M25 185 L103 185 L103 11 L84 11 L84 31 L44 31 L44 8 L25 8 L25 185 ZM209 206 L228 206 L228 -28 L209 -28 L209 49 Q186 43 164 36 Q156 34 141 25 L128 41 Q136 50 136 63 L136 186 L155 186 L155 55 Q163 57 182 62 Q200 67 209 69 L209 206 ZM44 167 L44 49 L84 49 L84 167 L44 167 Z" /><glyph glyph-name="" unicode="&#x53ec;" d="M39 76 L218 76 L218 -29 L199 -29 L199 -14 L59 -14 L59 -29 L39 -29 L39 76 ZM20 194 L226 194 Q226 190 224 174 Q222 151 221 141 Q219 93 171 96 Q135 96 128 96 Q126 107 123 118 Q149 116 170 116 Q200 114 202 143 Q202 147 203 157 Q204 171 205 177 L105 177 Q108 107 21 74 Q11 89 8 92 Q88 117 86 177 L20 177 L20 194 ZM59 59 L59 2 L199 2 L199 59 L59 59 Z" /><glyph glyph-name="" unicode="&#x53ef;" d="M36 135 L142 135 L142 39 L54 39 L54 22 L36 22 L36 135 ZM9 189 L248 189 L248 171 L207 171 L207 7 Q208 -25 174 -24 Q163 -25 132 -25 Q131 -15 128 -3 Q154 -5 168 -5 Q189 -6 188 12 L188 171 L9 171 L9 189 ZM54 118 L54 57 L123 57 L123 118 L54 118 Z" /><glyph glyph-name="" unicode="&#x53f0;" d="M215 80 L215 -28 L195 -28 L195 -12 L61 -12 L61 -28 L41 -28 L41 80 L215 80 ZM61 62 L61 3 L195 3 L195 62 L61 62 ZM178 176 Q225 131 250 104 L233 90 Q230 94 224 101 Q217 109 214 112 Q123 109 48 105 Q33 104 23 102 L14 121 Q26 125 34 133 Q76 167 110 211 L128 200 Q95 161 52 124 Q131 128 198 130 Q194 134 187 141 Q182 147 164 164 L178 176 Z" /><glyph glyph-name="" unicode="&#x53f2;" d="M56 78 Q74 48 103 30 Q116 49 119 82 L32 82 L32 175 L119 175 L119 207 L138 207 L138 175 L225 175 L225 69 L206 69 L206 82 L138 82 Q135 45 119 20 Q163 0 249 -4 Q243 -16 240 -25 Q152 -18 106 6 Q76 -18 18 -30 Q16 -23 8 -12 Q66 -1 89 16 Q59 36 40 67 L56 78 ZM51 158 L51 99 L119 99 L119 158 L51 158 ZM206 158 L138 158 L138 99 L206 99 L206 158 Z" /><glyph glyph-name="" unicode="&#x53f7;" d="M46 197 L210 197 L210 125 L46 125 L46 197 ZM50 43 L50 61 L61 86 L8 86 L8 103 L248 103 L248 86 L81 86 L70 60 L214 60 Q212 37 210 18 Q207 -25 156 -24 Q131 -24 104 -24 Q104 -23 103 -20 Q102 -9 100 -3 Q128 -5 155 -5 Q189 -7 190 19 Q190 22 191 27 Q192 39 193 43 L50 43 ZM65 179 L65 143 L191 143 L191 179 L65 179 Z" /><glyph glyph-name="" unicode="&#x53f8;" d="M35 101 L162 101 L162 16 L54 16 L54 0 L35 0 L35 101 ZM25 177 L25 195 L234 195 L234 9 Q236 -26 202 -26 Q181 -26 156 -26 Q155 -18 151 -5 Q166 -6 197 -6 Q215 -7 215 10 L215 177 L25 177 ZM54 84 L54 33 L143 33 L143 84 L54 84 ZM11 148 L195 148 L195 130 L11 130 L11 148 Z" /><glyph glyph-name="" unicode="&#x5404;" d="M47 69 L212 69 L212 -28 L193 -28 L193 -13 L66 -13 L66 -28 L47 -28 L47 69 ZM82 210 L102 205 Q101 203 99 201 Q95 193 88 184 L211 184 L211 165 Q186 134 151 113 Q182 99 248 91 Q244 84 237 71 Q167 83 131 102 Q88 80 16 67 Q15 70 11 77 Q8 83 6 86 Q74 97 111 113 Q89 127 66 155 Q48 134 26 115 Q22 120 13 129 Q54 160 82 210 ZM66 52 L66 2 L193 2 L193 52 L66 52 ZM188 166 L80 166 Q104 137 131 123 Q160 138 188 166 Z" /><glyph glyph-name="" unicode="&#x5408;" d="M44 77 L212 77 L212 -29 L194 -29 L194 -13 L63 -13 L63 -29 L44 -29 L44 77 ZM124 210 L144 207 Q142 203 139 200 Q185 144 249 120 Q242 109 236 100 Q219 108 199 121 L199 108 L57 108 L57 120 Q48 113 26 101 Q21 98 19 97 Q14 105 7 115 Q88 154 124 210 ZM63 60 L63 3 L194 3 L194 60 L63 60 ZM128 184 Q103 152 64 125 L194 125 Q153 154 128 184 Z" /><glyph glyph-name="" unicode="&#x5409;" d="M215 69 L215 -28 L196 -28 L196 -11 L60 -11 L60 -28 L41 -28 L41 69 L215 69 ZM29 116 L118 116 L118 154 L12 154 L12 172 L118 172 L118 210 L138 210 L138 172 L245 172 L245 154 L138 154 L138 116 L228 116 L228 98 L29 98 L29 116 ZM60 51 L60 4 L196 4 L196 51 L60 51 Z" /><glyph glyph-name="" unicode="&#x540c;" d="M43 -25 L25 -25 L25 195 L231 195 L231 6 Q233 -24 199 -24 Q177 -24 163 -24 Q162 -20 160 -9 Q159 -6 159 -4 Q167 -5 195 -5 Q213 -6 212 8 L212 177 L43 177 L43 -25 ZM76 102 L179 102 L179 23 L76 23 L76 102 ZM94 85 L94 41 L161 41 L161 85 L94 85 ZM57 148 L199 148 L199 130 L57 130 L57 148 Z" /><glyph glyph-name="" unicode="&#x540d;" d="M109 209 L128 201 Q125 198 119 191 Q113 185 110 181 L224 181 L224 164 Q177 111 105 80 L223 80 L223 -29 L204 -29 L204 -13 L76 -13 L76 -29 L57 -29 L57 60 Q51 58 38 54 Q25 49 18 47 Q17 49 13 55 Q8 62 7 64 Q130 98 198 165 L93 165 Q89 159 81 154 Q82 153 84 151 Q99 137 119 120 L103 107 Q85 125 67 142 Q47 126 23 111 Q22 112 20 115 Q14 123 10 126 Q72 162 109 209 ZM76 63 L76 2 L204 2 L204 63 L76 63 Z" /><glyph glyph-name="" unicode="&#x540e;" d="M77 79 L225 79 L225 -27 L205 -27 L205 -12 L97 -12 L97 -27 L77 -27 L77 79 ZM55 169 L55 136 L247 136 L247 118 L55 118 Q55 59 48 29 Q42 0 21 -29 Q12 -18 6 -13 Q24 10 29 36 Q35 60 35 118 L35 187 Q133 189 227 201 L234 182 Q114 170 55 169 ZM97 61 L97 4 L205 4 L205 61 L97 61 Z" /><glyph glyph-name="" unicode="&#x5410;" d="M24 178 L96 178 L96 21 L42 21 L42 0 L24 0 L24 178 ZM166 206 L187 206 L187 133 L239 133 L239 114 L187 114 L187 4 L248 4 L248 -13 L95 -13 L95 4 L166 4 L166 114 L114 114 L114 133 L166 133 L166 206 ZM42 161 L42 38 L78 38 L78 161 L42 161 Z" /><glyph glyph-name="" unicode="&#x5411;" d="M44 -25 L25 -25 L25 172 L99 172 Q103 188 105 209 L125 207 Q124 204 123 197 Q120 180 118 172 L230 172 L230 5 Q231 -24 201 -24 Q179 -24 166 -24 Q164 -13 162 -4 Q172 -5 195 -5 Q213 -6 211 7 L211 154 L44 154 L44 -25 ZM78 119 L178 119 L178 29 L78 29 L78 119 ZM96 102 L96 47 L159 47 L159 102 L96 102 Z" /><glyph glyph-name="" unicode="&#x541b;" d="M217 196 L217 150 L248 150 L248 134 L217 134 L217 87 L84 87 Q79 74 71 60 L218 60 L218 -27 L200 -27 L200 -14 L79 -14 L79 -27 L61 -27 L61 45 Q49 28 20 6 Q20 7 19 8 Q12 17 7 22 Q50 53 65 87 L25 87 L25 103 L70 103 Q74 116 77 134 L10 134 L10 150 L78 150 Q78 151 78 153 Q80 167 80 180 L30 180 L30 196 L217 196 ZM79 45 L79 0 L200 0 L200 45 L79 45 ZM95 134 Q92 116 89 103 L198 103 L198 134 L95 134 ZM99 180 Q99 170 97 150 L198 150 L198 180 L99 180 Z" /><glyph glyph-name="" unicode="&#x541e;" d="M31 194 L226 194 L226 177 L138 177 Q132 156 124 138 L243 138 L243 122 L161 122 Q191 81 249 70 Q243 60 239 50 Q221 56 205 63 L205 -29 L186 -29 L186 -13 L72 -13 L72 -29 L53 -29 L53 63 Q38 54 19 45 Q18 47 15 51 Q11 59 7 63 Q66 86 93 122 L13 122 L13 138 L103 138 Q112 156 118 177 L31 177 L31 194 ZM72 53 L72 1 L186 1 L186 53 L72 53 ZM115 122 Q99 92 63 70 L193 70 Q162 86 141 122 L115 122 Z" /><glyph glyph-name="" unicode="&#x5426;" d="M40 79 L216 79 L216 -27 L196 -27 L196 -11 L60 -11 L60 -28 L40 -28 L40 79 ZM18 195 L238 195 L238 178 L146 178 Q143 174 138 169 L138 87 L120 87 L120 151 Q74 111 20 87 Q12 99 8 103 Q79 134 121 178 L18 178 L18 195 ZM60 62 L60 5 L196 5 L196 62 L60 62 ZM144 145 L156 159 Q192 138 248 105 L236 89 Q189 120 144 145 Z" /><glyph glyph-name="" unicode="&#x542b;" d="M42 64 L214 64 L214 -27 L196 -27 L196 -14 L60 -14 L60 -28 L42 -28 L42 64 ZM60 47 L60 1 L196 1 L196 47 L60 47 ZM146 207 Q143 203 139 198 Q180 151 248 129 Q245 124 240 115 Q239 111 238 110 Q166 140 128 185 Q90 141 18 106 Q16 110 11 118 Q8 122 7 124 Q89 159 125 211 L146 207 ZM50 104 L50 121 L196 121 L196 104 Q178 84 158 66 Q155 69 148 74 Q145 77 143 78 Q153 85 173 104 L50 104 ZM111 149 L124 159 Q127 156 132 150 Q136 146 147 133 L133 123 Q123 137 111 149 Z" /><glyph glyph-name="" unicode="&#x542f;" d="M120 204 L137 210 Q145 192 150 180 L234 180 L234 109 L54 109 L54 100 Q56 20 22 -29 Q20 -27 15 -24 Q8 -18 6 -16 Q24 12 29 36 Q35 59 35 102 L35 180 L130 180 Q129 183 126 190 Q122 199 120 204 ZM231 72 L231 -29 L212 -29 L212 -13 L90 -13 L90 -29 L71 -29 L71 72 L231 72 ZM90 56 L90 1 L212 1 L212 56 L90 56 ZM54 163 L54 125 L215 125 L215 163 L54 163 Z" /><glyph glyph-name="" unicode="&#x5438;" d="M62 -13 Q95 21 104 59 Q115 96 114 176 L93 176 L93 193 L214 193 L214 175 L190 126 L230 126 L230 109 Q217 63 193 30 Q215 8 249 -8 Q247 -11 242 -17 Q238 -23 235 -26 Q199 -3 180 15 Q156 -8 121 -29 Q119 -27 116 -22 Q110 -16 108 -14 Q147 8 167 30 Q145 57 130 102 Q126 24 78 -27 Q70 -19 62 -13 ZM19 185 L84 185 L84 36 L37 36 L37 20 L19 20 L19 185 ZM170 127 L193 176 L133 176 Q133 158 132 143 Q151 80 179 45 Q199 69 210 109 L170 109 L170 127 ZM37 169 L37 53 L66 53 L66 169 L37 169 Z" /><glyph glyph-name="" unicode="&#x5439;" d="M17 181 L88 181 L88 34 L35 34 L35 11 L17 11 L17 181 ZM155 132 L173 132 L173 110 L173 108 Q185 16 249 -10 Q238 -21 233 -28 Q178 2 166 70 Q150 0 84 -30 Q82 -27 74 -15 Q72 -13 71 -12 Q154 25 155 112 L155 132 ZM90 108 Q119 153 135 209 L155 204 Q152 195 147 179 Q143 170 142 166 L245 166 L245 149 Q226 106 220 95 Q213 100 202 103 Q209 115 223 149 L135 149 Q123 122 108 97 Q104 100 97 104 Q92 107 90 108 ZM35 164 L35 51 L70 51 L70 164 L35 164 Z" /><glyph glyph-name="" unicode="&#x5448;" d="M41 195 L215 195 L215 121 L41 121 L41 195 ZM24 97 L234 97 L234 80 L138 80 L138 48 L220 48 L220 31 L138 31 L138 -2 L245 -2 L245 -19 L13 -19 L13 -2 L119 -2 L119 31 L38 31 L38 48 L119 48 L119 80 L24 80 L24 97 ZM60 179 L60 138 L196 138 L196 179 L60 179 Z" /><glyph glyph-name="" unicode="&#x544a;" d="M43 69 L215 69 L215 -27 L196 -27 L196 -14 L62 -14 L62 -27 L43 -27 L43 69 ZM126 209 L145 209 L145 171 L229 171 L229 153 L145 153 L145 113 L247 113 L247 95 L11 95 L11 113 L126 113 L126 153 L58 153 Q49 136 37 118 Q35 119 31 122 Q23 127 21 129 Q48 165 60 204 L79 199 Q73 184 67 171 L126 171 L126 209 ZM62 52 L62 1 L196 1 L196 52 L62 52 Z" /><glyph glyph-name="" unicode="&#x5458;" d="M47 198 L209 198 L209 131 L47 131 L47 198 ZM33 109 L223 109 L223 21 L204 21 L204 92 L52 92 L52 19 L33 19 L33 109 ZM118 85 L137 85 Q137 65 136 58 Q135 48 133 39 Q142 35 161 27 Q229 0 247 -8 L236 -26 Q198 -6 126 23 Q110 -8 18 -30 Q15 -22 8 -12 Q122 6 117 61 Q118 66 118 85 ZM66 182 L66 147 L190 147 L190 182 L66 182 Z" /><glyph glyph-name="" unicode="&#x5468;" d="M49 109 Q49 51 43 25 Q38 -2 20 -28 Q17 -24 10 -18 Q8 -16 7 -15 Q23 7 27 29 Q31 51 31 104 L31 198 L235 198 L235 8 Q236 -26 201 -25 Q196 -26 177 -25 Q170 -25 167 -25 Q166 -18 164 -5 Q178 -7 198 -7 Q218 -8 217 10 L217 181 L49 181 L49 109 ZM80 76 L186 76 L186 9 L80 9 L80 76 ZM72 153 L124 153 L124 174 L142 174 L142 153 L194 153 L194 136 L142 136 L142 112 L205 112 L205 95 L61 95 L61 112 L124 112 L124 136 L72 136 L72 153 ZM98 59 L98 26 L168 26 L168 59 L98 59 Z" /><glyph glyph-name="" unicode="&#x547c;" d="M22 179 L86 179 L86 6 L68 6 L68 27 L39 27 L39 3 L22 3 L22 179 ZM94 87 L161 87 L161 175 Q152 175 134 173 Q112 172 101 171 Q100 179 97 188 Q172 191 235 198 L239 181 Q211 178 180 176 L180 87 L247 87 L247 70 L180 70 L180 8 Q181 -23 148 -24 Q131 -24 116 -24 Q116 -23 115 -20 Q113 -9 111 -4 Q121 -5 144 -5 Q162 -6 161 10 L161 70 L94 70 L94 87 ZM39 162 L39 44 L68 44 L68 162 L39 162 ZM192 105 Q206 126 221 161 L239 153 Q236 147 227 132 Q213 105 208 97 L192 105 ZM104 152 L120 159 Q128 144 145 105 L128 98 Q122 116 104 152 Z" /><glyph glyph-name="" unicode="&#x547d;" d="M32 97 L110 97 L110 -5 L92 -5 L92 9 L50 9 L50 -7 L32 -7 L32 97 ZM137 99 L225 99 L225 31 Q226 0 198 0 Q180 0 169 0 Q169 6 166 18 Q168 18 176 18 Q188 17 192 17 Q207 17 207 35 L207 82 L155 82 L155 -29 L137 -29 L137 99 ZM142 208 Q141 205 138 202 Q190 153 248 135 Q241 124 237 116 Q173 144 128 190 Q89 145 18 113 Q13 122 8 130 Q83 162 123 212 L142 208 ZM50 80 L50 26 L92 26 L92 80 L50 80 ZM71 139 L186 139 L186 122 L71 122 L71 139 Z" /><glyph glyph-name="" unicode="&#x548c;" d="M131 179 L237 179 L237 -21 L218 -21 L218 1 L149 1 L149 -21 L131 -21 L131 179 ZM149 162 L149 18 L218 18 L218 162 L149 162 ZM8 135 L55 135 L55 174 Q34 171 16 168 Q14 176 11 185 Q58 190 109 202 L114 185 Q96 180 74 177 L74 135 L118 135 L118 119 L74 119 L74 88 L83 97 Q86 95 92 89 Q113 71 121 62 L107 48 Q94 64 74 82 L74 -29 L55 -29 L55 88 Q41 50 16 17 Q12 26 7 38 Q36 73 51 119 L8 119 L8 135 Z" /><glyph glyph-name="" unicode="&#x54a8;" d="M43 67 L214 67 L214 -29 L195 -29 L195 -15 L62 -15 L62 -29 L43 -29 L43 67 ZM73 142 Q99 168 113 210 L133 206 Q131 201 126 191 Q124 185 123 183 L235 183 L235 166 L214 129 Q203 133 195 135 L214 166 L162 166 Q162 165 162 163 Q175 108 249 90 Q242 79 238 70 Q171 94 155 136 Q137 92 69 70 Q68 75 61 84 Q59 87 58 88 Q140 108 144 166 L114 166 Q104 148 89 130 Q80 138 73 142 ZM62 50 L62 0 L195 0 L195 50 L62 50 ZM58 147 Q68 137 73 133 Q53 108 26 68 L10 81 Q40 119 58 147 ZM32 204 Q55 184 70 170 L56 156 Q44 170 19 192 L32 204 Z" /><glyph glyph-name="" unicode="&#x54c1;" d="M45 197 L211 197 L211 109 L45 109 L45 197 ZM21 82 L113 82 L113 -28 L94 -28 L94 -12 L39 -12 L39 -28 L21 -28 L21 82 ZM143 82 L235 82 L235 -28 L217 -28 L217 -12 L162 -12 L162 -28 L143 -28 L143 82 ZM64 180 L64 126 L192 126 L192 180 L64 180 ZM162 65 L162 2 L217 2 L217 65 L162 65 ZM39 65 L39 3 L94 3 L94 65 L39 65 Z" /><glyph glyph-name="" unicode="&#x54c8;" d="M20 179 L84 179 L84 4 L67 4 L67 24 L37 24 L37 0 L20 0 L20 179 ZM109 69 L223 69 L223 -29 L206 -29 L206 -15 L127 -15 L127 -29 L109 -29 L109 69 ZM161 211 L179 207 Q179 205 177 202 Q207 147 249 127 Q248 126 247 124 Q243 119 236 110 Q196 135 168 184 Q144 142 100 109 Q98 111 94 117 Q89 122 87 124 Q137 157 161 211 ZM127 52 L127 0 L206 0 L206 52 L127 52 ZM37 162 L37 40 L67 40 L67 162 L37 162 ZM118 118 L216 118 L216 101 L118 101 L118 118 Z" /><glyph glyph-name="" unicode="&#x54cd;" d="M98 175 L144 175 Q144 177 145 181 Q147 193 149 208 L167 206 Q166 201 164 191 Q162 180 161 175 L232 175 L232 3 Q233 -24 204 -25 Q190 -25 176 -25 Q175 -19 174 -11 Q173 -8 173 -6 Q179 -7 198 -7 Q216 -8 215 7 L215 158 L115 158 L115 -28 L98 -28 L98 175 ZM20 177 L78 177 L78 9 L62 9 L62 28 L37 28 L37 6 L20 6 L20 177 ZM133 127 L197 127 L197 28 L133 28 L133 127 ZM37 160 L37 45 L62 45 L62 160 L37 160 ZM149 112 L149 43 L180 43 L180 112 L149 112 Z" /><glyph glyph-name="" unicode="&#x54e6;" d="M78 62 Q83 63 93 65 Q107 69 115 71 L115 115 L80 115 L80 132 L115 132 L115 167 Q110 166 99 165 Q90 163 86 163 Q84 171 81 179 Q128 186 157 193 L163 176 Q148 173 132 170 L132 132 L171 132 Q171 145 170 171 Q170 195 170 206 L188 206 Q188 161 189 132 L245 132 L245 115 L189 115 Q190 79 195 52 Q216 76 228 100 L244 91 Q223 54 199 31 Q205 12 212 0 Q217 -7 222 -7 Q228 -6 230 2 Q230 4 231 8 Q231 16 234 35 Q243 31 251 29 Q250 10 247 -2 Q242 -27 224 -27 Q206 -27 195 -5 Q189 5 185 18 Q168 3 147 -6 Q142 0 136 7 Q161 21 180 38 Q173 71 172 115 L132 115 L132 75 Q148 78 163 83 Q164 73 164 66 Q150 62 132 57 L132 5 Q133 -25 103 -25 Q91 -25 81 -25 Q79 -8 79 -5 Q84 -6 102 -6 Q116 -7 115 4 L115 52 Q100 49 84 44 L78 62 ZM18 183 L74 183 L74 14 L58 14 L58 28 L34 28 L34 10 L18 10 L18 183 ZM34 167 L34 44 L58 44 L58 167 L34 167 ZM197 183 L209 194 Q215 189 226 180 Q236 171 242 166 L229 152 Q215 168 197 183 Z" /><glyph glyph-name="" unicode="&#x54ea;" d="M78 134 L96 134 Q97 155 97 178 L78 178 L78 193 L154 193 Q153 96 151 13 Q151 -21 118 -20 Q116 -20 107 -21 Q99 -21 96 -21 Q96 -20 95 -15 Q93 -6 92 -2 Q98 -3 116 -3 Q136 -5 134 14 Q135 33 135 60 L110 60 Q107 9 63 -30 Q62 -29 57 -23 Q52 -17 51 -15 Q89 12 93 60 L78 60 L78 75 L94 75 Q96 96 96 119 L78 119 L78 134 ZM18 183 L71 183 L71 31 L35 31 L35 17 L18 17 L18 183 ZM245 50 Q248 10 218 7 Q204 7 192 7 Q191 20 189 26 Q195 25 212 25 Q232 24 227 53 Q225 78 197 107 Q214 146 223 177 L187 177 L187 -30 L170 -30 L170 193 L241 193 L241 177 Q240 174 238 168 Q224 130 216 111 Q244 81 245 50 ZM35 167 L35 47 L55 47 L55 167 L35 167 ZM136 75 Q136 97 136 119 L112 119 Q112 111 111 96 Q111 82 111 75 L136 75 ZM137 178 L113 178 Q113 155 113 134 L136 134 Q137 154 137 178 Z" /><glyph glyph-name="" unicode="&#x54fa;" d="M191 198 L206 209 Q208 206 213 201 Q217 197 228 184 L217 175 L248 175 L248 158 L175 158 L175 135 L236 135 L236 2 Q239 -26 210 -26 Q199 -26 186 -25 Q185 -18 182 -6 Q196 -8 204 -8 Q221 -10 219 7 L219 28 L175 28 L175 -25 L157 -25 L157 28 L115 28 L115 -27 L98 -27 L98 135 L157 135 L157 158 L90 158 L90 175 L157 175 L157 208 L175 208 L175 175 L211 175 Q202 187 191 198 ZM22 181 L81 181 L81 0 L63 0 L63 21 L39 21 L39 -9 L22 -9 L22 181 ZM39 164 L39 38 L63 38 L63 164 L39 164 ZM175 73 L175 44 L219 44 L219 73 L175 73 ZM219 118 L175 118 L175 89 L219 89 L219 118 ZM115 118 L115 89 L157 89 L157 118 L115 118 ZM115 73 L115 44 L157 44 L157 73 L115 73 Z" /><glyph glyph-name="" unicode="&#x5507;" d="M141 85 Q141 75 142 67 Q134 65 116 61 Q102 57 96 56 Q90 54 80 49 L70 65 Q77 72 77 80 L77 112 L50 112 Q48 44 23 3 Q22 4 19 6 Q11 12 7 15 Q35 50 33 147 L33 197 L243 197 L243 181 L50 181 L50 127 L244 127 L244 112 L211 112 L223 99 Q217 96 205 90 Q191 83 184 79 Q205 69 248 61 Q243 55 237 44 Q155 60 120 112 L94 112 L94 73 Q97 74 105 76 Q131 82 141 85 ZM56 43 L221 43 L221 -28 L204 -28 L204 -18 L73 -18 L73 -28 L56 -28 L56 43 ZM73 27 L73 -2 L204 -2 L204 27 L73 27 ZM168 88 Q196 103 209 112 L141 112 Q153 99 168 88 ZM65 162 L229 162 L229 147 L65 147 L65 162 Z" /><glyph glyph-name="" unicode="&#x5510;" d="M55 114 L130 114 L130 132 L65 132 L65 147 L130 147 L130 162 L148 162 L148 147 L221 147 L221 114 L247 114 L247 98 L221 98 L221 65 L148 65 L148 49 L130 49 L130 65 L64 65 L64 80 L130 80 L130 98 L55 98 L55 114 ZM70 44 L220 44 L220 -28 L202 -28 L202 -17 L88 -17 L88 -28 L70 -28 L70 44 ZM122 206 L140 210 Q146 198 150 184 L245 184 L245 168 L51 168 L51 103 Q51 53 45 26 Q40 -1 23 -29 Q20 -26 12 -20 Q9 -17 7 -16 Q23 8 28 32 Q33 55 33 104 L33 184 L130 184 Q127 194 122 206 ZM88 28 L88 -1 L202 -1 L202 28 L88 28 ZM148 80 L204 80 L204 98 L148 98 L148 80 ZM204 132 L148 132 L148 114 L204 114 L204 132 Z" /><glyph glyph-name="" unicode="&#x552e;" d="M123 203 L139 211 Q148 198 156 184 L148 180 L238 180 L238 165 L152 165 L152 147 L231 147 L231 132 L152 132 L152 114 L231 114 L231 100 L152 100 L152 82 L243 82 L243 67 L55 67 L55 57 L37 57 L37 139 Q28 129 18 117 Q16 120 12 127 Q8 131 7 133 Q43 167 62 209 L79 203 Q73 191 66 180 L136 180 Q135 182 132 188 Q130 191 123 203 ZM38 48 L221 48 L221 -28 L203 -28 L203 -16 L56 -16 L56 -28 L38 -28 L38 48 ZM56 32 L56 -1 L203 -1 L203 32 L56 32 ZM55 132 L55 114 L134 114 L134 132 L55 132 ZM55 100 L55 82 L134 82 L134 100 L55 100 ZM56 165 Q56 164 55 163 L55 147 L134 147 L134 165 L56 165 Z" /><glyph glyph-name="" unicode="&#x552f;" d="M22 181 L82 181 L82 114 Q107 149 130 208 L147 202 Q144 196 138 182 Q132 169 129 162 L243 162 L243 146 L189 146 L189 109 L241 109 L241 92 L189 92 L189 56 L241 56 L241 39 L189 39 L189 2 L246 2 L246 -12 L125 -12 L125 -28 L107 -28 L107 121 Q105 118 103 113 Q100 109 93 99 Q88 104 82 109 L82 2 L65 2 L65 22 L39 22 L39 0 L22 0 L22 181 ZM39 164 L39 39 L65 39 L65 164 L39 164 ZM125 39 L125 2 L171 2 L171 39 L125 39 ZM125 146 L125 109 L171 109 L171 146 L125 146 ZM125 92 L125 56 L171 56 L171 92 L125 92 ZM162 199 L177 208 Q191 190 201 174 L185 164 Q184 165 183 167 Q171 188 162 199 Z" /><glyph glyph-name="" unicode="&#x5546;" d="M68 153 L82 164 Q86 160 94 152 Q101 144 105 140 L93 130 L145 130 Q151 137 161 152 Q166 159 169 163 L186 153 Q183 150 178 143 Q171 134 167 130 L227 130 L227 2 Q229 -26 199 -26 Q183 -26 166 -26 Q166 -25 165 -22 Q164 -11 162 -6 Q174 -7 194 -7 Q210 -8 209 4 L209 114 L45 114 L45 -28 L27 -28 L27 130 L89 130 Q88 131 87 132 Q76 146 68 153 ZM176 7 L80 7 L80 72 L176 72 L176 7 ZM113 204 L131 209 Q137 196 142 182 L247 182 L247 165 L9 165 L9 182 L121 182 Q120 187 115 197 Q114 202 113 204 ZM97 56 L97 22 L159 22 L159 56 L97 56 ZM141 98 L152 111 Q174 97 206 76 L195 61 Q194 62 191 64 Q162 85 141 98 ZM98 111 L111 99 Q82 75 58 58 Q53 64 47 72 Q80 92 98 111 Z" /><glyph glyph-name="" unicode="&#x554a;" d="M18 183 L68 183 L68 9 L52 9 L52 26 L33 26 L33 4 L18 4 L18 183 ZM140 48 Q140 17 119 14 Q112 14 101 14 Q100 23 97 31 Q102 30 114 30 Q124 31 124 48 Q125 78 104 108 L123 179 L97 179 L97 -29 L81 -29 L81 195 L139 195 L139 179 L121 111 Q141 80 140 48 ZM147 193 L248 193 L248 177 L230 177 L230 3 Q231 -25 204 -25 Q192 -25 176 -25 Q176 -21 174 -12 Q173 -8 173 -6 Q186 -7 199 -7 Q215 -8 214 4 L214 177 L147 177 L147 193 ZM150 142 L200 142 L200 34 L150 34 L150 142 ZM33 166 L33 42 L52 42 L52 166 L33 166 ZM165 126 L165 50 L185 50 L185 126 L165 126 Z" /><glyph glyph-name="" unicode="&#x5561;" d="M20 181 L81 181 L81 8 L63 8 L63 28 L38 28 L38 6 L20 6 L20 181 ZM244 48 L244 31 L198 31 L198 -28 L180 -28 L180 207 L198 207 L198 164 L243 164 L243 147 L198 147 L198 108 L241 108 L241 90 L198 90 L198 48 L244 48 ZM91 164 L133 164 L133 207 L151 207 L151 -28 L133 -28 L133 31 L90 31 L90 48 L133 48 L133 90 L93 90 L93 108 L133 108 L133 147 L91 147 L91 164 ZM38 164 L38 45 L63 45 L63 164 L38 164 Z" /><glyph glyph-name="" unicode="&#x5584;" d="M67 200 L81 210 Q85 205 95 194 Q100 189 102 186 L92 179 L151 179 Q158 187 169 205 Q171 208 172 210 L190 201 Q181 189 172 179 L236 179 L236 164 L137 164 L137 147 L225 147 L225 132 L137 132 L137 116 L242 116 L242 101 L191 101 L206 93 Q203 90 198 84 Q192 77 189 74 L247 74 L247 59 L9 59 L9 74 L67 74 Q61 83 52 92 L63 101 L13 101 L13 116 L119 116 L119 132 L31 132 L31 147 L119 147 L119 164 L21 164 L21 179 L83 179 Q81 183 75 190 Q70 197 67 200 ZM40 41 L216 41 L216 -28 L198 -28 L198 -17 L58 -17 L58 -28 L40 -28 L40 41 ZM58 26 L58 -2 L198 -2 L198 26 L58 26 ZM86 81 L76 74 L119 74 L119 101 L68 101 Q76 91 86 81 ZM168 74 Q178 88 187 101 L137 101 L137 74 L168 74 Z" /><glyph glyph-name="" unicode="&#x559c;" d="M70 74 L79 81 L44 81 L44 127 L212 127 L212 81 L179 81 L189 74 Q187 71 182 66 Q176 60 174 57 L247 57 L247 42 L10 42 L10 57 L85 57 Q78 64 70 74 ZM42 28 L214 28 L214 -28 L197 -28 L197 -19 L59 -19 L59 -28 L42 -28 L42 28 ZM31 156 L119 156 L119 171 L16 171 L16 186 L119 186 L119 207 L137 207 L137 186 L241 186 L241 171 L137 171 L137 156 L225 156 L225 141 L31 141 L31 156 ZM59 13 L59 -5 L197 -5 L197 13 L59 13 ZM61 112 L61 95 L195 95 L195 112 L61 112 ZM85 81 Q97 69 106 57 L152 57 Q163 69 172 81 L85 81 Z" /><glyph glyph-name="" unicode="&#x55e4;" d="M98 88 L155 88 L155 107 L171 107 L171 88 L229 88 L229 28 L171 28 L171 0 Q180 0 197 1 Q210 1 216 1 Q212 11 207 20 L222 27 Q238 1 248 -21 L231 -29 Q230 -26 228 -21 Q225 -15 224 -12 Q205 -13 162 -16 Q103 -19 81 -21 L79 -2 Q101 -1 155 0 L155 28 L114 28 L114 18 L98 18 L98 88 ZM19 180 L79 180 L79 13 L62 13 L62 31 L36 31 L36 8 L19 8 L19 180 ZM98 193 L114 193 L114 164 L155 164 L155 208 L171 208 L171 164 L212 164 L212 193 L228 193 L228 148 L171 148 L171 126 L244 126 L244 110 L85 110 L85 126 L155 126 L155 148 L98 148 L98 193 ZM36 164 L36 47 L62 47 L62 164 L36 164 ZM212 72 L171 72 L171 43 L212 43 L212 72 ZM114 72 L114 43 L155 43 L155 72 L114 72 Z" /><glyph glyph-name="" unicode="&#x55e6;" d="M17 185 L76 185 L76 22 L35 22 L35 0 L17 0 L17 185 ZM201 81 Q213 69 238 42 Q236 45 243 37 L228 26 Q222 34 216 40 Q208 40 194 39 Q180 39 173 39 L173 -1 Q174 -26 146 -27 Q132 -27 116 -27 Q116 -24 114 -15 Q113 -11 113 -9 Q126 -10 141 -10 Q156 -10 156 1 L156 38 Q149 38 138 37 Q125 37 119 36 Q112 36 101 35 Q98 34 97 34 L91 51 Q93 52 95 52 Q108 56 115 60 Q121 63 131 69 Q148 78 156 83 Q150 83 139 82 Q129 82 124 82 Q121 82 115 81 Q109 81 106 80 L100 95 Q110 98 117 102 Q135 112 158 131 L171 121 Q155 110 129 95 Q137 96 154 96 Q169 97 178 97 Q183 100 192 107 Q202 113 206 116 L218 104 Q179 78 125 51 Q136 51 158 53 Q187 54 204 55 Q195 63 188 72 L201 81 ZM88 148 L155 148 L155 168 L95 168 L95 184 L155 184 L155 206 L173 206 L173 184 L233 184 L233 168 L173 168 L173 148 L240 148 L240 108 L223 108 L223 132 L106 132 L106 108 L88 108 L88 148 ZM35 168 L35 38 L58 38 L58 168 L35 168 ZM188 14 L198 27 Q208 21 227 10 Q241 2 249 -2 L238 -16 Q221 -4 188 14 ZM70 -2 Q96 9 122 28 L133 15 Q109 0 80 -16 Q78 -12 72 -4 Q71 -3 70 -2 Z" /><glyph glyph-name="" unicode="&#x5608;" d="M178 207 L194 207 L194 187 L247 187 L247 173 L194 173 L194 153 L237 153 L237 75 L93 75 L93 153 L136 153 L136 173 L85 173 L85 187 L136 187 L136 207 L151 207 L151 187 L178 187 L178 207 ZM101 58 L228 58 L228 -28 L211 -28 L211 -18 L118 -18 L118 -28 L101 -28 L101 58 ZM19 183 L78 183 L78 8 L61 8 L61 26 L36 26 L36 3 L19 3 L19 183 ZM36 167 L36 42 L61 42 L61 167 L36 167 ZM118 12 L118 -4 L211 -4 L211 12 L118 12 ZM118 44 L118 26 L211 26 L211 44 L118 44 ZM222 140 L194 140 L194 121 L222 121 L222 140 ZM194 108 L194 88 L222 88 L222 108 L194 108 ZM108 108 L108 88 L136 88 L136 108 L108 108 ZM108 140 L108 121 L136 121 L136 140 L108 140 ZM151 108 L151 88 L178 88 L178 108 L151 108 ZM151 140 L151 121 L178 121 L178 140 L151 140 ZM151 173 L151 153 L178 153 L178 173 L151 173 Z" /><glyph glyph-name="" unicode="&#x5609;" d="M70 90 L80 95 L40 95 L40 139 L215 139 L215 95 L176 95 L188 89 Q181 82 173 73 L246 73 L246 60 L10 60 L10 73 L84 73 Q76 82 70 90 ZM32 164 L119 164 L119 179 L16 179 L16 193 L119 193 L119 210 L136 210 L136 193 L241 193 L241 179 L136 179 L136 164 L225 164 L225 151 L32 151 L32 164 ZM144 44 L232 44 L232 -26 L215 -26 L215 -12 L161 -12 L161 -26 L144 -26 L144 44 ZM53 55 L70 55 Q70 47 69 38 L125 38 Q125 34 125 25 Q124 13 124 6 Q123 -22 89 -22 Q76 -22 71 -22 Q71 -15 68 -5 Q73 -6 88 -6 Q106 -7 106 7 Q106 10 107 16 Q107 22 107 25 L67 25 Q61 -5 21 -27 Q19 -24 13 -17 Q10 -14 9 -12 Q46 4 50 25 L18 25 L18 38 L52 38 Q52 40 52 46 Q53 52 53 55 ZM57 125 L57 109 L198 109 L198 125 L57 125 ZM161 30 L161 0 L215 0 L215 30 L161 30 ZM86 95 Q94 87 104 73 L153 73 Q163 85 170 95 L86 95 Z" /><glyph glyph-name="" unicode="&#x5668;" d="M140 50 L218 50 Q151 59 129 95 L127 95 Q115 63 41 50 L114 50 L114 -25 L97 -25 L97 -12 L46 -12 L46 -26 L29 -26 L29 48 Q23 46 16 46 Q15 48 12 53 Q7 61 6 63 Q95 72 108 95 L16 95 L16 111 L115 111 Q117 119 118 129 L136 129 Q135 119 133 111 L174 111 Q173 113 169 118 Q167 122 166 124 L182 130 Q183 127 188 119 Q192 114 193 111 L242 111 L242 95 L149 95 Q177 67 248 66 Q248 65 247 64 Q241 53 238 47 Q236 47 232 48 Q228 48 226 49 L226 -26 L209 -26 L209 -12 L157 -12 L157 -25 L140 -25 L140 50 ZM140 194 L225 194 L225 132 L140 132 L140 194 ZM29 194 L114 194 L114 132 L29 132 L29 194 ZM157 35 L157 1 L209 1 L209 35 L157 35 ZM46 35 L46 1 L97 1 L97 35 L46 35 ZM157 179 L157 147 L209 147 L209 179 L157 179 ZM46 179 L46 147 L97 147 L97 179 L46 179 Z" /><glyph glyph-name="" unicode="&#x56db;" d="M27 190 L235 190 L235 -28 L216 -28 L216 -13 L46 -13 L46 -28 L27 -28 L27 190 ZM184 69 Q201 69 211 69 L208 50 L182 50 Q147 49 148 83 L148 172 L113 172 Q113 156 113 142 Q112 94 102 73 Q93 52 62 32 Q56 39 48 47 Q77 64 84 81 Q93 98 94 142 Q94 156 94 172 L46 172 L46 3 L216 3 L216 172 L167 172 L167 84 Q165 67 184 69 Z" /><glyph glyph-name="" unicode="&#x56de;" d="M23 194 L234 194 L234 -27 L215 -27 L215 -11 L42 -11 L42 -27 L23 -27 L23 194 ZM42 177 L42 4 L215 4 L215 177 L42 177 ZM77 138 L179 138 L179 46 L77 46 L77 138 ZM95 122 L95 62 L161 62 L161 122 L95 122 Z" /><glyph glyph-name="" unicode="&#x56e0;" d="M24 194 L231 194 L231 -28 L212 -28 L212 -12 L44 -12 L44 -28 L24 -28 L24 194 ZM44 176 L44 4 L212 4 L212 176 L44 176 ZM119 168 L137 168 L137 127 L198 127 L198 110 L137 110 Q136 100 133 90 Q162 68 203 33 L188 18 Q152 51 127 72 Q109 34 61 13 Q59 15 56 20 Q51 27 48 30 Q114 54 118 110 L58 110 L58 127 L119 127 L119 168 Z" /><glyph glyph-name="" unicode="&#x56e2;" d="M22 195 L234 195 L234 -28 L216 -28 L216 -17 L40 -17 L40 -29 L22 -29 L22 195 ZM40 179 L40 0 L216 0 L216 179 L40 179 ZM52 136 L143 136 L143 171 L161 171 L161 136 L207 136 L207 119 L161 119 L161 47 Q163 10 126 11 Q109 11 100 11 Q97 24 95 30 Q100 29 123 29 Q145 27 143 50 L143 107 Q117 65 56 26 Q52 35 44 42 Q98 72 131 119 L52 119 L52 136 Z" /><glyph glyph-name="" unicode="&#x56ed;" d="M22 195 L234 195 L234 -28 L216 -28 L216 -17 L40 -17 L40 -29 L22 -29 L22 195 ZM40 179 L40 0 L216 0 L216 179 L40 179 ZM51 107 L205 107 L205 91 L157 91 L157 49 Q156 32 170 34 L175 34 Q188 33 189 46 Q191 57 192 73 Q200 70 209 67 Q208 52 205 39 Q201 16 177 17 L165 17 Q138 15 140 47 L140 91 L108 91 Q110 35 58 8 Q54 16 46 24 Q92 44 90 91 L51 91 L51 107 ZM63 152 L193 152 L193 136 L63 136 L63 152 Z" /><glyph glyph-name="" unicode="&#x56f4;" d="M22 195 L234 195 L234 -28 L216 -28 L216 -17 L40 -17 L40 -29 L22 -29 L22 195 ZM40 178 L40 0 L216 0 L216 178 L40 178 ZM55 152 L112 152 L112 173 L130 173 L130 152 L196 152 L196 136 L130 136 L130 116 L188 116 L188 101 L130 101 L130 80 L195 80 Q195 75 194 63 Q194 51 193 46 Q192 21 167 21 Q155 21 142 21 Q142 23 141 27 Q140 36 139 39 Q154 38 163 38 Q176 37 176 48 Q176 57 177 64 L130 64 L130 5 L112 5 L112 64 L51 64 L51 80 L112 80 L112 101 L61 101 L61 116 L112 116 L112 136 L55 136 L55 152 Z" /><glyph glyph-name="" unicode="&#x56fa;" d="M23 195 L234 195 L234 -28 L216 -28 L216 -16 L40 -16 L40 -29 L23 -29 L23 195 ZM40 178 L40 0 L216 0 L216 178 L40 178 ZM55 142 L119 142 L119 171 L136 171 L136 142 L201 142 L201 125 L136 125 L136 96 L179 96 L179 24 L77 24 L77 96 L119 96 L119 125 L55 125 L55 142 ZM94 80 L94 40 L162 40 L162 80 L94 80 Z" /><glyph glyph-name="" unicode="&#x56fd;" d="M22 195 L234 195 L234 -28 L216 -28 L216 -17 L41 -17 L41 -29 L22 -29 L22 195 ZM41 178 L41 0 L216 0 L216 178 L41 178 ZM61 105 L119 105 L119 138 L56 138 L56 154 L200 154 L200 138 L137 138 L137 105 L195 105 L195 89 L137 89 L137 41 L204 41 L204 25 L52 25 L52 41 L119 41 L119 89 L61 89 L61 105 ZM149 73 L163 84 Q171 76 186 58 L171 47 Q159 63 149 73 Z" /><glyph glyph-name="" unicode="&#x56fe;" d="M21 198 L234 198 L234 -28 L216 -28 L216 -16 L39 -16 L39 -28 L21 -28 L21 198 ZM39 181 L39 0 L216 0 L216 181 L39 181 ZM47 122 Q82 148 102 178 L118 171 Q114 164 108 158 L193 158 L193 143 Q174 120 150 105 Q177 94 211 91 Q209 86 205 77 Q206 79 203 73 Q161 81 133 95 Q102 79 51 68 Q49 75 43 85 Q82 91 115 105 Q96 119 84 132 Q72 119 59 110 Q49 120 47 122 ZM65 29 L70 45 Q78 44 98 41 Q167 31 186 26 L180 8 Q131 20 65 29 ZM90 60 L95 77 Q99 76 108 75 Q154 67 170 64 L164 47 Q126 55 90 60 ZM170 142 L97 142 Q112 125 133 114 Q156 127 170 142 Z" /><glyph glyph-name="" unicode="&#x5706;" d="M21 198 L234 198 L234 -28 L216 -28 L216 -15 L39 -15 L39 -28 L21 -28 L21 198 ZM39 182 L39 0 L216 0 L216 182 L39 182 ZM72 167 L184 167 L184 117 L72 117 L72 167 ZM66 103 L189 103 L189 44 L173 44 L173 88 L82 88 L82 42 L66 42 L66 103 ZM119 82 L136 82 Q136 67 133 57 Q135 56 139 54 Q188 28 201 20 L191 6 Q172 19 127 44 Q117 21 57 7 Q54 14 48 23 Q93 31 105 43 Q119 53 119 82 ZM89 152 L89 131 L167 131 L167 152 L89 152 Z" /><glyph glyph-name="" unicode="&#x5708;" d="M21 198 L234 198 L234 -28 L217 -28 L217 -17 L38 -17 L38 -28 L21 -28 L21 198 ZM157 154 Q171 166 180 177 L193 168 Q188 163 179 154 Q174 149 172 147 L201 147 L201 132 L127 132 Q124 124 120 118 L211 118 L211 102 L165 102 Q183 83 216 76 Q215 74 213 71 Q210 68 205 59 Q184 67 166 80 Q166 71 165 62 Q165 38 135 39 L115 39 Q114 46 112 54 Q114 54 120 54 Q131 53 136 53 Q149 52 150 63 Q150 67 150 70 L93 70 L93 41 Q90 24 111 26 L153 26 Q173 26 175 37 Q176 40 178 49 Q179 55 180 58 Q187 54 196 52 Q195 49 194 45 Q194 39 191 31 Q185 10 156 11 L107 11 Q75 9 77 40 L77 71 Q65 64 49 56 Q46 59 41 66 Q38 70 38 70 L38 -2 L217 -2 L217 183 L38 183 L38 71 Q74 84 91 102 L45 102 L45 118 L102 118 Q107 124 110 132 L54 132 L54 147 L84 147 Q81 151 74 157 Q67 164 63 167 L74 177 Q84 169 98 157 L87 147 L115 147 Q121 168 122 178 L139 178 Q137 164 132 147 L166 147 L157 154 ZM111 102 Q103 93 94 84 L162 84 Q151 95 146 102 L111 102 Z" /><glyph glyph-name="" unicode="&#x5723;" d="M25 176 L25 194 L219 194 L219 177 Q188 143 148 120 Q191 104 248 97 Q247 95 244 88 Q240 82 238 78 Q168 91 128 110 Q82 88 17 74 Q13 82 7 93 Q67 102 108 120 Q75 139 47 176 L25 176 ZM119 92 L138 92 L138 60 L222 60 L222 43 L138 43 L138 0 L245 0 L245 -16 L11 -16 L11 0 L119 0 L119 43 L34 43 L34 60 L119 60 L119 92 ZM194 176 L69 176 Q95 146 128 130 Q160 145 194 176 Z" /><glyph glyph-name="" unicode="&#x5728;" d="M100 208 L121 205 Q120 201 116 192 Q113 183 111 178 L247 178 L247 161 L103 161 Q86 126 65 96 L65 -27 L47 -27 L47 72 Q33 56 19 42 Q15 51 7 60 Q53 100 82 161 L19 161 L19 178 L90 178 Q97 193 100 208 ZM150 145 L169 145 L169 96 L233 96 L233 79 L169 79 L169 6 L247 6 L247 -9 L74 -9 L74 6 L150 6 L150 79 L87 79 L87 96 L150 96 L150 145 Z" /><glyph glyph-name="" unicode="&#x5730;" d="M81 104 L102 112 L102 179 L121 179 L121 120 L158 133 L158 207 L177 207 L177 141 L236 163 Q236 155 235 138 Q234 107 233 88 Q233 49 203 52 Q197 51 185 51 Q184 60 181 71 Q183 71 190 71 Q198 70 201 70 Q214 69 215 89 Q216 107 216 139 L177 123 L177 22 L158 22 L158 116 L121 101 L121 18 Q121 -4 144 -2 L197 -2 Q224 -3 226 15 Q230 35 231 51 Q240 48 251 45 Q248 21 244 5 Q240 -21 202 -20 L140 -20 Q101 -21 102 14 L102 93 L84 86 L81 104 ZM6 14 Q14 16 31 22 Q37 24 40 25 L40 122 L9 122 L9 139 L40 139 L40 206 L58 206 L58 139 L87 139 L87 122 L58 122 L58 31 Q64 33 76 37 Q85 40 90 42 Q90 31 91 24 Q49 8 13 -3 L6 14 Z" /><glyph glyph-name="" unicode="&#x5733;" d="M8 41 Q22 46 42 50 L42 130 L11 130 L11 148 L42 148 L42 206 L60 206 L60 148 L90 148 L90 130 L60 130 L60 56 Q63 57 68 58 Q85 63 92 65 Q92 53 93 46 Q87 44 69 39 Q27 26 11 21 L8 41 ZM105 204 L124 204 L124 128 Q125 54 116 29 Q108 1 76 -28 Q67 -19 61 -14 Q91 11 98 35 Q106 58 105 128 L105 204 ZM214 204 L233 204 L233 -25 L214 -25 L214 204 ZM159 195 L178 195 L178 -6 L159 -6 L159 195 Z" /><glyph glyph-name="" unicode="&#x573a;" d="M190 176 L95 176 L95 194 L225 194 L225 176 L129 115 L239 115 Q238 102 237 70 Q235 36 234 24 Q235 -25 195 -23 Q180 -23 166 -23 Q165 -12 163 -3 Q180 -5 193 -5 Q216 -7 216 22 Q217 42 219 87 Q220 95 220 98 L194 98 Q183 17 119 -29 Q112 -22 105 -15 Q166 25 176 98 L145 98 Q132 38 77 0 Q71 6 63 12 Q115 47 127 98 L98 98 L98 116 L190 176 ZM8 29 Q23 37 43 44 L43 128 L10 128 L10 145 L43 145 L43 206 L61 206 L61 145 L91 145 L91 128 L61 128 L61 52 Q70 56 88 65 Q88 63 89 59 Q89 51 91 47 Q73 39 29 18 Q19 13 15 11 L8 29 Z" /><glyph glyph-name="" unicode="&#x573e;" d="M99 -11 Q140 2 166 27 Q141 57 128 102 Q120 17 72 -25 Q70 -23 66 -18 Q61 -13 59 -10 Q117 32 114 178 L94 178 L94 195 L212 195 L212 178 L193 124 L232 124 L232 107 Q217 55 192 27 Q216 5 248 -9 Q242 -18 236 -27 Q207 -11 179 13 Q153 -10 110 -29 Q109 -28 108 -25 Q102 -16 99 -11 ZM173 125 L192 178 L132 178 Q132 162 131 147 Q145 82 179 40 Q203 69 213 107 L173 107 L173 125 ZM6 30 Q23 33 43 39 L43 128 L12 128 L12 145 L43 145 L43 206 L61 206 L61 145 L90 145 L90 128 L61 128 L61 44 Q65 45 73 47 Q84 50 90 51 Q89 42 89 32 Q78 29 50 21 Q21 13 10 10 L6 30 Z" /><glyph glyph-name="" unicode="&#x5740;" d="M166 208 L185 208 L185 132 L241 132 L241 114 L185 114 L185 3 L248 3 L248 -13 L75 -13 L75 3 L112 3 L112 158 L131 158 L131 3 L166 3 L166 208 ZM7 24 Q13 26 25 30 Q38 35 45 37 L45 126 L11 126 L11 144 L45 144 L45 207 L64 207 L64 144 L97 144 L97 126 L64 126 L64 43 Q81 49 100 55 Q100 44 101 37 Q95 35 81 30 Q35 13 14 5 L7 24 Z" /><glyph glyph-name="" unicode="&#x5747;" d="M91 111 Q120 158 135 208 L155 202 Q153 197 148 185 Q144 175 142 170 L237 170 Q233 48 232 19 Q233 -26 185 -23 Q151 -23 147 -23 Q146 -8 144 -2 Q168 -4 184 -4 Q214 -7 214 22 Q215 56 217 153 L134 153 Q124 128 108 101 Q103 104 95 108 Q92 111 91 111 ZM7 19 Q11 20 19 23 Q24 25 43 32 L43 128 L10 128 L10 145 L43 145 L43 206 L61 206 L61 145 L92 145 L92 128 L61 128 L61 39 Q67 41 78 46 Q89 50 94 52 Q95 40 96 32 Q82 28 44 12 Q23 4 14 0 L7 19 ZM101 35 Q119 41 180 68 Q195 74 202 77 Q204 65 205 58 Q193 52 153 35 Q121 21 109 16 L101 35 ZM125 115 L139 126 Q143 123 150 116 Q169 99 179 88 L164 74 Q154 86 125 115 Z" /><glyph glyph-name="" unicode="&#x574a;" d="M151 203 L169 208 Q176 191 183 172 L164 166 L245 166 L245 148 L144 148 L143 111 L231 111 Q230 61 227 19 Q228 -26 185 -23 Q167 -24 154 -24 Q153 -11 150 -3 Q158 -4 185 -4 Q208 -6 208 18 Q211 60 211 94 L142 94 Q141 14 91 -30 Q89 -27 82 -21 Q77 -17 75 -15 Q124 24 123 107 L125 148 L92 148 L92 166 L163 166 Q161 178 151 203 ZM9 24 Q16 26 30 32 Q40 36 45 38 L45 125 L12 125 L12 142 L45 142 L45 206 L65 206 L65 142 L94 142 L94 125 L65 125 L65 45 Q71 47 81 52 Q92 56 97 58 Q97 47 98 38 Q79 32 23 8 Q18 6 16 5 L9 24 Z" /><glyph glyph-name="" unicode="&#x5750;" d="M119 208 L137 208 L137 65 L219 65 L219 47 L137 47 L137 1 L247 1 L247 -16 L10 -16 L10 1 L119 1 L119 47 L37 47 L37 65 L119 65 L119 208 ZM8 78 Q47 122 56 188 L76 185 Q72 165 67 150 Q88 123 108 95 L92 83 Q72 114 60 130 Q49 99 22 64 Q16 72 8 78 ZM142 86 Q178 130 189 187 L208 183 Q208 181 207 178 Q201 155 196 143 Q220 121 247 90 L232 76 Q230 79 226 84 Q202 112 189 126 Q177 101 156 73 Q153 76 148 80 Q144 84 142 86 Z" /><glyph glyph-name="" unicode="&#x5757;" d="M142 206 L162 206 Q162 177 161 164 L221 164 L221 86 L246 86 L246 68 L164 68 Q182 14 241 -8 Q238 -11 231 -20 Q228 -24 226 -26 Q167 4 151 57 Q138 8 78 -29 Q77 -28 75 -25 Q68 -16 64 -12 Q127 23 136 68 L84 68 L84 86 L139 86 Q142 111 142 147 L99 147 L99 164 L142 164 Q142 187 142 206 ZM8 28 Q22 33 42 37 L42 130 L10 130 L10 147 L42 147 L42 207 L61 207 L61 147 L93 147 L93 130 L61 130 L61 42 Q69 45 84 49 Q91 51 94 52 Q95 40 96 33 Q71 26 13 9 L8 28 ZM202 147 L161 147 Q160 112 157 86 L202 86 L202 147 Z" /><glyph glyph-name="" unicode="&#x575a;" d="M110 175 L110 191 L229 191 L229 175 Q212 138 186 117 Q210 102 248 94 Q242 85 239 76 Q199 87 172 106 Q148 90 111 77 Q110 81 105 89 Q103 92 102 93 Q135 104 158 117 Q135 138 121 175 L110 175 ZM119 74 L138 74 L138 52 L225 52 L225 35 L138 35 L138 0 L247 0 L247 -16 L9 -16 L9 0 L119 0 L119 35 L31 35 L31 52 L119 52 L119 74 ZM78 205 L96 205 L96 72 L78 72 L78 205 ZM27 194 L44 194 L44 78 L27 78 L27 194 ZM210 175 L139 175 Q151 147 173 127 Q194 144 210 175 Z" /><glyph glyph-name="" unicode="&#x5766;" d="M106 193 L229 193 L229 40 L106 40 L106 193 ZM7 23 Q24 26 41 31 L41 124 L10 124 L10 141 L41 141 L41 207 L60 207 L60 141 L91 141 L91 124 L60 124 L60 35 Q79 40 94 44 Q94 41 94 25 Q47 15 12 4 L7 23 ZM124 109 L124 56 L210 56 L210 109 L124 109 ZM124 176 L124 125 L210 125 L210 176 L124 176 ZM83 1 L248 1 L248 -15 L83 -15 L83 1 Z" /><glyph glyph-name="" unicode="&#x5782;" d="M9 97 L59 97 L59 134 L18 134 L18 150 L119 150 L119 179 Q53 177 28 177 Q27 185 25 194 Q156 196 224 201 L226 184 Q223 184 217 184 Q169 181 137 180 L137 150 L238 150 L238 134 L197 134 L197 97 L247 97 L247 80 L197 80 L197 42 L239 42 L239 26 L137 26 L137 -1 L229 -1 L229 -18 L27 -18 L27 -1 L119 -1 L119 26 L17 26 L17 42 L59 42 L59 80 L9 80 L9 97 ZM77 80 L77 42 L119 42 L119 80 L77 80 ZM137 80 L137 42 L179 42 L179 80 L137 80 ZM77 134 L77 97 L119 97 L119 134 L77 134 ZM137 134 L137 97 L179 97 L179 134 L137 134 Z" /><glyph glyph-name="" unicode="&#x5783;" d="M6 23 Q23 28 43 32 L43 128 L10 128 L10 145 L43 145 L43 206 L61 206 L61 145 L91 145 L91 128 L61 128 L61 37 Q66 39 77 42 Q90 46 96 48 Q96 45 96 38 Q95 32 95 28 Q39 13 10 3 L6 23 ZM205 130 L225 125 Q210 78 185 2 L249 2 L249 -13 L81 -13 L81 2 L165 2 Q187 65 205 130 ZM96 163 L241 163 L241 146 L96 146 L96 163 ZM123 130 Q141 73 151 33 L132 27 Q126 53 110 108 Q107 120 105 125 L123 130 ZM148 206 L167 210 Q171 199 181 169 L161 164 Q155 187 148 206 Z" /><glyph glyph-name="" unicode="&#x578b;" d="M20 194 L146 194 L146 178 L120 178 L120 138 L154 138 L154 122 L120 122 L120 70 L102 70 L102 122 L63 122 Q61 87 29 62 Q17 75 16 75 Q45 98 45 122 L10 122 L10 138 L47 138 Q47 146 47 156 L47 178 L20 178 L20 194 ZM119 66 L138 66 L138 47 L225 47 L225 31 L138 31 L138 -1 L247 -1 L247 -17 L9 -17 L9 -1 L119 -1 L119 31 L31 31 L31 47 L119 47 L119 66 ZM231 204 L231 98 Q232 67 204 67 Q189 66 172 66 Q171 70 169 78 Q168 83 168 85 Q170 85 177 85 Q192 84 197 84 Q214 83 213 100 L213 204 L231 204 ZM65 156 Q65 152 64 146 Q64 140 64 138 L102 138 L102 178 L65 178 L65 156 ZM164 190 L182 190 L182 106 L164 106 L164 190 Z" /><glyph glyph-name="" unicode="&#x57a6;" d="M40 196 L213 196 L213 109 Q215 111 218 112 L228 97 Q202 85 177 75 Q206 65 246 62 Q242 54 238 44 Q139 54 103 109 L59 109 L59 71 Q84 79 111 85 Q111 75 111 66 Q77 59 56 51 Q50 49 41 44 L31 60 Q40 66 40 78 L40 196 ZM119 59 L137 59 L137 39 L225 39 L225 23 L137 23 L137 -1 L247 -1 L247 -17 L9 -17 L9 -1 L119 -1 L119 23 L31 23 L31 39 L119 39 L119 59 ZM59 181 L59 160 L195 160 L195 181 L59 181 ZM59 124 L195 124 L195 145 L59 145 L59 124 ZM125 109 Q137 94 156 84 Q184 94 212 109 L125 109 Z" /><glyph glyph-name="" unicode="&#x57ce;" d="M168 208 L186 208 Q186 182 187 164 L247 164 L247 147 L187 147 Q188 137 188 126 Q191 81 196 56 Q212 83 224 118 L241 111 Q224 67 201 32 Q209 9 219 -3 Q226 -9 229 -1 Q232 14 234 40 Q242 35 250 33 Q248 9 245 -5 Q241 -26 225 -26 Q213 -26 204 -14 Q195 0 188 15 Q171 -7 147 -26 Q145 -24 141 -20 Q135 -13 133 -12 Q163 10 182 35 Q174 71 170 128 Q170 137 169 147 L108 147 L108 109 L156 109 Q156 49 155 35 Q156 5 125 6 Q122 6 116 5 Q110 5 108 5 Q107 9 106 16 Q105 23 104 24 Q110 24 123 24 Q138 23 138 38 Q138 44 138 61 Q139 83 139 93 L108 93 Q110 9 73 -29 Q61 -19 58 -17 Q79 8 84 29 Q90 49 90 98 L90 164 L169 164 Q168 185 168 208 ZM6 39 Q9 40 16 42 Q29 45 36 46 L36 129 L8 129 L8 146 L36 146 L36 205 L54 205 L54 146 L80 146 L80 129 L54 129 L54 51 Q58 53 68 55 Q76 58 80 59 Q80 56 80 40 Q45 30 9 18 L6 39 ZM197 193 L208 204 Q217 198 232 186 Q236 183 238 181 L225 168 Q214 180 197 193 Z" /><glyph glyph-name="" unicode="&#x57df;" d="M129 -17 Q156 5 178 35 Q168 75 167 149 L82 149 L82 166 L167 166 Q167 186 167 208 L185 208 Q185 186 185 166 L245 166 L245 149 L185 149 Q186 91 192 57 Q207 84 221 123 L238 116 Q218 66 197 32 Q203 10 212 -1 Q217 -8 221 -7 Q225 -6 227 0 Q230 11 231 38 Q240 35 248 33 Q247 11 243 -7 Q239 -28 222 -28 Q210 -28 199 -14 Q189 -1 184 13 Q166 -9 143 -30 Q137 -24 129 -17 ZM7 19 Q11 20 20 23 Q32 27 38 29 L38 124 L9 124 L9 141 L38 141 L38 208 L56 208 L56 141 L83 141 L83 124 L56 124 L56 35 Q60 37 69 40 Q77 43 81 44 Q81 42 82 31 Q82 33 83 26 Q43 13 11 0 L7 19 ZM89 122 L150 122 L150 47 L89 47 L89 122 ZM70 16 Q123 24 158 32 Q158 22 159 15 Q141 12 76 0 L70 16 ZM105 107 L105 62 L133 62 L133 107 L105 107 ZM205 205 Q221 193 233 183 L222 170 Q212 180 195 194 L205 205 Z" /><glyph glyph-name="" unicode="&#x57f9;" d="M104 69 L227 69 L227 -28 L209 -28 L209 -12 L122 -12 L122 -28 L104 -28 L104 69 ZM7 21 Q22 24 42 30 L42 128 L10 128 L10 145 L42 145 L42 207 L60 207 L60 145 L92 145 L92 128 L60 128 L60 35 Q73 38 93 45 Q93 39 94 25 Q66 18 14 1 L7 21 ZM122 52 L122 3 L209 3 L209 52 L122 52 ZM87 109 L176 109 Q177 111 179 114 Q197 142 205 156 L223 145 Q211 126 197 109 L247 109 L247 93 L87 93 L87 109 ZM149 202 L165 210 Q169 203 177 190 Q180 184 181 183 L167 177 L239 177 L239 161 L96 161 L96 177 L163 177 Q156 188 149 202 ZM110 146 L126 155 Q144 133 151 122 L135 111 Q122 131 110 146 Z" /><glyph glyph-name="" unicode="&#x57fa;" d="M10 86 L59 86 L59 167 L18 167 L18 182 L59 182 L59 209 L77 209 L77 182 L180 182 L180 209 L198 209 L198 182 L239 182 L239 167 L198 167 L198 86 L246 86 L246 70 L175 70 Q198 48 249 29 Q241 19 236 12 Q212 23 193 35 L193 24 L137 24 L137 0 L232 0 L232 -16 L24 -16 L24 0 L119 0 L119 24 L62 24 L62 35 Q43 21 20 9 Q15 16 8 24 Q53 45 80 70 L10 70 L10 86 ZM119 62 L137 62 L137 39 L188 39 Q169 52 153 70 L102 70 Q85 52 67 39 L119 39 L119 62 ZM77 103 L77 86 L180 86 L180 103 L77 103 ZM77 135 L77 118 L180 118 L180 135 L77 135 ZM77 167 L77 150 L180 150 L180 167 L77 167 Z" /><glyph glyph-name="" unicode="&#x5802;" d="M53 127 L203 127 L203 65 L138 65 L138 42 L225 42 L225 25 L138 25 L138 0 L247 0 L247 -16 L9 -16 L9 0 L119 0 L119 25 L31 25 L31 42 L119 42 L119 65 L53 65 L53 127 ZM119 208 L137 208 L137 163 L238 163 L238 104 L220 104 L220 146 L37 146 L37 104 L18 104 L18 163 L119 163 L119 208 ZM71 111 L71 80 L185 80 L185 111 L71 111 ZM168 177 Q189 191 206 205 L220 191 Q207 181 180 163 L168 177 ZM41 192 L52 205 Q67 195 89 179 L76 165 Q57 181 41 192 Z" /><glyph glyph-name="" unicode="&#x5854;" d="M102 58 L227 58 L227 -27 L209 -27 L209 -13 L120 -13 L120 -27 L102 -27 L102 58 ZM8 33 Q16 35 40 39 L40 127 L9 127 L9 144 L40 144 L40 207 L58 207 L58 144 L89 144 L89 127 L58 127 L58 42 Q67 45 85 48 Q88 49 90 49 Q89 39 90 31 Q35 20 11 14 L8 33 ZM194 207 L211 207 L211 183 L245 183 L245 166 L211 166 L211 144 L194 144 L194 166 L135 166 L135 144 L117 144 L117 166 L84 166 L84 183 L117 183 L117 207 L135 207 L135 183 L194 183 L194 207 ZM78 93 Q137 123 160 159 L179 154 Q179 153 178 152 Q177 150 176 149 Q205 115 250 97 Q248 93 243 86 Q241 81 239 78 Q195 100 164 135 Q134 99 90 77 Q80 91 78 93 ZM120 41 L120 2 L209 2 L209 41 L120 41 ZM123 93 L206 93 L206 77 L123 77 L123 93 Z" /><glyph glyph-name="" unicode="&#x586b;" d="M80 33 L103 33 L103 155 L155 155 L155 172 L88 172 L88 188 L155 188 L155 208 L172 208 L172 188 L243 188 L243 172 L172 172 L172 155 L225 155 L225 33 L248 33 L248 17 L80 17 L80 33 ZM8 31 Q24 36 42 42 L42 128 L10 128 L10 145 L42 145 L42 206 L60 206 L60 145 L89 145 L89 128 L60 128 L60 48 Q65 50 76 53 Q86 57 91 58 Q91 55 92 46 Q93 42 93 40 Q46 25 16 12 L8 31 ZM120 50 L120 33 L208 33 L208 50 L120 50 ZM120 110 L120 94 L208 94 L208 110 L120 110 ZM120 80 L120 64 L208 64 L208 80 L120 80 ZM120 140 L120 124 L208 124 L208 140 L120 140 ZM72 -15 Q108 -3 136 15 L148 1 Q110 -20 83 -30 Q81 -26 74 -17 Q72 -16 72 -15 ZM175 1 L184 15 Q216 2 248 -14 L238 -29 Q200 -8 175 1 Z" /><glyph glyph-name="" unicode="&#x5883;" d="M95 108 L226 108 L226 30 L188 30 L188 2 Q188 -8 201 -8 L217 -8 Q227 -8 230 3 Q232 10 232 25 Q235 24 241 23 Q246 21 249 20 Q248 5 246 -3 Q242 -24 219 -24 L198 -24 Q170 -25 171 0 L171 30 L147 30 Q148 -11 74 -30 Q70 -21 64 -13 Q131 -1 130 30 L95 30 L95 108 ZM8 28 Q14 29 29 34 Q35 35 38 36 L38 128 L10 128 L10 145 L38 145 L38 206 L56 206 L56 145 L80 145 L80 128 L56 128 L56 40 Q70 43 85 48 Q85 36 86 30 Q50 22 11 9 L8 28 ZM115 160 L129 169 Q134 164 141 153 Q145 148 147 145 L137 139 L175 139 Q183 151 193 169 L210 161 Q201 149 194 139 L246 139 L246 124 L86 124 L86 139 L131 139 Q122 152 115 160 ZM148 204 L165 209 Q171 196 174 184 L238 184 L238 170 L92 170 L92 184 L156 184 Q153 193 148 204 ZM112 62 L112 45 L210 45 L210 62 L112 62 ZM112 93 L112 76 L210 76 L210 93 L112 93 Z" /><glyph glyph-name="" unicode="&#x589e;" d="M89 174 L133 174 Q123 186 111 199 L124 209 Q137 196 148 185 L135 174 L176 174 Q180 180 190 195 Q196 205 200 210 L217 200 Q207 186 196 174 L238 174 L238 91 L89 91 L89 174 ZM99 74 L228 74 L228 -29 L211 -29 L211 -17 L115 -17 L115 -29 L99 -29 L99 74 ZM7 19 Q22 24 39 28 L39 128 L12 128 L12 145 L39 145 L39 206 L56 206 L56 145 L82 145 L82 128 L56 128 L56 33 Q59 34 65 35 Q73 38 86 41 Q86 32 87 23 Q82 21 71 18 Q51 13 13 1 L7 19 ZM221 159 L171 159 L171 106 L221 106 L221 159 ZM106 159 L106 106 L155 106 L155 159 L106 159 ZM115 20 L115 -2 L211 -2 L211 20 L115 20 ZM115 59 L115 35 L211 35 L211 59 L115 59 ZM211 141 Q200 123 192 113 L179 121 Q188 132 197 150 L211 141 ZM115 141 L127 148 Q139 134 146 122 L133 114 Q128 121 115 141 Z" /><glyph glyph-name="" unicode="&#x58eb;" d="M9 131 L117 131 L117 208 L138 208 L138 131 L246 131 L246 112 L138 112 L138 6 L229 6 L229 -11 L27 -11 L27 6 L117 6 L117 112 L9 112 L9 131 Z" /><glyph glyph-name="" unicode="&#x58f0;" d="M41 105 L220 105 L220 26 L201 26 L201 38 L58 38 Q53 -4 21 -29 Q15 -22 8 -13 Q44 9 41 77 L41 105 ZM33 142 L121 142 L121 166 L13 166 L13 183 L121 183 L121 208 L141 208 L141 183 L248 183 L248 166 L141 166 L141 142 L228 142 L228 125 L33 125 L33 142 ZM201 89 L140 89 L140 54 L201 54 L201 89 ZM60 77 Q60 65 60 54 L121 54 L121 89 L60 89 L60 77 Z" /><glyph glyph-name="" unicode="&#x58f3;" d="M31 143 L118 143 L118 166 L14 166 L14 182 L118 182 L118 209 L138 209 L138 182 L244 182 L244 166 L138 166 L138 143 L225 143 L225 126 L31 126 L31 143 ZM173 68 L173 12 Q171 -5 192 -4 L202 -4 Q221 -5 224 8 Q227 25 228 41 Q239 35 247 33 Q245 16 242 2 Q236 -23 206 -22 L187 -22 Q152 -23 154 10 L154 52 L92 52 L92 46 Q97 -10 19 -30 Q18 -27 14 -20 Q11 -16 9 -13 Q79 0 72 48 L72 68 L173 68 ZM18 106 L240 106 L240 61 L221 61 L221 89 L37 89 L37 61 L18 61 L18 106 Z" /><glyph glyph-name="" unicode="&#x58f9;" d="M67 13 L77 20 L47 20 L47 70 L210 70 L210 20 L176 20 L189 14 Q187 12 181 6 Q174 -1 170 -5 L247 -5 L247 -20 L10 -20 L10 -5 L87 -5 Q76 4 67 13 ZM31 157 L119 157 L119 175 L14 175 L14 189 L119 189 L119 209 L137 209 L137 189 L244 189 L244 175 L137 175 L137 157 L225 157 L225 143 L31 143 L31 157 ZM18 129 L239 129 L239 84 L221 84 L221 114 L35 114 L35 84 L18 84 L18 129 ZM65 56 L65 35 L192 35 L192 56 L65 56 ZM45 100 L210 100 L210 85 L45 85 L45 100 ZM103 0 L93 -5 L150 -5 Q154 -1 162 9 Q168 17 171 20 L83 20 Q93 10 103 0 Z" /><glyph glyph-name="" unicode="&#x5904;" d="M70 204 Q65 180 59 159 L123 159 L123 141 Q114 73 89 34 Q111 9 141 2 Q175 -3 249 0 Q243 -14 242 -20 Q177 -22 139 -15 Q102 -8 78 18 Q63 -1 25 -30 Q14 -19 9 -15 Q45 8 65 35 Q48 61 37 100 Q33 91 25 74 Q22 68 20 65 Q15 72 7 82 Q36 134 51 207 L70 204 ZM156 207 L175 207 L175 125 L185 137 Q207 122 246 92 L233 75 Q209 97 175 121 L175 9 L156 9 L156 207 ZM103 141 L53 141 Q50 134 48 126 Q58 81 76 51 Q99 87 103 141 Z" /><glyph glyph-name="" unicode="&#x5907;" d="M42 85 L214 85 L214 -28 L196 -28 L196 -17 L60 -17 L60 -28 L42 -28 L42 85 ZM77 211 L94 204 Q88 193 83 186 L215 186 L215 171 Q185 141 154 124 Q196 110 249 107 Q246 102 243 95 Q240 90 239 87 Q171 97 132 113 Q89 96 15 81 Q13 85 9 92 Q6 96 5 99 Q60 106 110 124 Q83 140 65 164 Q49 145 24 124 Q22 126 18 131 Q14 135 12 137 Q54 170 77 211 ZM189 171 L79 171 Q100 148 132 133 Q167 149 189 171 ZM60 26 L60 -2 L119 -2 L119 26 L60 26 ZM60 70 L60 40 L119 40 L119 70 L60 70 ZM137 26 L137 -2 L196 -2 L196 26 L137 26 ZM196 70 L137 70 L137 40 L196 40 L196 70 Z" /><glyph glyph-name="" unicode="&#x590d;" d="M7 140 Q46 171 67 209 L87 206 Q85 204 82 198 Q78 193 76 190 L244 190 L244 174 L65 174 Q62 169 55 162 Q52 158 50 156 L220 156 L220 74 L44 74 L44 149 Q31 136 18 125 Q14 133 7 140 ZM7 13 Q54 37 81 71 L101 68 Q99 66 96 62 Q92 58 90 56 L220 56 L220 39 Q183 15 159 5 Q200 -3 249 -9 Q249 -9 248 -11 Q240 -23 238 -27 Q176 -17 136 -2 Q92 -18 32 -30 Q29 -25 21 -13 Q77 -4 114 5 Q89 17 69 34 Q46 14 19 0 Q16 4 7 13 ZM62 108 L62 90 L202 90 L202 108 L62 108 ZM62 141 L62 123 L202 123 L202 141 L62 141 ZM192 40 L86 40 Q108 24 136 13 Q164 24 192 40 Z" /><glyph glyph-name="" unicode="&#x590f;" d="M40 165 L108 165 L113 181 L14 181 L14 197 L245 197 L245 181 L132 181 L125 165 L220 165 L220 65 L101 65 Q94 56 86 49 L219 49 L219 35 Q195 18 159 2 Q194 -4 248 -10 Q245 -14 238 -25 Q237 -26 237 -27 Q183 -21 135 -5 Q92 -20 27 -30 Q26 -27 20 -18 Q17 -15 17 -14 Q74 -6 112 2 Q87 14 64 30 Q43 13 20 1 Q18 4 13 11 Q10 15 9 16 Q52 34 79 65 L40 65 L40 165 ZM57 94 L57 79 L203 79 L203 94 L57 94 ZM57 123 L57 108 L203 108 L203 123 L57 123 ZM57 151 L57 136 L203 136 L203 151 L57 151 ZM191 35 L82 35 Q107 20 135 9 Q166 21 191 35 Z" /><glyph glyph-name="" unicode="&#x5916;" d="M6 83 Q45 143 63 209 L83 203 Q77 184 70 165 L135 165 L135 149 Q121 28 26 -27 Q20 -19 14 -10 Q104 41 115 147 L63 147 Q56 130 47 115 Q59 107 80 90 Q87 85 90 82 L77 66 Q54 88 39 99 Q38 96 35 91 Q24 72 17 63 Q11 75 6 83 ZM159 207 L178 207 L178 -28 L159 -28 L159 207 ZM178 118 L191 132 Q229 103 250 86 L237 68 Q218 85 181 115 Q179 117 178 118 Z" /><glyph glyph-name="" unicode="&#x591a;" d="M164 114 L182 109 Q171 99 159 91 L237 91 L237 74 Q161 -9 27 -30 Q25 -24 17 -14 Q144 5 212 74 L135 74 Q125 68 113 61 Q116 58 122 52 Q133 42 137 37 L122 24 Q116 31 99 51 Q98 52 97 53 Q72 40 42 28 Q37 35 32 43 Q122 78 164 114 ZM126 211 L147 208 Q134 195 121 184 L228 184 L228 168 Q144 103 23 68 Q22 71 15 80 Q13 83 12 84 Q128 116 199 167 L99 167 Q98 167 96 165 Q93 164 92 163 Q99 157 111 146 Q118 140 121 137 L106 124 Q92 140 78 154 Q59 142 36 132 Q34 135 30 139 Q27 142 24 146 Q86 172 126 211 Z" /><glyph glyph-name="" unicode="&#x591f;" d="M7 125 Q32 160 50 209 L68 205 Q62 189 56 176 L117 176 Q117 162 117 144 Q150 171 172 208 L189 200 Q187 197 183 191 Q178 185 176 182 L237 182 L237 166 Q199 114 134 77 Q127 86 122 91 Q178 121 217 166 L163 166 Q161 163 154 156 Q167 145 176 136 L164 125 Q156 134 144 146 Q141 143 134 136 Q131 133 129 131 Q127 133 124 136 Q120 140 117 143 Q117 95 115 23 Q115 26 115 17 Q116 -25 73 -23 Q63 -24 46 -24 Q46 -15 43 -4 Q49 -5 73 -5 Q98 -7 98 20 Q100 67 100 160 L48 160 Q46 157 43 151 Q35 135 30 128 L81 128 L81 30 L39 30 L39 18 L23 18 L23 117 L18 109 Q14 116 7 125 ZM119 39 Q157 68 185 105 L201 98 Q195 89 188 82 L246 82 L246 66 Q207 4 123 -31 Q121 -28 117 -23 Q113 -17 111 -14 Q187 11 225 66 L174 66 Q167 59 161 52 Q173 41 182 32 L169 21 Q167 23 162 29 Q154 38 150 42 Q141 35 131 27 Q127 33 119 39 ZM39 113 L39 45 L66 45 L66 113 L39 113 Z" /><glyph glyph-name="" unicode="&#x5927;" d="M8 -10 Q109 34 115 122 L12 122 L12 141 L116 141 Q116 177 116 207 L138 207 Q138 197 137 171 Q137 149 137 141 L244 141 L244 122 L137 122 Q152 26 249 -4 Q247 -6 244 -11 Q237 -19 234 -25 Q150 8 128 89 Q112 15 23 -28 Q20 -25 15 -19 Q10 -12 8 -10 Z" /><glyph glyph-name="" unicode="&#x5929;" d="M7 -10 Q99 28 113 96 L10 96 L10 114 L116 114 Q116 117 116 120 Q116 141 116 174 L24 174 L24 192 L233 192 L233 174 L138 174 Q138 164 137 143 Q137 123 137 114 L246 114 L246 96 L140 96 Q165 17 248 -5 Q242 -15 235 -26 Q150 7 128 78 Q109 12 21 -29 Q15 -20 7 -10 Z" /><glyph glyph-name="" unicode="&#x592a;" d="M12 148 L115 148 L116 207 L137 207 L137 148 L244 148 L244 129 L137 129 Q165 29 248 -4 Q237 -16 231 -23 Q156 15 128 103 Q119 64 93 31 L108 41 Q113 36 127 20 Q144 2 150 -3 L133 -17 Q126 -8 106 14 Q96 26 92 30 Q65 -5 22 -28 Q17 -21 7 -10 Q101 37 114 129 L12 129 L12 148 Z" /><glyph glyph-name="" unicode="&#x592e;" d="M39 164 L118 164 L118 207 L138 207 L138 164 L216 164 L216 81 L246 81 L246 64 L141 64 Q168 5 248 -6 Q247 -8 245 -13 Q240 -23 239 -27 Q154 -6 128 52 Q111 1 18 -29 Q14 -19 8 -10 Q96 13 115 64 L10 64 L10 81 L39 81 L39 164 ZM117 81 Q118 110 118 147 L58 147 L58 81 L117 81 ZM137 147 Q137 111 137 81 L197 81 L197 147 L137 147 Z" /><glyph glyph-name="" unicode="&#x5931;" d="M8 -12 Q102 19 116 74 L11 74 L11 93 L120 93 Q120 96 120 99 Q122 120 123 142 L58 142 Q47 122 33 104 Q27 110 18 116 Q46 149 60 198 L79 192 Q77 183 70 167 Q68 162 67 160 L124 160 Q124 183 124 208 L145 208 Q145 200 145 184 Q144 168 144 160 L232 160 L232 142 L143 142 Q142 115 140 93 L246 93 L246 74 L142 74 Q165 13 249 -7 Q241 -16 235 -27 Q154 0 130 61 Q115 9 23 -30 Q21 -28 18 -24 Q11 -15 8 -12 Z" /><glyph glyph-name="" unicode="&#x5934;" d="M10 77 L133 77 Q138 114 140 207 L160 207 Q158 129 153 77 L246 77 L246 58 L150 58 Q150 56 148 52 Q147 50 147 49 Q151 47 158 42 Q218 6 242 -6 L228 -24 Q198 -3 139 33 Q116 -2 22 -29 Q18 -22 9 -11 Q120 16 130 58 L10 58 L10 77 ZM35 147 Q81 119 98 107 L85 91 Q83 92 79 95 Q40 123 23 133 L35 147 ZM65 197 Q100 176 126 157 L113 141 Q90 158 54 183 L65 197 Z" /><glyph glyph-name="" unicode="&#x5939;" d="M9 -11 Q97 17 114 64 L10 64 L10 81 L116 81 Q117 93 117 119 Q118 142 118 156 L20 156 L20 173 L118 173 L118 207 L138 207 L138 173 L236 173 L236 156 L138 156 Q138 104 137 81 L246 81 L246 64 L141 64 Q168 9 248 -7 Q242 -18 237 -27 Q154 -4 128 52 Q109 3 20 -29 Q18 -25 13 -17 Q10 -13 9 -11 ZM161 106 Q182 124 202 146 L216 133 Q191 108 174 93 L161 106 ZM37 134 L51 145 Q69 127 89 106 L73 93 Q70 97 64 104 Q47 123 37 134 Z" /><glyph glyph-name="" unicode="&#x5947;" d="M22 134 Q93 142 111 166 L26 166 L26 183 L120 183 Q124 193 124 208 L143 208 Q143 193 140 183 L232 183 L232 166 L133 166 Q133 164 131 162 Q172 149 225 131 L216 114 Q194 123 140 141 Q126 146 119 148 Q94 128 31 116 Q30 119 25 128 Q23 132 22 134 ZM40 73 L143 73 L143 6 L58 6 L58 -8 L40 -8 L40 73 ZM11 111 L246 111 L246 94 L208 94 L208 4 Q209 -27 176 -26 Q156 -28 141 -26 Q141 -24 140 -21 Q138 -11 137 -6 Q153 -8 170 -8 Q192 -10 190 9 L190 94 L11 94 L11 111 ZM58 57 L58 22 L125 22 L125 57 L58 57 Z" /><glyph glyph-name="" unicode="&#x594b;" d="M123 210 L143 204 Q137 189 130 176 L239 176 L239 158 L158 158 Q185 121 248 102 Q247 101 246 99 Q238 88 235 84 Q225 89 214 93 L214 -27 L196 -27 L196 -13 L60 -13 L60 -27 L42 -27 L42 90 Q39 89 32 86 Q26 83 22 81 Q19 86 11 95 Q10 97 9 98 Q66 119 97 158 L18 158 L18 176 L109 176 Q118 191 123 210 ZM120 158 Q100 127 67 105 L192 105 Q156 126 137 158 L120 158 ZM137 37 L137 1 L196 1 L196 37 L137 37 ZM60 37 L60 1 L119 1 L119 37 L60 37 ZM60 88 L60 53 L119 53 L119 88 L60 88 ZM196 88 L137 88 L137 53 L196 53 L196 88 Z" /><glyph glyph-name="" unicode="&#x5956;" d="M248 -8 Q242 -18 238 -27 Q156 -12 129 34 Q108 -12 17 -29 Q17 -28 16 -26 Q11 -17 8 -12 Q94 2 112 41 L13 41 L13 58 L119 58 Q121 66 122 73 L141 73 Q140 66 137 58 L244 58 L244 41 L143 41 Q172 0 248 -8 ZM97 140 Q132 171 147 209 L166 205 Q160 193 154 183 L235 183 L235 168 Q207 101 111 78 Q107 86 102 95 Q185 113 215 166 L144 166 Q141 162 137 158 Q154 146 169 131 L156 119 Q142 133 127 145 Q119 136 110 127 Q107 130 101 136 Q98 139 97 140 ZM71 207 L90 207 L90 69 L71 69 L71 119 Q60 113 35 101 Q22 94 15 91 L8 110 Q43 124 71 138 L71 207 ZM16 181 L28 192 Q46 176 63 156 L49 144 Q35 160 16 181 Z" /><glyph glyph-name="" unicode="&#x5957;" d="M13 42 L60 42 L60 124 Q57 123 51 119 Q30 109 16 103 Q12 110 6 119 Q59 137 89 166 L16 166 L16 181 L103 181 Q113 195 119 210 L138 205 Q136 201 132 193 Q127 185 125 181 L240 181 L240 166 L164 166 Q194 137 250 125 Q244 117 239 108 Q213 115 185 130 L185 123 L78 123 L78 106 L204 106 L204 91 L78 91 L78 74 L205 74 L205 59 L78 59 L78 42 L244 42 L244 27 L106 27 Q86 10 69 -2 Q85 -1 135 0 Q166 0 179 0 Q177 3 171 8 Q166 13 163 15 L175 26 Q200 4 180 21 Q200 4 224 -17 L210 -29 Q208 -26 202 -21 Q197 -15 194 -12 Q167 -13 103 -16 Q77 -17 64 -18 Q57 -18 42 -20 L36 -2 Q46 0 55 5 Q58 7 63 11 Q74 21 80 27 L13 27 L13 42 ZM113 166 Q101 150 82 138 L173 138 Q155 150 143 166 L113 166 Z" /><glyph glyph-name="" unicode="&#x5965;" d="M247 -9 Q246 -10 245 -13 Q237 -23 235 -28 Q155 -16 127 26 Q110 -15 18 -30 Q15 -21 8 -12 Q94 0 109 28 L15 28 L15 44 L116 44 Q118 50 119 58 L137 58 Q136 50 134 44 L239 44 L239 28 L146 28 Q172 -3 247 -9 ZM51 56 L34 56 L34 182 L108 182 Q112 196 115 209 L133 206 Q131 196 126 182 L222 182 L222 56 L205 56 L205 166 L51 166 L51 56 ZM120 161 L136 161 L136 120 L194 120 L194 105 L136 105 L136 88 L146 99 Q175 83 196 72 L185 58 Q172 67 145 83 Q139 86 136 88 L136 64 L120 64 L120 95 Q98 71 70 56 Q66 64 57 71 Q92 86 111 105 L62 105 L62 120 L120 120 L120 161 ZM148 136 Q167 148 176 157 L188 146 Q178 137 159 124 L148 136 ZM68 147 L78 157 Q87 152 107 136 L95 124 Q80 139 68 147 Z" /><glyph glyph-name="" unicode="&#x5973;" d="M232 -9 L219 -28 Q201 -17 159 4 Q142 13 134 17 Q104 -6 20 -29 Q16 -21 9 -10 Q82 5 114 27 Q76 45 43 60 Q51 77 67 116 Q71 125 73 130 L11 130 L11 148 L79 148 Q88 171 98 208 L119 204 Q118 201 116 194 Q107 165 101 148 L245 148 L245 130 L194 130 Q185 67 150 31 Q205 5 232 -9 ZM131 40 Q166 75 174 130 L94 130 Q80 91 69 68 Q98 56 131 40 Z" /><glyph glyph-name="" unicode="&#x5976;" d="M182 116 L198 172 L149 172 Q149 81 139 45 Q129 6 98 -28 Q88 -18 83 -15 Q114 17 122 53 Q131 87 131 172 L102 172 L102 190 L218 190 L218 172 L201 116 L238 116 Q238 110 237 98 Q236 43 234 28 Q234 -23 194 -21 Q172 -21 158 -21 Q158 -20 157 -17 Q156 -6 154 -1 Q159 -1 174 -2 Q189 -2 193 -2 Q216 -4 216 29 Q217 45 218 75 Q219 91 219 98 L182 98 L182 116 ZM101 22 L89 5 Q79 14 67 24 Q54 1 19 -25 Q14 -19 6 -11 Q36 10 53 36 Q41 47 17 66 Q27 100 34 139 L9 139 L9 157 L37 157 Q38 165 41 181 Q43 198 45 207 L64 205 Q63 198 61 184 Q58 166 56 157 L101 157 L101 141 Q95 77 77 41 Q89 33 101 22 ZM82 139 L52 139 Q48 108 37 71 Q41 68 50 62 Q58 56 62 53 Q78 85 82 139 Z" /><glyph glyph-name="" unicode="&#x597d;" d="M110 15 L95 0 Q89 5 77 16 Q71 21 68 24 Q55 1 20 -25 Q15 -18 9 -9 Q37 10 55 36 Q35 53 18 67 Q29 107 34 139 L8 139 L8 157 L37 157 Q39 166 41 183 Q44 200 45 208 L64 206 Q63 199 60 184 Q58 165 56 157 L102 157 L102 141 Q96 75 78 40 Q87 33 105 19 Q108 16 110 15 ZM168 137 Q181 148 207 169 Q191 156 212 174 L110 174 L110 191 L239 191 L239 172 Q228 162 200 139 Q191 132 187 128 L187 99 L248 99 L248 82 L187 82 L187 6 Q188 -24 155 -24 Q151 -24 144 -24 Q132 -25 124 -24 Q124 -20 122 -9 Q121 -6 121 -4 Q130 -5 153 -5 Q168 -6 168 8 L168 82 L101 82 L101 99 L168 99 L168 137 ZM83 139 L53 139 Q46 100 38 72 Q51 63 63 52 Q79 84 83 139 Z" /><glyph glyph-name="" unicode="&#x5982;" d="M138 179 L233 179 L233 -18 L214 -18 L214 0 L156 0 L156 -20 L138 -20 L138 179 ZM127 5 L112 -9 Q106 -3 93 7 Q82 17 76 22 Q55 -6 19 -28 Q14 -21 7 -11 Q42 8 61 35 Q40 54 20 69 Q32 110 38 139 L8 139 L8 157 L42 157 Q42 159 43 163 Q48 191 50 208 L71 205 Q67 183 62 157 L115 157 L115 140 Q108 75 87 38 Q96 30 114 16 Q123 8 127 5 ZM156 161 L156 17 L214 17 L214 161 L156 161 ZM96 139 L58 139 Q50 102 41 75 Q55 64 72 50 Q92 80 96 139 Z" /><glyph glyph-name="" unicode="&#x59a8;" d="M159 205 L177 210 Q185 192 192 173 L180 169 L249 169 L249 151 L155 151 Q155 144 154 131 Q154 119 154 113 L231 113 Q230 62 228 16 Q229 -26 183 -24 Q167 -25 157 -25 Q157 -24 157 -21 Q155 -8 153 -3 Q166 -4 184 -4 Q210 -6 209 18 Q212 58 212 96 L153 96 Q149 7 95 -30 Q91 -24 82 -15 Q115 11 125 44 Q135 74 135 151 L103 151 L103 169 L172 169 Q166 187 159 205 ZM100 15 L86 0 Q81 4 71 14 Q66 19 63 22 Q48 -1 17 -25 Q12 -17 7 -9 Q32 9 50 35 Q44 40 33 51 Q22 62 16 67 Q22 88 32 140 L8 140 L8 157 L35 157 Q37 171 41 199 Q42 206 42 209 L61 206 Q60 198 57 183 Q55 166 53 157 L98 157 L98 140 Q91 70 73 39 L100 15 ZM79 140 L50 140 Q43 101 35 73 Q47 63 60 52 Q76 85 79 140 Z" /></font>
</defs>
</svg>
