<?xml version="1.0" encoding="UTF-8" standalone="no"?>
<svg width="105px" height="51px" viewBox="0 0 105 51" version="1.1" xmlns="http://www.w3.org/2000/svg" xmlns:xlink="http://www.w3.org/1999/xlink">
    <!-- Generator: Sketch 3.8.1 (29687) - http://www.bohemiancoding.com/sketch -->
    <title>Group 5</title>
    <desc>Created with Sketch.</desc>
    <defs></defs>
    <g id="Page-1" stroke="none" stroke-width="1" fill="none" fill-rule="evenodd">
        <g id="rop首页" transform="translate(-12.000000, -7.000000)">
            <g id="Group-5" transform="translate(12.000000, 7.000000)">
                <path d="M104.10226,19.2746946 L102.660506,19.2746946 C102.483178,19.2746946 102.398369,19.1897291 102.398369,19.0120739 L102.398369,15.8606256 C102.398369,15.6057291 102.33669,15.543936 102.089972,15.543936 L101.997453,15.543936 C101.750736,15.543936 101.689057,15.6057291 101.689057,15.8606256 L101.689057,19.1742808 C101.689057,19.7149704 101.920354,19.9466946 102.460048,19.9466946 L104.10226,19.9466946 C104.341267,19.9466946 104.402946,19.8849015 104.402946,19.6377291 L104.402946,19.5836601 C104.402946,19.3364877 104.341267,19.2746946 104.10226,19.2746946 L104.10226,19.2746946 Z M98.7207403,16.609867 C98.828679,16.2082118 98.8826484,16.1232463 99.098526,16.1232463 C99.3144036,16.1232463 99.368373,16.2082118 99.4763118,16.609867 L99.8772273,18.0851773 L98.3198248,18.0851773 L98.7207403,16.609867 Z M97.4177649,19.9466946 L97.5102838,19.9466946 C97.7570011,19.9466946 97.8263903,19.8849015 97.9034894,19.6454532 L98.1502067,18.7262808 L100.046845,18.7262808 L100.293563,19.6454532 C100.370662,19.8849015 100.440051,19.9466946 100.686768,19.9466946 L100.779287,19.9466946 C101.033714,19.9466946 101.072264,19.8849015 101.010585,19.6454532 L100.177914,16.6253153 C100.062265,16.1850394 99.9311967,15.883798 99.8001281,15.7293153 C99.6613497,15.5671084 99.4300523,15.489867 99.098526,15.489867 C98.7747097,15.489867 98.5434122,15.5671084 98.3969239,15.7293153 C98.2658554,15.883798 98.1347868,16.1850394 98.0191381,16.6253153 L97.1864675,19.6454532 C97.1247882,19.8849015 97.1633377,19.9466946 97.4177649,19.9466946 L97.4177649,19.9466946 Z M95.2281495,16.215936 L95.2281495,19.6377291 C95.2281495,19.8849015 95.2898288,19.9466946 95.536546,19.9466946 L95.629065,19.9466946 C95.8834921,19.9466946 95.9374615,19.8849015 95.9374615,19.6377291 L95.9374615,16.215936 L96.9860097,16.215936 C97.232727,16.215936 97.2866964,16.1541429 97.2866964,15.9146946 L97.2866964,15.8529015 C97.2866964,15.6057291 97.232727,15.543936 96.9860097,15.543936 L94.1718913,15.543936 C93.932884,15.543936 93.8712047,15.6057291 93.8712047,15.8529015 L93.8712047,15.9146946 C93.8712047,16.1541429 93.932884,16.215936 94.1718913,16.215936 L95.2281495,16.215936 Z M92.8303664,19.9466946 C93.0770836,19.9466946 93.1387629,19.8849015 93.1387629,19.6377291 L93.1387629,15.8606256 C93.1387629,15.6057291 93.0770836,15.543936 92.8303664,15.543936 L92.7455573,15.543936 C92.4911302,15.543936 92.4294509,15.6057291 92.4294509,15.8606256 L92.4294509,19.6377291 C92.4294509,19.8849015 92.4911302,19.9466946 92.7455573,19.9466946 L92.8303664,19.9466946 Z M89.0679286,16.4708325 C89.0679286,16.3009015 89.1527377,16.215936 89.3300657,16.215936 L90.1704462,16.215936 C90.7409798,16.215936 90.9414376,16.4476601 90.9414376,16.9806256 C90.9414376,17.5213153 90.7409798,17.7453153 90.1704462,17.7453153 L89.0679286,17.7453153 L89.0679286,16.4708325 Z M88.7518222,19.9466946 C89.0062493,19.9466946 89.0679286,19.8849015 89.0679286,19.6377291 L89.0679286,18.4095911 L90.1704462,18.4095911 C91.1573152,18.4095911 91.6507496,17.9306946 91.6507496,16.9806256 C91.6507496,16.0614532 91.2189945,15.543936 90.1704462,15.543936 L89.121898,15.543936 C88.5822041,15.543936 88.3586166,15.7756601 88.3586166,16.3163498 L88.3586166,19.6377291 C88.3586166,19.8849015 88.4202959,19.9466946 88.6670131,19.9466946 L88.7518222,19.9466946 Z M85.3748801,16.609867 C85.4905288,16.2082118 85.5522081,16.1232463 85.7680856,16.1232463 C85.9839632,16.1232463 86.0302227,16.2082118 86.1458714,16.609867 L86.5467869,18.0851773 L84.9816745,18.0851773 L85.3748801,16.609867 Z M86.7086951,18.7262808 L86.9631222,19.6454532 C87.0325115,19.8849015 87.1019007,19.9466946 87.3563278,19.9466946 L87.4488468,19.9466946 C87.695564,19.9466946 87.7341136,19.8849015 87.6801442,19.6454532 L86.8474735,16.6253153 C86.7241149,16.1850394 86.6007563,15.883798 86.4619779,15.7293153 C86.3309093,15.5671084 86.091902,15.489867 85.7680856,15.489867 C85.4288495,15.489867 85.205262,15.5671084 85.0587736,15.7293153 C84.9277051,15.883798 84.7966366,16.1850394 84.6732779,16.6253153 L83.8483172,19.6454532 C83.7866379,19.8849015 83.8251875,19.9466946 84.0796146,19.9466946 L84.1721336,19.9466946 C84.4188508,19.9466946 84.48824,19.8849015 84.5653391,19.6454532 L84.8120564,18.7262808 L86.7086951,18.7262808 Z M82.2754948,19.351936 C81.458244,19.351936 81.1806871,18.9889015 81.1806871,18.3323498 L81.1806871,17.2432463 C81.1806871,16.4940049 81.4967936,16.1464187 82.2523651,16.1464187 C82.5761815,16.1464187 82.8614483,16.2004877 83.1235853,16.3009015 C83.3394629,16.385867 83.3934323,16.3240739 83.3934323,16.0846256 L83.3934323,15.9764877 C83.3934323,15.7602118 83.3548827,15.7293153 83.1158754,15.6289015 C82.884578,15.5362118 82.5993112,15.489867 82.260075,15.489867 C81.0573285,15.489867 80.4482454,16.0769015 80.4482454,17.2432463 L80.4482454,18.3323498 C80.4482454,19.4986946 81.0496186,20.0162118 82.260075,20.0162118 C82.614731,20.0162118 82.9077078,19.969867 83.1390052,19.8849015 C83.3394629,19.8076601 83.416562,19.745867 83.416562,19.5295911 L83.416562,19.4291773 C83.416562,19.2129015 83.2854935,19.1511084 83.1467151,19.2051773 C82.9231276,19.3055911 82.6378608,19.351936 82.2754948,19.351936 L82.2754948,19.351936 Z M78.4745075,20.0162118 C78.6749653,20.0162118 78.8600032,20.0084877 79.052751,19.969867 C79.5847351,19.8849015 79.7466432,19.6145567 79.7466432,19.0275222 L79.7466432,17.783936 C79.7466432,17.5444877 79.6849639,17.4826946 79.4459566,17.4826946 L79.3842773,17.4826946 C79.1375601,17.4826946 79.0758808,17.5444877 79.0758808,17.783936 L79.0758808,19.0120739 C79.0758808,19.2051773 78.9987816,19.3133153 78.8445834,19.3287635 C78.7674842,19.3442118 78.6441256,19.351936 78.4745075,19.351936 C77.5184782,19.351936 77.2023718,19.0043498 77.2023718,18.347798 L77.2023718,17.2664187 C77.2023718,16.4631084 77.541608,16.1464187 78.4513778,16.1464187 C78.7829041,16.1464187 79.0990105,16.2004877 79.3996971,16.3163498 C79.6155747,16.3935911 79.6695441,16.331798 79.6695441,16.0923498 L79.6695441,15.991936 C79.6695441,15.767936 79.6464144,15.7370394 79.407407,15.6520739 C79.1221402,15.543936 78.7983239,15.489867 78.4436679,15.489867 C77.094433,15.489867 76.4776399,16.1309704 76.4776399,17.2200739 L76.4776399,18.3014532 C76.4776399,19.5295911 77.0713033,20.0162118 78.4745075,20.0162118 L78.4745075,20.0162118 Z M72.5301642,19.9466946 C72.7768815,19.9466946 72.8385608,19.8849015 72.8385608,19.6377291 L72.8385608,16.3163498 C72.8385608,16.161867 72.8848203,16.0846256 72.9696293,16.0846256 C73.0698582,16.0846256 73.1084077,16.1232463 73.1546672,16.3009015 L73.9873379,19.2592463 C74.1492461,19.8231084 74.3574137,20.0162118 74.8508482,20.0162118 C75.3905421,20.0162118 75.6141296,19.7767635 75.6141296,19.1124877 L75.6141296,15.8606256 C75.6141296,15.6057291 75.5524503,15.543936 75.3057331,15.543936 L75.2363439,15.543936 C74.9896266,15.543936 74.9279473,15.6057291 74.9279473,15.8606256 L74.9279473,19.1897291 C74.9279473,19.3364877 74.8816878,19.4137291 74.7968788,19.4137291 C74.7043598,19.4137291 74.6658103,19.3751084 74.6195508,19.2206256 L73.7714603,16.1927635 C73.6095521,15.6520739 73.4245142,15.4821429 72.9464996,15.4821429 C72.3836759,15.4821429 72.1523785,15.7215911 72.1523785,16.3704187 L72.1523785,19.6377291 C72.1523785,19.8849015 72.2063479,19.9466946 72.460775,19.9466946 L72.5301642,19.9466946 Z M68.4362002,17.2741429 C68.4362002,16.8724877 68.5055894,16.5866946 68.6520778,16.4167635 C68.7908562,16.2468325 69.0838329,16.1541429 69.5078782,16.1541429 C69.9319234,16.1541429 70.2249001,16.2468325 70.3636786,16.4167635 C70.502457,16.5866946 70.5795561,16.8724877 70.5795561,17.2741429 L70.5795561,18.2396601 C70.5795561,18.6335911 70.502457,18.9116601 70.3636786,19.0970394 C70.2249001,19.2669704 69.9319234,19.351936 69.5078782,19.351936 C69.0838329,19.351936 68.7908562,19.2669704 68.6520778,19.0970394 C68.5055894,18.9116601 68.4362002,18.6335911 68.4362002,18.2396601 L68.4362002,17.2741429 Z M69.5078782,20.023936 C70.1786406,20.023936 70.6335255,19.8771773 70.8956626,19.575936 C71.1577996,19.2669704 71.2965781,18.8266946 71.2965781,18.2396601 L71.2965781,17.2741429 C71.2965781,16.6871084 71.1655096,16.2468325 70.9033725,15.9455911 C70.6412354,15.6443498 70.1786406,15.489867 69.5078782,15.489867 C68.8371157,15.489867 68.3745209,15.6443498 68.1123838,15.9455911 C67.8502468,16.2468325 67.7191782,16.6871084 67.7191782,17.2741429 L67.7191782,18.2396601 C67.7191782,18.8266946 67.8502468,19.2669704 68.1123838,19.575936 C68.3745209,19.8771773 68.8371157,20.023936 69.5078782,20.023936 L69.5078782,20.023936 Z M64.3884956,16.4708325 C64.3884956,16.3009015 64.4733047,16.215936 64.6506327,16.215936 L65.514143,16.215936 C66.0846766,16.215936 66.2620046,16.4244877 66.2620046,16.9033842 C66.2620046,17.3668325 66.0846766,17.5908325 65.514143,17.5908325 L64.3884956,17.5908325 L64.3884956,16.4708325 Z M64.0800991,19.9466946 C64.3268163,19.9466946 64.3884956,19.8849015 64.3884956,19.6377291 L64.3884956,18.2551084 L65.2597158,18.2551084 L66.1463559,19.6454532 C66.3005542,19.8849015 66.4084929,19.9466946 66.6860498,19.9466946 L66.7939886,19.9466946 C67.0792554,19.9466946 67.117805,19.8849015 66.9558968,19.6454532 L66.0307072,18.2087635 C66.7014697,18.0697291 66.9790265,17.6294532 66.9790265,16.9033842 C66.9790265,16.0228325 66.5626912,15.543936 65.514143,15.543936 L64.4501749,15.543936 C63.910481,15.543936 63.6791836,15.7756601 63.6791836,16.3163498 L63.6791836,19.6377291 C63.6791836,19.8849015 63.7408629,19.9466946 63.9875801,19.9466946 L64.0800991,19.9466946 Z M99.0214269,33.5875222 C99.0214269,36.4222808 98.119367,37.6581429 94.6267762,37.6581429 C91.1418953,37.6581429 90.1550264,36.4222808 90.1550264,33.5875222 L90.1550264,30.2970394 C90.1550264,27.4545567 91.1418953,26.2264187 94.6267762,26.2264187 C98.2041761,26.2264187 99.0214269,27.3695911 99.0214269,30.2970394 L99.0214269,33.5875222 Z M94.5882266,21.1593842 C88.7132726,21.1593842 84.8120564,24.0404877 84.8120564,30.1657291 L84.8120564,48.139798 C84.8120564,50.0013153 85.2669413,50.4493153 87.1173205,50.4493153 L87.8574722,50.4493153 C89.7001415,50.4493153 90.1550264,50.0013153 90.1550264,48.139798 L90.1550264,40.3770394 C91.3038035,41.9373153 93.1927323,42.7097291 95.7755533,42.7097291 C101.40379,42.7097291 104.402946,39.3883498 104.402946,33.4562118 L104.402946,30.1657291 C104.402946,24.1640739 101.118523,21.1593842 94.5882266,21.1593842 L94.5882266,21.1593842 Z M77.449089,33.5875222 C77.449089,36.4222808 76.5470291,37.6581429 73.0621483,37.6581429 C69.5695575,37.6581429 68.5826885,36.4222808 68.5826885,33.5875222 L68.5826885,30.2970394 C68.5826885,27.4545567 69.5695575,26.2264187 73.0621483,26.2264187 C76.5470291,26.2264187 77.449089,27.4545567 77.449089,30.2970394 L77.449089,33.5875222 Z M73.0621483,21.1593842 C66.6552102,21.1593842 63.201169,24.4112463 63.201169,30.2970394 L63.201169,33.5875222 C63.201169,39.7127635 66.3622335,42.7097291 73.0621483,42.7097291 C79.4613764,42.7097291 82.8306086,39.5042118 82.8306086,33.5875222 L82.8306086,30.2970394 C82.8306086,24.1640739 79.7543531,21.1593842 73.0621483,21.1593842 L73.0621483,21.1593842 Z M51.7288177,27.415936 L45.5763068,27.415936 L45.5763068,21.8622808 C45.5763068,21.0435222 45.9849322,20.6264187 46.802183,20.6264187 L51.7288177,20.6264187 C54.3193486,20.6264187 55.3062176,21.7309704 55.3062176,24.0404877 C55.3062176,26.3036601 54.111181,27.415936 51.7288177,27.415936 L51.7288177,27.415936 Z M55.2599581,32.1431084 C58.9530066,31.2007635 60.8033859,28.4895911 60.8033859,24.0404877 C60.8033859,18.3246256 57.76568,15.4821429 51.7288177,15.4821429 L44.9980633,15.4821429 C41.551732,15.4821429 40.0714286,16.9651773 40.0714286,20.4255911 L40.0714286,39.8363498 C40.0714286,41.6824187 40.5186036,42.2231084 42.4537918,42.2231084 L43.1939435,42.2231084 C45.1214219,42.2231084 45.5763068,41.6824187 45.5763068,39.8363498 L45.5763068,32.5602118 L49.3079049,32.5602118 L54.3193486,40.2071084 C55.4218663,41.8060049 56.1697279,42.2231084 58.0123972,42.2231084 L59.5775096,42.2231084 C61.504988,42.2231084 61.6668962,41.7673842 60.6414777,40.2457291 L55.2599581,32.1431084 Z" id="Fill-1-Copy" fill="#EEFCFF"></path>
                <polygon id="Fill-1" fill="#00C5A3" points="17.6251158 0.000206422082 21.1502204 6.19183678 24.6753249 0.000206422082"></polygon>
                <polygon id="Fill-2" fill="#00C5A3" points="8.8125579 0.000206422082 12.3376625 6.19183678 15.862767 0.000206422082"></polygon>
                <polygon id="Fill-3" fill="#00C5A3" points="4.40627895 6.70871768 11.4564881 6.70871768 7.93138352 0.516055206"></polygon>
                <polygon id="Fill-4" fill="#00C5A3" points="22.0323106 6.70871768 29.0815021 6.70871768 25.5563975 0.516055206"></polygon>
                <polygon id="Fill-5" fill="#00C5A3" points="25.5570081 13.9334906 29.0821127 7.74082809 22.0319036 7.74082809"></polygon>
                <polygon id="Fill-6" fill="#00C5A3" points="11.4565899 7.74082809 4.40638071 7.74082809 7.93148528 13.9334906"></polygon>
                <polygon id="Fill-7" fill="#00C5A3" points="0 14.4492361 7.05020914 14.4492361 3.52510457 8.25760577"></polygon>
                <polygon id="Fill-8" fill="#00C5A3" points="26.4385896 14.4492361 33.4877811 14.4492361 29.9636941 8.25760577"></polygon>
                <polygon id="Fill-9" fill="#00C5A3" points="26.4385896 15.4812433 29.9636941 21.6739058 33.4877811 15.4812433"></polygon>
                <polygon id="Fill-10" fill="#00C5A3" points="0 15.4812433 3.52510457 21.6739058 7.05020914 15.4812433"></polygon>
                <polygon id="Fill-11" fill="#EEFCFF" points="24.675732 20.126153 16.7442467 6.19266247 8.81276143 20.126153"></polygon>
                <polygon id="Fill-12" fill="#00C5A3" points="22.0323106 23.2226907 25.5563975 29.414321 29.0815021 23.2226907"></polygon>
                <polygon id="Fill-13" fill="#00C5A3" points="13.2188368 23.2226907 16.7439414 29.414321 20.269046 23.2226907"></polygon>
                <polygon id="Fill-14" fill="#00C5A3" points="4.40627895 23.2226907 7.93138352 29.414321 11.4564881 23.2226907"></polygon>
                <polygon id="Fill-15" fill="#00C5A3" points="8.8125579 29.9312019 15.862767 29.9312019 12.3376625 23.7385395"></polygon>
                <polygon id="Fill-16" fill="#00C5A3" points="17.6251158 29.9312019 24.6753249 29.9312019 21.1502204 23.7385395"></polygon>
            </g>
        </g>
    </g>
</svg>