<?xml version="1.0" encoding="UTF-8"?>
<svg width="16px" height="16px" viewBox="0 0 16 16" version="1.1" xmlns="http://www.w3.org/2000/svg" xmlns:xlink="http://www.w3.org/1999/xlink">
    <!-- Generator: Sketch 39.1 (31720) - http://www.bohemiancoding.com/sketch -->
    <title>pin</title>
    <desc>Created with Sketch.</desc>
    <defs></defs>
    <g id="Page-1" stroke="none" stroke-width="1" fill="none" fill-rule="evenodd">
        <g id="地址设置校验" transform="translate(-1236.000000, -393.000000)" fill="#FFFFFF">
            <path d="M1244.738,401.746848 C1244.76252,401.801457 1244.97713,402.297109 1244.96165,402.841978 C1244.95226,403.172065 1244.68165,403.433457 1244.35365,403.433457 C1244.34774,403.433457 1244.34183,403.433283 1244.33591,403.433109 C1243.99991,403.423717 1243.73522,403.143543 1243.74478,402.80737 C1243.75122,402.582326 1243.66113,402.323022 1243.62583,402.241978 C1243.49209,401.935022 1243.63087,401.576065 1243.9373,401.440587 C1244.24304,401.305109 1244.60078,401.441109 1244.738,401.746848 M1248.86078,397.981978 C1248.59539,397.857978 1248.28096,397.912935 1248.07365,398.120065 L1245.462,400.731717 C1245.26409,400.929457 1245.20478,401.228413 1245.31017,401.48737 C1245.3133,401.495196 1245.6267,402.276239 1245.68009,403.287196 C1245.73313,404.292065 1245.51991,405.153109 1245.0453,405.856413 L1242.09487,402.905804 C1242.0947,402.90563 1242.0947,402.90563 1242.09452,402.905457 C1242.09435,402.905283 1242.09417,402.905109 1242.094,402.904935 L1239.14357,399.9545 C1241.0067,398.696065 1243.40148,399.644761 1243.5107,399.688935 C1243.7707,399.796239 1244.0693,399.736587 1244.26809,399.537978 L1246.87974,396.926152 C1247.08687,396.719022 1247.142,396.404413 1247.01783,396.139196 C1246.7747,395.619891 1246.86357,395.139543 1247.01696,394.785283 L1250.21435,397.982674 C1249.85974,398.136239 1249.37939,398.224935 1248.86078,397.981978 M1251.79626,397.596935 L1247.40304,393.203543 C1247.13139,392.932239 1246.69087,392.932065 1246.41922,393.203543 C1246.36026,393.2625 1245.09383,394.556413 1245.58043,396.257804 L1243.59157,398.246848 C1242.50409,397.916761 1239.69174,397.345457 1237.62113,399.415891 C1237.34948,399.687717 1237.34948,400.128065 1237.62113,400.399717 L1240.6187,403.397283 L1236.20374,407.812413 C1235.93209,408.084065 1235.93209,408.524413 1236.20374,408.796239 C1236.33957,408.932065 1236.51765,408.999891 1236.69557,408.999891 C1236.87365,408.999891 1237.05174,408.932065 1237.18757,408.796239 L1241.60252,404.381283 L1244.60009,407.378848 C1244.73591,407.5145 1244.914,407.5825 1245.09209,407.5825 C1245.27017,407.5825 1245.44809,407.5145 1245.58391,407.378848 C1247.65435,405.308239 1247.08322,402.495891 1246.75296,401.408413 L1248.742,399.41937 C1250.44374,399.906326 1251.7373,398.639543 1251.79626,398.580587 C1252.06791,398.308935 1252.06791,397.868587 1251.79626,397.596935" id="pin"></path>
        </g>
    </g>
</svg>