<?xml version="1.0" encoding="UTF-8"?>
<svg width="16px" height="24px" viewBox="0 0 16 24" version="1.1" xmlns="http://www.w3.org/2000/svg" xmlns:xlink="http://www.w3.org/1999/xlink">
    <!-- Generator: Sketch 39.1 (31720) - http://www.bohemiancoding.com/sketch -->
    <title>Page 1</title>
    <desc>Created with Sketch.</desc>
    <defs></defs>
    <g id="Page-1" stroke="none" stroke-width="1">
        <g id="结构排序" transform="translate(-1828.000000, -337.000000)" >
            <g id="Page-1" transform="translate(1828.000000, 337.000000)">
                <path d="M14.8594107,8.11538462 C14.8165389,8.11538462 14.7892569,8.11784615 14.7456671,8.12297436 C14.1866928,8.18789744 13.7928466,8.68389744 13.7928466,9.24676923 L13.7928466,12.7248205 C13.7928466,13.0048205 13.5653594,13.2792821 13.2852569,13.2792821 L13.2760261,13.2792821 C12.9731543,13.2792821 12.7263851,12.9859487 12.7263851,12.6830769 L12.7263851,7.07251282 C12.7263851,6.51005128 12.3173594,6.01405128 11.7587953,5.94912821 C11.7152056,5.94389744 11.6618723,5.94153846 11.6190005,5.94153846 C11.0152056,5.94153846 10.5112056,6.43548718 10.5112056,7.03928205 L10.5112056,12.7031795 C10.5112056,12.9951795 10.2736671,13.2315897 9.98197483,13.2315897 C9.68556457,13.2315897 9.44474406,12.9915897 9.44474406,12.6951795 L9.44474406,7.95312821 C9.44474406,7.39066667 9.04607739,6.89466667 8.48720559,6.82974359 C8.44351329,6.82451282 8.38505175,6.82215385 8.34217995,6.82215385 C7.73838508,6.82174359 7.22915431,7.31610256 7.22915431,7.91989744 L7.22915431,12.6958974 C7.22915431,12.992 6.98843636,13.232 6.69274406,13.232 C6.40023124,13.232 6.16269277,12.9947692 6.16269277,12.7027692 L6.16269277,7.07251282 C6.16269277,6.51005128 5.77448765,6.01405128 5.21592354,5.94912821 C5.17192354,5.94389744 5.10823124,5.94153846 5.0657697,5.94153846 C4.46156457,5.94153846 3.94710303,6.43548718 3.94710303,7.03928205 L3.94710303,15.212 C3.94710303,15.5152821 3.72997483,15.7179487 3.47038508,15.7179487 C3.35059021,15.7179487 3.24402611,15.6750769 3.14269277,15.5789744 L1.84823124,14.3490256 C1.63664149,14.1378462 1.3617697,14.0321026 1.08330816,14.0321026 C0.804538928,14.0321026 0.528026107,14.1378462 0.316538928,14.3490256 C-0.106127739,14.7721026 -0.105307226,15.4635897 0.317769697,15.8862564 L4.94597483,21.9900513 C4.94638508,21.9907692 4.94710303,21.9915897 4.94710303,21.9924103 L5.0628979,23.5264615 C5.08094918,23.7668718 5.28166713,23.9459487 5.52248765,23.9459487 L5.52330816,23.9459487 L13.6013594,23.946359 C13.8321287,23.9459487 14.0277184,23.7780513 14.0576671,23.5489231 L14.2684364,21.9447179 C14.2772569,21.8757949 14.2713082,21.8116923 14.3089492,21.7532308 C15.5408466,19.8341538 15.9262825,16.6638974 15.9262825,13.232 L15.9262825,9.21312821 C15.9262825,8.6094359 15.4632056,8.11538462 14.8594107,8.11538462 M2.40792354,6.93435897 C2.67992354,6.93435897 2.90023124,6.71394872 2.90023124,6.44194872 C2.90023124,3.43271795 5.34823124,0.984820513 8.35735944,0.984820513 C11.3665902,0.984820513 13.8144876,3.43271795 13.8144876,6.44194872 C13.8144876,6.71394872 14.0348979,6.93435897 14.3068979,6.93435897 C14.5790005,6.93435897 14.7993082,6.71394872 14.7993082,6.44194872 C14.7993082,2.88984615 11.909462,0 8.35735944,0 C4.80535944,0 1.91551329,2.88984615 1.91551329,6.44194872 C1.91551329,6.71394872 2.13582098,6.93435897 2.40792354,6.93435897 M4.49838508,5.04810256 C4.69110303,4.98882051 4.89582098,4.95671795 5.10741072,4.95671795 C5.1883338,4.95671795 5.27048765,4.96153846 5.35100047,4.97117949 C6.13787226,5.0625641 6.77930816,5.59415385 7.05048765,6.30851282 C7.42187226,6.00317949 7.88259021,5.83733333 8.36823124,5.83733333 C8.44915431,5.83733333 8.53130816,5.84215385 8.61182098,5.85179487 C9.01643636,5.89866667 9.38228252,6.06174359 9.67951329,6.30646154 C9.78248765,6.03292308 9.9443338,5.78123077 10.157462,5.56769231 C10.5517184,5.17394872 11.07418,4.95671795 11.629462,4.95671795 C11.7103851,4.95671795 11.7921287,4.96153846 11.8730517,4.97117949 C11.9903851,4.98482051 12.1042312,5.00964103 12.2143851,5.04205128 C11.6422825,3.46553846 10.1314107,2.33979487 8.35735944,2.33979487 C6.58135944,2.33979487 5.06894918,3.46882051 4.49838508,5.04810256" id="Fill-1"></path>
            </g>
        </g>
    </g>
</svg>